AnekGujarati-ExpandedThin.ufo
<glyph name="underscore" format="2">
  <advance width="1270"/>
  <unicode hex="005F"/>
  <outline>
    <contour>
      <point x="90" y="-160" type="line"/>
      <point x="1180" y="-160" type="line"/>
      <point x="1180" y="-128" type="line"/>
      <point x="90" y="-128" type="line"/>
    </contour>
  </outline>
</glyph>
<glyph name="grave" format="2">
  <advance width="556"/>
  <unicode hex="0060"/>
  <anchor x="442" y="952" name="_top"/>
  <anchor x="442" y="1321" name="top"/>
  <outline>
    <contour>
      <point x="154" y="1388" type="line"/>
      <point x="100" y="1388" type="line"/>
      <point x="100" y="1385" type="line"/>
      <point x="412" y="1114" type="line"/>
      <point x="456" y="1114" type="line"/>
      <point x="456" y="1116" type="line"/>
    </contour>
  </outline>
</glyph>
<glyph name="l" format="2">
  <advance width="450"/>
  <unicode hex="006C"/>
  <anchor x="225" y="0" name="bottom"/>
  <anchor x="225" y="646" name="center"/>
  <anchor x="225" y="1324" name="top"/>
  <anchor x="490" y="1324" name="topright"/>
  <outline>
    <contour>
      <point x="206" y="0" type="line"/>
      <point x="244" y="0" type="line"/>
      <point x="244" y="1324" type="line"/>
      <point x="206" y="1324" type="line"/>
    </contour>
  </outline>
</glyph>
<glyph name="z" format="2">
  <advance width="1227"/>
  <unicode hex="007A"/>
  <anchor x="614" y="0" name="bottom"/>
  <anchor x="614" y="476" name="center"/>
  <anchor x="614" y="952" name="top"/>
  <outline>
    <contour>
      <point x="1111" y="32" type="line"/>
      <point x="168" y="32" type="line"/>
      <point x="1105" y="922" type="line"/>
      <point x="1105" y="952" type="line"/>
      <point x="120" y="952" type="line"/>
      <point x="120" y="920" type="line"/>
      <point x="1052" y="920" type="line"/>
      <point x="116" y="30" type="line"/>
      <point x="116" y="0" type="line"/>
      <point x="1111" y="0" type="line"/>
    </contour>
  </outline>
</glyph>
<glyph name="section" format="2">
  <advance width="1305"/>
  <unicode hex="00A7"/>
  <outline>
    <contour>
      <point x="834" y="384" type="curve"/>
      <point x="930" y="355" type="line"/>
      <point x="930" y="378" type="line"/>
      <point x="1057" y="400"/>
      <point x="1141" y="471"/>
      <point x="1141" y="588" type="curve"/>
      <point x="1141" y="588" type="line"/>
      <point x="1139" y="762"/>
      <point x="1013" y="828"/>
      <point x="646" y="847" type="curve" smooth="yes"/>
      <point x="304" y="865"/>
      <point x="201" y="902"/>
      <point x="201" y="1058" type="curve" smooth="yes"/>
      <point x="201" y="1058" type="line" smooth="yes"/>
      <point x="201" y="1184"/>
      <point x="318" y="1264"/>
      <point x="609" y="1264" type="curve" smooth="yes"/>
      <point x="828" y="1264"/>
      <point x="986" y="1205"/>
      <point x="1097" y="1136" type="curve"/>
      <point x="1090" y="1175" type="line"/>
      <point x="1000" y="1235"/>
      <point x="835" y="1297"/>
      <point x="611" y="1297" type="curve" smooth="yes"/>
      <point x="300" y="1297"/>
      <point x="164" y="1211"/>
      <point x="164" y="1058" type="curve"/>
      <point x="164" y="1058" type="line"/>
      <point x="164" y="880"/>
      <point x="276" y="832"/>
      <point x="643" y="813" type="curve" smooth="yes"/>
      <point x="985" y="795"/>
      <point x="1104" y="738"/>
      <point x="1104" y="588" type="curve"/>
      <point x="1104" y="588" type="line"/>
      <point x="1104" y="474"/>
      <point x="1000" y="399"/>
    </contour>
    <contour>
      <point x="463" y="839" type="curve"/>
      <point x="362" y="859" type="line"/>
      <point x="362" y="841" type="line"/>
      <point x="225" y="814"/>
      <point x="164" y="735"/>
      <point x="164" y="628" type="curve"/>
      <point x="164" y="628" type="line"/>
      <point x="164" y="459"/>
      <point x="287" y="391"/>
      <point x="643" y="373" type="curve" smooth="yes"/>
      <point x="992" y="355"/>
      <point x="1104" y="316"/>
      <point x="1104" y="138" type="curve"/>
      <point x="1104" y="138" type="line"/>
      <point x="1104" y="-17"/>
      <point x="951" y="-89"/>
      <point x="668" y="-89" type="curve" smooth="yes"/>
      <point x="438" y="-89"/>
      <point x="280" y="-30"/>
      <point x="146" y="46" type="curve"/>
      <point x="152" y="3" type="line"/>
      <point x="257" y="-57"/>
      <point x="422" y="-123"/>
      <point x="666" y="-123" type="curve" smooth="yes"/>
      <point x="978" y="-123"/>
      <point x="1141" y="-36"/>
      <point x="1141" y="138" type="curve"/>
      <point x="1141" y="138" type="line"/>
      <point x="1141" y="333"/>
      <point x="1027" y="387"/>
      <point x="646" y="407" type="curve" smooth="yes"/>
      <point x="315" y="424"/>
      <point x="201" y="484"/>
      <point x="201" y="628" type="curve" smooth="yes"/>
      <point x="201" y="628" type="line" smooth="yes"/>
      <point x="201" y="740"/>
      <point x="286" y="817"/>
    </contour>
  </outline>
</glyph>
<glyph name="threesuperior" format="2">
  <advance width="893"/>
  <unicode hex="00B3"/>
  <outline>
    <contour>
      <point x="438" y="740" type="curve" smooth="yes"/>
      <point x="686" y="740"/>
      <point x="806" y="814"/>
      <point x="806" y="930" type="curve" smooth="yes"/>
      <point x="806" y="939" type="line" smooth="yes"/>
      <point x="806" y="1036"/>
      <point x="732" y="1101"/>
      <point x="540" y="1102" type="curve"/>
      <point x="550" y="1091" type="line"/>
      <point x="550" y="1096" type="line"/>
      <point x="721" y="1098"/>
      <point x="795" y="1162"/>
      <point x="795" y="1254" type="curve" smooth="yes"/>
      <point x="795" y="1261" type="line" smooth="yes"/>
      <point x="795" y="1366"/>
      <point x="690" y="1433"/>
      <point x="457" y="1433" type="curve" smooth="yes"/>
      <point x="279" y="1433"/>
      <point x="155" y="1392"/>
      <point x="93" y="1359" type="curve"/>
      <point x="88" y="1324" type="line"/>
      <point x="168" y="1363"/>
      <point x="284" y="1400"/>
      <point x="453" y="1400" type="curve" smooth="yes"/>
      <point x="662" y="1400"/>
      <point x="758" y="1347"/>
      <point x="758" y="1260" type="curve" smooth="yes"/>
      <point x="758" y="1256" type="line" smooth="yes"/>
      <point x="758" y="1175"/>
      <point x="686" y="1115"/>
      <point x="479" y="1114" type="curve" smooth="yes"/>
      <point x="259" y="1113" type="line"/>
      <point x="259" y="1084" type="line"/>
      <point x="478" y="1082" type="line" smooth="yes"/>
      <point x="750" y="1080"/>
      <point x="769" y="989"/>
      <point x="769" y="939" type="curve" smooth="yes"/>
      <point x="769" y="934" type="line" smooth="yes"/>
      <point x="769" y="833"/>
      <point x="661" y="773"/>
      <point x="440" y="773" type="curve" smooth="yes"/>
      <point x="293" y="773"/>
      <point x="162" y="808"/>
      <point x="84" y="841" type="curve"/>
      <point x="88" y="804" type="line"/>
      <point x="145" y="781"/>
      <point x="272" y="740"/>
    </contour>
  </outline>
</glyph>
<glyph name="onesuperior" format="2">
  <advance width="531"/>
  <unicode hex="00B9"/>
  <outline>
    <contour>
      <point x="351" y="750" type="line"/>
      <point x="386" y="750" type="line"/>
      <point x="386" y="1422" type="line"/>
      <point x="334" y="1422" type="line"/>
      <point x="58" y="1277" type="line"/>
      <point x="56" y="1240" type="line"/>
      <point x="344" y="1390" type="line"/>
      <point x="351" y="1390" type="line"/>
    </contour>
  </outline>
</glyph>
<glyph name="oslash" format="2">
  <advance width="1392"/>
  <unicode hex="00F8"/>
  <anchor x="696" y="0" name="bottom"/>
  <anchor x="696" y="476" name="center"/>
  <anchor x="1253" y="10" name="ogonek"/>
  <anchor x="696" y="952" name="top"/>
  <anchor x="1372" y="952" name="topright"/>
  <outline>
    <contour>
      <point x="697" y="-25" type="curve" smooth="yes"/>
      <point x="1063" y="-25"/>
      <point x="1258" y="142"/>
      <point x="1258" y="463" type="curve"/>
      <point x="1258" y="491" type="line"/>
      <point x="1258" y="806"/>
      <point x="1059" y="977"/>
      <point x="697" y="977" type="curve" smooth="yes"/>
      <point x="330" y="977"/>
      <point x="134" y="810"/>
      <point x="134" y="491" type="curve"/>
      <point x="134" y="463" type="line"/>
      <point x="134" y="148"/>
      <point x="332" y="-25"/>
    </contour>
    <contour>
      <point x="149" y="-45" type="line"/>
      <point x="196" y="-45" type="line"/>
      <point x="323" y="82" type="line"/>
      <point x="334" y="93" type="line"/>
      <point x="1084" y="839" type="line"/>
      <point x="1098" y="853" type="line"/>
      <point x="1243" y="997" type="line"/>
      <point x="1197" y="997" type="line"/>
      <point x="1071" y="871" type="line"/>
      <point x="1056" y="856" type="line"/>
      <point x="308" y="113" type="line"/>
      <point x="294" y="100" type="line"/>
    </contour>
    <contour>
      <point x="697" y="9" type="curve" smooth="yes"/>
      <point x="361" y="9"/>
      <point x="172" y="171"/>
      <point x="172" y="463" type="curve" smooth="yes"/>
      <point x="172" y="491" type="line" smooth="yes"/>
      <point x="172" y="787"/>
      <point x="357" y="943"/>
      <point x="697" y="943" type="curve" smooth="yes"/>
      <point x="1033" y="943"/>
      <point x="1220" y="783"/>
      <point x="1220" y="491" type="curve" smooth="yes"/>
      <point x="1220" y="463" type="line" smooth="yes"/>
      <point x="1220" y="167"/>
      <point x="1035" y="9"/>
    </contour>
  </outline>
</glyph>
<glyph name="Doubledanda.gj" format="2">
  <advance width="1202"/>
  <unicode hex="0965"/>
  <anchor x="883" y="-105" name="Bottom"/>
  <anchor x="862" y="1253" name="Top"/>
  <anchor x="901" y="1253" name="Top2"/>
  <outline>
    <contour>
      <point x="281" y="539" type="line"/>
      <point x="320" y="539" type="line"/>
      <point x="320" y="1157" type="line"/>
      <point x="281" y="1157" type="line"/>
    </contour>
    <contour>
      <point x="281" y="0" type="line"/>
      <point x="320" y="0" type="line"/>
      <point x="320" y="673" type="line"/>
      <point x="281" y="673" type="line"/>
    </contour>
    <contour>
      <point x="882" y="539" type="line"/>
      <point x="921" y="539" type="line"/>
      <point x="921" y="1157" type="line"/>
      <point x="882" y="1157" type="line"/>
    </contour>
    <contour>
      <point x="882" y="0" type="line"/>
      <point x="921" y="0" type="line"/>
      <point x="921" y="673" type="line"/>
      <point x="882" y="673" type="line"/>
    </contour>
  </outline>
</glyph>
<glyph name="Chandrabindu.gj" format="2">
  <unicode hex="0A81"/>
  <anchor x="475" y="1253" name="_Top2"/>
  <outline>
    <contour>
      <point x="475" y="1308" type="curve" smooth="yes"/>
      <point x="713" y="1308"/>
      <point x="846" y="1411"/>
      <point x="846" y="1603" type="curve" smooth="yes"/>
      <point x="846" y="1610"/>
      <point x="846" y="1616"/>
      <point x="846" y="1624" type="curve"/>
      <point x="812" y="1624" type="line"/>
      <point x="812" y="1603" type="line" smooth="yes"/>
      <point x="812" y="1429"/>
      <point x="691" y="1341"/>
      <point x="475" y="1341" type="curve" smooth="yes"/>
      <point x="257" y="1341"/>
      <point x="138" y="1429"/>
      <point x="138" y="1603" type="curve" smooth="yes"/>
      <point x="138" y="1624" type="line"/>
      <point x="104" y="1624" type="line"/>
      <point x="104" y="1616"/>
      <point x="104" y="1610"/>
      <point x="104" y="1603" type="curve" smooth="yes"/>
      <point x="104" y="1411"/>
      <point x="234" y="1308"/>
    </contour>
    <contour>
      <point x="475" y="1576" type="curve" smooth="yes"/>
      <point x="517" y="1576"/>
      <point x="538" y="1600"/>
      <point x="538" y="1632" type="curve" smooth="yes"/>
      <point x="538" y="1635" type="line" smooth="yes"/>
      <point x="538" y="1665"/>
      <point x="517" y="1689"/>
      <point x="475" y="1689" type="curve" smooth="yes"/>
      <point x="433" y="1689"/>
      <point x="412" y="1665"/>
      <point x="412" y="1635" type="curve" smooth="yes"/>
      <point x="412" y="1632" type="line" smooth="yes"/>
      <point x="412" y="1600"/>
      <point x="433" y="1576"/>
    </contour>
  </outline>
</glyph>
<glyph name="Bindu.gj" format="2">
  <unicode hex="0A82"/>
  <anchor x="165" y="1253" name="_Top2"/>
  <outline>
    <contour>
      <point x="165" y="1418" type="curve" smooth="yes"/>
      <point x="211" y="1418"/>
      <point x="230" y="1443"/>
      <point x="230" y="1474" type="curve" smooth="yes"/>
      <point x="230" y="1479" type="line" smooth="yes"/>
      <point x="230" y="1510"/>
      <point x="210" y="1535"/>
      <point x="165" y="1535" type="curve" smooth="yes"/>
      <point x="120" y="1535"/>
      <point x="100" y="1510"/>
      <point x="100" y="1479" type="curve" smooth="yes"/>
      <point x="100" y="1474" type="line" smooth="yes"/>
      <point x="100" y="1443"/>
      <point x="120" y="1418"/>
    </contour>
  </outline>
</glyph>
<glyph name="Visarga.gj" format="2">
  <advance width="612"/>
  <unicode hex="0A83"/>
  <anchor x="306" y="89" name="_Top2"/>
  <outline>
    <contour>
      <point x="306" y="254" type="curve" smooth="yes"/>
      <point x="352" y="254"/>
      <point x="371" y="279"/>
      <point x="371" y="310" type="curve" smooth="yes"/>
      <point x="371" y="315" type="line" smooth="yes"/>
      <point x="371" y="346"/>
      <point x="351" y="371"/>
      <point x="306" y="371" type="curve" smooth="yes"/>
      <point x="261" y="371"/>
      <point x="241" y="346"/>
      <point x="241" y="315" type="curve" smooth="yes"/>
      <point x="241" y="310" type="line" smooth="yes"/>
      <point x="241" y="279"/>
      <point x="261" y="254"/>
    </contour>
    <contour>
      <point x="306" y="829" type="curve" smooth="yes"/>
      <point x="352" y="829"/>
      <point x="371" y="854"/>
      <point x="371" y="885" type="curve" smooth="yes"/>
      <point x="371" y="890" type="line" smooth="yes"/>
      <point x="371" y="921"/>
      <point x="351" y="946"/>
      <point x="306" y="946" type="curve" smooth="yes"/>
      <point x="261" y="946"/>
      <point x="241" y="921"/>
      <point x="241" y="890" type="curve" smooth="yes"/>
      <point x="241" y="885" type="line" smooth="yes"/>
      <point x="241" y="854"/>
      <point x="261" y="829"/>
    </contour>
  </outline>
</glyph>
<glyph name="VowelI.gj" format="2">
  <advance width="1722"/>
  <unicode hex="0A87"/>
  <anchor x="692" y="1253" name="Top2"/>
  <outline>
    <contour>
      <point x="1422" y="712" type="line"/>
      <point x="1461" y="712" type="line"/>
      <point x="1461" y="1596" type="line"/>
      <point x="1422" y="1585" type="line"/>
    </contour>
    <contour>
      <point x="783" y="-14" type="curve" smooth="yes"/>
      <point x="1230" y="-14"/>
      <point x="1461" y="171"/>
      <point x="1461" y="561" type="curve" smooth="yes"/>
      <point x="1461" y="712" type="line"/>
      <point x="1422" y="712" type="line"/>
      <point x="1422" y="564" type="line" smooth="yes"/>
      <point x="1422" y="197"/>
      <point x="1205" y="22"/>
      <point x="783" y="22" type="curve" smooth="yes"/>
      <point x="439" y="22"/>
      <point x="243" y="117"/>
      <point x="243" y="335" type="curve" smooth="yes"/>
      <point x="243" y="336" type="line" smooth="yes"/>
      <point x="243" y="525"/>
      <point x="388" y="598"/>
      <point x="653" y="600" type="curve" smooth="yes"/>
      <point x="914" y="602" type="line"/>
      <point x="914" y="634" type="line"/>
      <point x="653" y="635" type="line" smooth="yes"/>
      <point x="391" y="637"/>
      <point x="249" y="701"/>
      <point x="249" y="881" type="curve" smooth="yes"/>
      <point x="249" y="883" type="line" smooth="yes"/>
      <point x="249" y="1063"/>
      <point x="388" y="1146"/>
      <point x="647" y="1146" type="curve" smooth="yes"/>
      <point x="825" y="1146"/>
      <point x="939" y="1111"/>
      <point x="1014" y="1072" type="curve"/>
      <point x="1009" y="1113" type="line"/>
      <point x="950" y="1141"/>
      <point x="838" y="1182"/>
      <point x="647" y="1182" type="curve" smooth="yes"/>
      <point x="359" y="1182"/>
      <point x="208" y="1086"/>
      <point x="208" y="883" type="curve" smooth="yes"/>
      <point x="208" y="881" type="line" smooth="yes"/>
      <point x="208" y="710"/>
      <point x="322" y="634"/>
      <point x="514" y="619" type="curve"/>
      <point x="514" y="618" type="line"/>
      <point x="320" y="600"/>
      <point x="202" y="516"/>
      <point x="202" y="336" type="curve" smooth="yes"/>
      <point x="202" y="335" type="line" smooth="yes"/>
      <point x="202" y="91"/>
      <point x="416" y="-14"/>
    </contour>
  </outline>
</glyph>
<glyph name="VowelU.gj" format="2">
  <advance width="1691"/>
  <unicode hex="0A89"/>
  <guideline x="6385" y="2145" angle="90"/>
  <guideline x="5020" y="2145" angle="90"/>
  <guideline x="-2372" y="4903" angle="277.4314"/>
  <guideline x="1007" y="1657" angle="90"/>
  <guideline x="1097" y="1697" angle="0"/>
  <guideline x="1397" y="1626" angle="0"/>
  <anchor x="1032" y="1657" name="Top2"/>
  <outline>
    <contour>
      <point x="200" y="757" type="line"/>
      <point x="241" y="757" type="line"/>
      <point x="241" y="764" type="line" smooth="yes"/>
      <point x="241" y="1315"/>
      <point x="496" y="1590"/>
      <point x="1007" y="1590" type="curve" smooth="yes"/>
      <point x="1086" y="1590"/>
      <point x="1151" y="1583"/>
      <point x="1205" y="1571" type="curve"/>
      <point x="1201" y="1608" type="line"/>
      <point x="1148" y="1619"/>
      <point x="1086" y="1626"/>
      <point x="1007" y="1626" type="curve" smooth="yes"/>
      <point x="469" y="1626"/>
      <point x="200" y="1339"/>
      <point x="200" y="764" type="curve" smooth="yes"/>
    </contour>
    <contour>
      <point x="942" y="-14" type="curve" smooth="yes"/>
      <point x="1293" y="-14"/>
      <point x="1495" y="91"/>
      <point x="1495" y="336" type="curve" smooth="yes"/>
      <point x="1495" y="338" type="line" smooth="yes"/>
      <point x="1495" y="516"/>
      <point x="1373" y="600"/>
      <point x="1170" y="618" type="curve"/>
      <point x="1170" y="619" type="line"/>
      <point x="1362" y="634"/>
      <point x="1476" y="710"/>
      <point x="1476" y="881" type="curve" smooth="yes"/>
      <point x="1476" y="888" type="line" smooth="yes"/>
      <point x="1476" y="1079"/>
      <point x="1321" y="1182"/>
      <point x="1052" y="1182" type="curve" smooth="yes"/>
      <point x="899" y="1182"/>
      <point x="776" y="1155"/>
      <point x="682" y="1111" type="curve"/>
      <point x="675" y="1068" type="line"/>
      <point x="778" y="1118"/>
      <point x="904" y="1146"/>
      <point x="1052" y="1146" type="curve" smooth="yes"/>
      <point x="1296" y="1146"/>
      <point x="1435" y="1052"/>
      <point x="1435" y="888" type="curve" smooth="yes"/>
      <point x="1435" y="881" type="line" smooth="yes"/>
      <point x="1435" y="701"/>
      <point x="1293" y="637"/>
      <point x="1031" y="635" type="curve" smooth="yes"/>
      <point x="769" y="634" type="line"/>
      <point x="769" y="602" type="line"/>
      <point x="1031" y="600" type="line" smooth="yes"/>
      <point x="1305" y="598"/>
      <point x="1454" y="525"/>
      <point x="1454" y="338" type="curve" smooth="yes"/>
      <point x="1454" y="336" type="line" smooth="yes"/>
      <point x="1454" y="117"/>
      <point x="1269" y="22"/>
      <point x="942" y="22" type="curve" smooth="yes"/>
      <point x="475" y="22"/>
      <point x="241" y="235"/>
      <point x="241" y="752" type="curve" smooth="yes"/>
      <point x="241" y="760" type="line"/>
      <point x="200" y="760" type="line"/>
      <point x="200" y="752" type="line" smooth="yes"/>
      <point x="200" y="213"/>
      <point x="450" y="-14"/>
    </contour>
  </outline>
</glyph>
<glyph name="VowelUu.gj" format="2">
  <advance width="2273"/>
  <unicode hex="0A8A"/>
  <guideline x="1097" y="1697" angle="0"/>
  <guideline x="1397" y="1626" angle="0"/>
  <guideline x="1212" y="-14" angle="0"/>
  <anchor x="1122" y="1697" name="Top2"/>
  <outline>
    <contour>
      <point x="1953" y="0" type="line"/>
      <point x="1992" y="0" type="line"/>
      <point x="1992" y="777" type="line" smooth="yes"/>
      <point x="1992" y="1343"/>
      <point x="1695" y="1626"/>
      <point x="1097" y="1626" type="curve" smooth="yes"/>
      <point x="498" y="1626"/>
      <point x="200" y="1339"/>
      <point x="200" y="762" type="curve" smooth="yes"/>
      <point x="200" y="755" type="line"/>
      <point x="241" y="755" type="line"/>
      <point x="241" y="762" type="line" smooth="yes"/>
      <point x="241" y="1314"/>
      <point x="524" y="1590"/>
      <point x="1097" y="1590" type="curve" smooth="yes"/>
      <point x="1670" y="1590"/>
      <point x="1953" y="1318"/>
      <point x="1953" y="777" type="curve" smooth="yes"/>
    </contour>
    <contour>
      <point x="942" y="-14" type="curve" smooth="yes"/>
      <point x="1293" y="-14"/>
      <point x="1495" y="91"/>
      <point x="1495" y="336" type="curve" smooth="yes"/>
      <point x="1495" y="338" type="line" smooth="yes"/>
      <point x="1495" y="516"/>
      <point x="1373" y="600"/>
      <point x="1170" y="618" type="curve"/>
      <point x="1170" y="619" type="line"/>
      <point x="1362" y="634"/>
      <point x="1476" y="710"/>
      <point x="1476" y="881" type="curve" smooth="yes"/>
      <point x="1476" y="888" type="line" smooth="yes"/>
      <point x="1476" y="1079"/>
      <point x="1321" y="1182"/>
      <point x="1052" y="1182" type="curve" smooth="yes"/>
      <point x="899" y="1182"/>
      <point x="776" y="1155"/>
      <point x="682" y="1111" type="curve"/>
      <point x="675" y="1068" type="line"/>
      <point x="778" y="1118"/>
      <point x="904" y="1146"/>
      <point x="1052" y="1146" type="curve" smooth="yes"/>
      <point x="1296" y="1146"/>
      <point x="1435" y="1052"/>
      <point x="1435" y="888" type="curve" smooth="yes"/>
      <point x="1435" y="881" type="line" smooth="yes"/>
      <point x="1435" y="701"/>
      <point x="1293" y="637"/>
      <point x="1031" y="635" type="curve" smooth="yes"/>
      <point x="769" y="634" type="line"/>
      <point x="769" y="602" type="line"/>
      <point x="1031" y="600" type="line" smooth="yes"/>
      <point x="1305" y="598"/>
      <point x="1454" y="525"/>
      <point x="1454" y="338" type="curve" smooth="yes"/>
      <point x="1454" y="336" type="line" smooth="yes"/>
      <point x="1454" y="117"/>
      <point x="1269" y="22"/>
      <point x="942" y="22" type="curve" smooth="yes"/>
      <point x="475" y="22"/>
      <point x="241" y="235"/>
      <point x="241" y="752" type="curve" smooth="yes"/>
      <point x="241" y="760" type="line"/>
      <point x="200" y="760" type="line"/>
      <point x="200" y="752" type="line" smooth="yes"/>
      <point x="200" y="213"/>
      <point x="450" y="-14"/>
    </contour>
  </outline>
</glyph>
<glyph name="VowelRu.gj" format="2">
  <advance width="2186"/>
  <unicode hex="0A8B"/>
  <anchor x="1132" y="-105" name="Bottom"/>
  <anchor x="1111" y="1253" name="Top"/>
  <anchor x="1150" y="1253" name="Top2"/>
  <outline>
    <contour>
      <point x="1703" y="103" type="curve" smooth="yes"/>
      <point x="1891" y="103"/>
      <point x="1996" y="201"/>
      <point x="1996" y="377" type="curve" smooth="yes"/>
      <point x="1996" y="381" type="line" smooth="yes"/>
      <point x="1996" y="555"/>
      <point x="1913" y="660"/>
      <point x="1778" y="737" type="curve"/>
      <point x="1751" y="714" type="line"/>
      <point x="1883" y="635"/>
      <point x="1955" y="543"/>
      <point x="1955" y="381" type="curve" smooth="yes"/>
      <point x="1955" y="377" type="line" smooth="yes"/>
      <point x="1955" y="224"/>
      <point x="1864" y="139"/>
      <point x="1703" y="139" type="curve" smooth="yes"/>
      <point x="1603" y="139"/>
      <point x="1534" y="169"/>
      <point x="1489" y="194" type="curve"/>
      <point x="1495" y="153" type="line"/>
      <point x="1530" y="135"/>
      <point x="1596" y="103"/>
    </contour>
    <contour>
      <point x="448" y="299" type="curve"/>
      <point x="498" y="294" type="line"/>
      <point x="498" y="301" type="line"/>
      <point x="667" y="374"/>
      <point x="752" y="509"/>
      <point x="752" y="684" type="curve" smooth="yes"/>
      <point x="752" y="691" type="line" smooth="yes"/>
      <point x="752" y="886"/>
      <point x="635" y="999"/>
      <point x="428" y="999" type="curve" smooth="yes"/>
      <point x="318" y="999"/>
      <point x="231" y="972"/>
      <point x="161" y="927" type="curve"/>
      <point x="154" y="885" type="line"/>
      <point x="231" y="935"/>
      <point x="320" y="963"/>
      <point x="428" y="963" type="curve" smooth="yes"/>
      <point x="610" y="963"/>
      <point x="711" y="863"/>
      <point x="711" y="691" type="curve" smooth="yes"/>
      <point x="711" y="684" type="line" smooth="yes"/>
      <point x="711" y="495"/>
      <point x="621" y="379"/>
    </contour>
    <contour>
      <point x="158" y="169" type="line"/>
      <point x="1146" y="502" type="line"/>
      <point x="1146" y="539" type="line"/>
      <point x="770" y="413" type="line" smooth="yes"/>
      <point x="697" y="388"/>
      <point x="624" y="361"/>
      <point x="551" y="335" type="curve"/>
      <point x="523" y="329" type="line"/>
      <point x="158" y="206" type="line"/>
    </contour>
    <contour>
      <point x="1158" y="506" type="line"/>
      <point x="1781" y="717" type="line"/>
      <point x="1781" y="755" type="line"/>
      <point x="1158" y="543" type="line"/>
    </contour>
    <contour>
      <point x="1738" y="721" type="line"/>
      <point x="1783" y="721" type="line"/>
      <point x="1815" y="778" type="line"/>
      <point x="1802" y="870"/>
      <point x="1794" y="938"/>
      <point x="1786" y="1029" type="curve"/>
      <point x="1738" y="1029" type="line"/>
    </contour>
    <contour>
      <point x="1131" y="539" type="line"/>
      <point x="1170" y="539" type="line"/>
      <point x="1170" y="1157" type="line"/>
      <point x="1131" y="1157" type="line"/>
    </contour>
    <contour>
      <point x="1131" y="0" type="line"/>
      <point x="1170" y="0" type="line"/>
      <point x="1170" y="673" type="line"/>
      <point x="1131" y="673" type="line"/>
    </contour>
  </outline>
</glyph>
<glyph name="VowelLru.gj" format="2">
  <advance width="1946"/>
  <unicode hex="0A8C"/>
  <guideline x="5292" y="2215" angle="90"/>
  <guideline x="1768" y="514" angle="270"/>
  <anchor x="1384" y="1253" name="Top2"/>
  <outline>
    <contour>
      <point x="1479" y="-420" type="curve" smooth="yes"/>
      <point x="1600" y="-420"/>
      <point x="1697" y="-387"/>
      <point x="1763" y="-348" type="curve"/>
      <point x="1768" y="-302" type="line"/>
      <point x="1694" y="-349"/>
      <point x="1594" y="-383"/>
      <point x="1478" y="-383" type="curve" smooth="yes"/>
      <point x="1337" y="-383"/>
      <point x="1217" y="-324"/>
      <point x="1217" y="-183" type="curve" smooth="yes"/>
      <point x="1217" y="-181" type="line" smooth="yes"/>
      <point x="1217" y="98"/>
      <point x="1768" y="93"/>
      <point x="1768" y="512" type="curve" smooth="yes"/>
      <point x="1768" y="517" type="line" smooth="yes"/>
      <point x="1768" y="759"/>
      <point x="1611" y="898"/>
      <point x="1363" y="898" type="curve" smooth="yes"/>
      <point x="1151" y="898"/>
      <point x="1014" y="795"/>
      <point x="985" y="631" type="curve"/>
      <point x="978" y="630" type="line"/>
      <point x="974" y="324" type="line"/>
      <point x="1001" y="324" type="line"/>
      <point x="1003" y="497" type="line" smooth="yes"/>
      <point x="1006" y="737"/>
      <point x="1137" y="862"/>
      <point x="1363" y="862" type="curve" smooth="yes"/>
      <point x="1584" y="862"/>
      <point x="1727" y="737"/>
      <point x="1727" y="517" type="curve" smooth="yes"/>
      <point x="1727" y="512" type="line" smooth="yes"/>
      <point x="1727" y="117"/>
      <point x="1177" y="130"/>
      <point x="1177" y="-181" type="curve" smooth="yes"/>
      <point x="1177" y="-183" type="line" smooth="yes"/>
      <point x="1177" y="-345"/>
      <point x="1309" y="-420"/>
    </contour>
    <contour>
      <point x="510" y="0" type="curve"/>
      <point x="573" y="0" type="line"/>
      <point x="573" y="4" type="line"/>
      <point x="353" y="139"/>
      <point x="239" y="295"/>
      <point x="239" y="500" type="curve" smooth="yes"/>
      <point x="239" y="511" type="line" smooth="yes"/>
      <point x="239" y="718"/>
      <point x="384" y="862"/>
      <point x="612" y="862" type="curve" smooth="yes"/>
      <point x="838" y="862"/>
      <point x="963" y="737"/>
      <point x="964" y="497" type="curve" smooth="yes"/>
      <point x="965" y="324" type="line"/>
      <point x="992" y="324" type="line"/>
      <point x="981" y="631" type="line"/>
      <point x="953" y="795"/>
      <point x="826" y="898"/>
      <point x="612" y="898" type="curve" smooth="yes"/>
      <point x="357" y="898"/>
      <point x="198" y="741"/>
      <point x="198" y="511" type="curve" smooth="yes"/>
      <point x="198" y="500" type="line" smooth="yes"/>
      <point x="198" y="281"/>
      <point x="318" y="123"/>
    </contour>
    <contour>
      <point x="1365" y="882" type="line"/>
      <point x="1404" y="882" type="line"/>
      <point x="1404" y="1157" type="line"/>
      <point x="1365" y="1157" type="line"/>
    </contour>
  </outline>
</glyph>
<glyph name="VowelChadraE.gj" format="2">
  <advance width="2196"/>
  <unicode hex="0A8D"/>
  <anchor x="1877" y="-105" name="Bottom"/>
  <anchor x="1856" y="1253" name="Top"/>
  <anchor x="1895" y="1253" name="Top2"/>
  <outline>
    <contour>
      <point x="857" y="93" type="curve" smooth="yes"/>
      <point x="1165" y="93"/>
      <point x="1335" y="251"/>
      <point x="1335" y="543" type="curve" smooth="yes"/>
      <point x="1335" y="963" type="line"/>
      <point x="1296" y="963" type="line"/>
      <point x="1296" y="543" type="line" smooth="yes"/>
      <point x="1296" y="275"/>
      <point x="1140" y="129"/>
      <point x="857" y="129" type="curve" smooth="yes"/>
      <point x="588" y="129"/>
      <point x="419" y="259"/>
      <point x="388" y="497" type="curve" smooth="yes"/>
      <point x="381" y="550" type="line"/>
      <point x="340" y="550" type="line"/>
      <point x="348" y="495" type="line" smooth="yes"/>
      <point x="385" y="238"/>
      <point x="565" y="93"/>
    </contour>
    <contour>
      <point x="356" y="522" type="line"/>
      <point x="360" y="530" type="line"/>
      <point x="438" y="530" type="line"/>
      <point x="716" y="530"/>
      <point x="864" y="641"/>
      <point x="864" y="854" type="curve" smooth="yes"/>
      <point x="864" y="863" type="line" smooth="yes"/>
      <point x="864" y="1070"/>
      <point x="721" y="1182"/>
      <point x="479" y="1182" type="curve" smooth="yes"/>
      <point x="342" y="1182"/>
      <point x="234" y="1150"/>
      <point x="148" y="1091" type="curve"/>
      <point x="143" y="1048" type="line"/>
      <point x="237" y="1113"/>
      <point x="348" y="1146"/>
      <point x="479" y="1146" type="curve" smooth="yes"/>
      <point x="696" y="1146"/>
      <point x="823" y="1043"/>
      <point x="823" y="863" type="curve" smooth="yes"/>
      <point x="823" y="856" type="line" smooth="yes"/>
      <point x="823" y="662"/>
      <point x="689" y="564"/>
      <point x="435" y="564" type="curve" smooth="yes"/>
      <point x="118" y="564" type="line"/>
      <point x="118" y="532" type="line"/>
    </contour>
    <contour>
      <point x="1876" y="539" type="line"/>
      <point x="1915" y="539" type="line"/>
      <point x="1915" y="1157" type="line"/>
      <point x="1876" y="1157" type="line"/>
    </contour>
    <contour>
      <point x="1876" y="0" type="line"/>
      <point x="1915" y="0" type="line"/>
      <point x="1915" y="673" type="line"/>
      <point x="1876" y="673" type="line"/>
    </contour>
    <contour>
      <point x="1319" y="566" type="line"/>
      <point x="1902" y="566" type="line"/>
      <point x="1895" y="600" type="line"/>
      <point x="1319" y="600" type="line"/>
    </contour>
    <contour>
      <point x="1893" y="1253" type="curve" smooth="yes"/>
      <point x="1970" y="1253"/>
      <point x="2024" y="1282"/>
      <point x="2052" y="1308" type="curve"/>
      <point x="2052" y="1345" type="line"/>
      <point x="2023" y="1314"/>
      <point x="1964" y="1285"/>
      <point x="1893" y="1285" type="curve" smooth="yes"/>
      <point x="1808" y="1285"/>
      <point x="1749" y="1298"/>
      <point x="1610" y="1397" type="curve" smooth="yes"/>
      <point x="1064" y="1786" type="line"/>
      <point x="1041" y="1755" type="line"/>
      <point x="1585" y="1374" type="line" smooth="yes"/>
      <point x="1726" y="1275"/>
      <point x="1800" y="1253"/>
    </contour>
  </outline>
</glyph>
<glyph name="VowelChandraO.gj" format="2">
  <advance width="2797"/>
  <unicode hex="0A91"/>
  <anchor x="2478" y="-105" name="Bottom"/>
  <anchor x="2457" y="1253" name="Top"/>
  <anchor x="2496" y="1253" name="Top2"/>
  <outline>
    <contour>
      <point x="857" y="93" type="curve" smooth="yes"/>
      <point x="1165" y="93"/>
      <point x="1335" y="251"/>
      <point x="1335" y="543" type="curve" smooth="yes"/>
      <point x="1335" y="963" type="line"/>
      <point x="1296" y="963" type="line"/>
      <point x="1296" y="543" type="line" smooth="yes"/>
      <point x="1296" y="275"/>
      <point x="1140" y="129"/>
      <point x="857" y="129" type="curve" smooth="yes"/>
      <point x="588" y="129"/>
      <point x="419" y="259"/>
      <point x="388" y="497" type="curve" smooth="yes"/>
      <point x="381" y="550" type="line"/>
      <point x="340" y="550" type="line"/>
      <point x="348" y="495" type="line" smooth="yes"/>
      <point x="385" y="238"/>
      <point x="565" y="93"/>
    </contour>
    <contour>
      <point x="356" y="522" type="line"/>
      <point x="360" y="530" type="line"/>
      <point x="438" y="530" type="line"/>
      <point x="716" y="530"/>
      <point x="864" y="641"/>
      <point x="864" y="854" type="curve" smooth="yes"/>
      <point x="864" y="863" type="line" smooth="yes"/>
      <point x="864" y="1070"/>
      <point x="721" y="1182"/>
      <point x="479" y="1182" type="curve" smooth="yes"/>
      <point x="342" y="1182"/>
      <point x="234" y="1150"/>
      <point x="148" y="1091" type="curve"/>
      <point x="143" y="1048" type="line"/>
      <point x="237" y="1113"/>
      <point x="348" y="1146"/>
      <point x="479" y="1146" type="curve" smooth="yes"/>
      <point x="696" y="1146"/>
      <point x="823" y="1043"/>
      <point x="823" y="863" type="curve" smooth="yes"/>
      <point x="823" y="856" type="line" smooth="yes"/>
      <point x="823" y="662"/>
      <point x="689" y="564"/>
      <point x="435" y="564" type="curve" smooth="yes"/>
      <point x="118" y="564" type="line"/>
      <point x="118" y="532" type="line"/>
    </contour>
    <contour>
      <point x="1876" y="539" type="line"/>
      <point x="1915" y="539" type="line"/>
      <point x="1915" y="1157" type="line"/>
      <point x="1876" y="1157" type="line"/>
    </contour>
    <contour>
      <point x="1876" y="0" type="line"/>
      <point x="1915" y="0" type="line"/>
      <point x="1915" y="673" type="line"/>
      <point x="1876" y="673" type="line"/>
    </contour>
    <contour>
      <point x="1319" y="566" type="line"/>
      <point x="1902" y="566" type="line"/>
      <point x="1895" y="600" type="line"/>
      <point x="1319" y="600" type="line"/>
    </contour>
    <contour>
      <point x="2477" y="539" type="line"/>
      <point x="2516" y="539" type="line"/>
      <point x="2516" y="1157" type="line"/>
      <point x="2477" y="1157" type="line"/>
    </contour>
    <contour>
      <point x="2477" y="0" type="line"/>
      <point x="2516" y="0" type="line"/>
      <point x="2516" y="673" type="line"/>
      <point x="2477" y="673" type="line"/>
    </contour>
    <contour>
      <point x="2494" y="1253" type="curve" smooth="yes"/>
      <point x="2571" y="1253"/>
      <point x="2625" y="1282"/>
      <point x="2653" y="1308" type="curve"/>
      <point x="2653" y="1345" type="line"/>
      <point x="2624" y="1314"/>
      <point x="2565" y="1285"/>
      <point x="2494" y="1285" type="curve" smooth="yes"/>
      <point x="2409" y="1285"/>
      <point x="2350" y="1298"/>
      <point x="2211" y="1397" type="curve" smooth="yes"/>
      <point x="1665" y="1786" type="line"/>
      <point x="1642" y="1755" type="line"/>
      <point x="2186" y="1374" type="line" smooth="yes"/>
      <point x="2327" y="1275"/>
      <point x="2401" y="1253"/>
    </contour>
  </outline>
</glyph>
<glyph name="VowelAu.gj" format="2">
  <advance width="2797"/>
  <unicode hex="0A94"/>
  <guideline x="2512" y="1294" angle="90"/>
  <anchor x="2478" y="-105" name="Bottom"/>
  <anchor x="2457" y="1253" name="Top"/>
  <anchor x="2496" y="1253" name="Top2"/>
  <anchor x="2540" y="1397" name="Top3"/>
  <outline>
    <contour>
      <point x="857" y="93" type="curve" smooth="yes"/>
      <point x="1165" y="93"/>
      <point x="1335" y="251"/>
      <point x="1335" y="543" type="curve" smooth="yes"/>
      <point x="1335" y="963" type="line"/>
      <point x="1296" y="963" type="line"/>
      <point x="1296" y="543" type="line" smooth="yes"/>
      <point x="1296" y="275"/>
      <point x="1140" y="129"/>
      <point x="857" y="129" type="curve" smooth="yes"/>
      <point x="588" y="129"/>
      <point x="419" y="259"/>
      <point x="388" y="497" type="curve" smooth="yes"/>
      <point x="381" y="550" type="line"/>
      <point x="340" y="550" type="line"/>
      <point x="348" y="495" type="line" smooth="yes"/>
      <point x="385" y="238"/>
      <point x="565" y="93"/>
    </contour>
    <contour>
      <point x="356" y="522" type="line"/>
      <point x="360" y="530" type="line"/>
      <point x="438" y="530" type="line"/>
      <point x="716" y="530"/>
      <point x="864" y="641"/>
      <point x="864" y="854" type="curve" smooth="yes"/>
      <point x="864" y="863" type="line" smooth="yes"/>
      <point x="864" y="1070"/>
      <point x="721" y="1182"/>
      <point x="479" y="1182" type="curve" smooth="yes"/>
      <point x="342" y="1182"/>
      <point x="234" y="1150"/>
      <point x="148" y="1091" type="curve"/>
      <point x="143" y="1048" type="line"/>
      <point x="237" y="1113"/>
      <point x="348" y="1146"/>
      <point x="479" y="1146" type="curve" smooth="yes"/>
      <point x="696" y="1146"/>
      <point x="823" y="1043"/>
      <point x="823" y="863" type="curve" smooth="yes"/>
      <point x="823" y="856" type="line" smooth="yes"/>
      <point x="823" y="662"/>
      <point x="689" y="564"/>
      <point x="435" y="564" type="curve" smooth="yes"/>
      <point x="118" y="564" type="line"/>
      <point x="118" y="532" type="line"/>
    </contour>
    <contour>
      <point x="1876" y="539" type="line"/>
      <point x="1915" y="539" type="line"/>
      <point x="1915" y="1157" type="line"/>
      <point x="1876" y="1157" type="line"/>
    </contour>
    <contour>
      <point x="1876" y="0" type="line"/>
      <point x="1915" y="0" type="line"/>
      <point x="1915" y="673" type="line"/>
      <point x="1876" y="673" type="line"/>
    </contour>
    <contour>
      <point x="1319" y="566" type="line"/>
      <point x="1902" y="566" type="line"/>
      <point x="1895" y="600" type="line"/>
      <point x="1319" y="600" type="line"/>
    </contour>
    <contour>
      <point x="2477" y="539" type="line"/>
      <point x="2516" y="539" type="line"/>
      <point x="2516" y="1157" type="line"/>
      <point x="2477" y="1157" type="line"/>
    </contour>
    <contour>
      <point x="2477" y="0" type="line"/>
      <point x="2516" y="0" type="line"/>
      <point x="2516" y="673" type="line"/>
      <point x="2477" y="673" type="line"/>
    </contour>
    <contour>
      <point x="2457" y="1253" type="line"/>
      <point x="2482" y="1285" type="line"/>
      <point x="1944" y="2003" type="line"/>
      <point x="1914" y="1979" type="line"/>
      <point x="2443" y="1291" type="line"/>
      <point x="2442" y="1289" type="line"/>
      <point x="1589" y="1595" type="line"/>
      <point x="1576" y="1561" type="line"/>
    </contour>
  </outline>
</glyph>
<glyph name="Nga.gj" format="2">
  <advance width="1568"/>
  <unicode hex="0A99"/>
  <guideline x="692" y="1388" angle="90"/>
  <guideline x="912" y="1388" angle="90"/>
  <guideline x="187" y="1388" angle="90"/>
  <anchor x="786" y="-105" name="Bottom"/>
  <anchor x="912" y="1253" name="Top"/>
  <anchor x="722" y="1253" name="Top2"/>
  <outline>
    <contour>
      <point x="1425" y="698" type="curve" smooth="yes"/>
      <point x="1471" y="698"/>
      <point x="1495" y="718"/>
      <point x="1495" y="754" type="curve" smooth="yes"/>
      <point x="1495" y="757" type="line" smooth="yes"/>
      <point x="1495" y="791"/>
      <point x="1471" y="811"/>
      <point x="1425" y="811" type="curve" smooth="yes"/>
      <point x="1379" y="811"/>
      <point x="1357" y="791"/>
      <point x="1357" y="757" type="curve" smooth="yes"/>
      <point x="1357" y="754" type="line" smooth="yes"/>
      <point x="1357" y="718"/>
      <point x="1379" y="698"/>
    </contour>
    <contour>
      <point x="730" y="-14" type="curve" smooth="yes"/>
      <point x="1075" y="-14"/>
      <point x="1242" y="91"/>
      <point x="1242" y="306" type="curve" smooth="yes"/>
      <point x="1242" y="308" type="line" smooth="yes"/>
      <point x="1242" y="511"/>
      <point x="1125" y="600"/>
      <point x="732" y="637" type="curve" smooth="yes"/>
      <point x="668" y="643" type="line" smooth="yes"/>
      <point x="339" y="674"/>
      <point x="228" y="730"/>
      <point x="228" y="895" type="curve" smooth="yes"/>
      <point x="228" y="897" type="line" smooth="yes"/>
      <point x="228" y="1061"/>
      <point x="386" y="1146"/>
      <point x="692" y="1146" type="curve" smooth="yes"/>
      <point x="908" y="1146"/>
      <point x="1066" y="1093"/>
      <point x="1177" y="1029" type="curve"/>
      <point x="1169" y="1070" type="line"/>
      <point x="1080" y="1125"/>
      <point x="915" y="1182"/>
      <point x="692" y="1182" type="curve" smooth="yes"/>
      <point x="358" y="1182"/>
      <point x="187" y="1084"/>
      <point x="187" y="897" type="curve" smooth="yes"/>
      <point x="187" y="895" type="line" smooth="yes"/>
      <point x="187" y="698"/>
      <point x="321" y="640"/>
      <point x="659" y="608" type="curve" smooth="yes"/>
      <point x="723" y="602" type="line" smooth="yes"/>
      <point x="1094" y="567"/>
      <point x="1201" y="490"/>
      <point x="1201" y="308" type="curve" smooth="yes"/>
      <point x="1201" y="306" type="line" smooth="yes"/>
      <point x="1201" y="115"/>
      <point x="1046" y="22"/>
      <point x="732" y="22" type="curve" smooth="yes"/>
      <point x="482" y="22"/>
      <point x="308" y="88"/>
      <point x="160" y="174" type="curve"/>
      <point x="166" y="130" type="line"/>
      <point x="281" y="61"/>
      <point x="465" y="-14"/>
    </contour>
  </outline>
</glyph>
<glyph name="Ca.gj" format="2">
  <advance width="1736"/>
  <unicode hex="0A9A"/>
  <anchor x="1417" y="-105" name="Bottom"/>
  <anchor x="1396" y="1253" name="Top"/>
  <anchor x="1435" y="1253" name="Top2"/>
  <outline>
    <contour>
      <point x="901" y="166" type="curve" smooth="yes"/>
      <point x="599" y="166"/>
      <point x="412" y="299"/>
      <point x="385" y="538" type="curve" smooth="yes"/>
      <point x="380" y="582" type="line"/>
      <point x="339" y="582" type="line"/>
      <point x="344" y="536" type="line" smooth="yes"/>
      <point x="372" y="278"/>
      <point x="576" y="130"/>
      <point x="901" y="130" type="curve" smooth="yes"/>
      <point x="1199" y="130"/>
      <point x="1371" y="261"/>
      <point x="1421" y="417" type="curve"/>
      <point x="1423" y="417" type="line"/>
      <point x="1419" y="481" type="line"/>
      <point x="1358" y="280"/>
      <point x="1181" y="166"/>
    </contour>
    <contour>
      <point x="1416" y="539" type="line"/>
      <point x="1455" y="539" type="line"/>
      <point x="1455" y="1157" type="line"/>
      <point x="1416" y="1157" type="line"/>
    </contour>
    <contour>
      <point x="1416" y="0" type="line"/>
      <point x="1455" y="0" type="line"/>
      <point x="1455" y="673" type="line"/>
      <point x="1416" y="673" type="line"/>
    </contour>
    <contour>
      <point x="351" y="554" type="line"/>
      <point x="359" y="562" type="line"/>
      <point x="444" y="562" type="line" smooth="yes"/>
      <point x="737" y="562"/>
      <point x="886" y="666"/>
      <point x="886" y="870" type="curve" smooth="yes"/>
      <point x="886" y="879" type="line" smooth="yes"/>
      <point x="886" y="1075"/>
      <point x="739" y="1182"/>
      <point x="483" y="1182" type="curve" smooth="yes"/>
      <point x="341" y="1182"/>
      <point x="229" y="1150"/>
      <point x="140" y="1091" type="curve"/>
      <point x="134" y="1048" type="line"/>
      <point x="232" y="1113"/>
      <point x="346" y="1146"/>
      <point x="483" y="1146" type="curve" smooth="yes"/>
      <point x="713" y="1146"/>
      <point x="845" y="1048"/>
      <point x="845" y="879" type="curve" smooth="yes"/>
      <point x="845" y="872" type="line" smooth="yes"/>
      <point x="845" y="687"/>
      <point x="709" y="596"/>
      <point x="440" y="596" type="curve" smooth="yes"/>
      <point x="104" y="596" type="line"/>
      <point x="104" y="564" type="line"/>
    </contour>
  </outline>
</glyph>
<glyph name="Cha.gj" format="2">
  <advance width="1899"/>
  <unicode hex="0A9B"/>
  <anchor x="893" y="-105" name="Bottom"/>
  <anchor x="1470" y="1253" name="Top"/>
  <anchor x="1348" y="1253" name="Top2"/>
  <outline>
    <contour>
      <point x="853" y="-14" type="curve" smooth="yes"/>
      <point x="1355" y="-14"/>
      <point x="1693" y="226"/>
      <point x="1693" y="742" type="curve" smooth="yes"/>
      <point x="1693" y="754" type="line"/>
      <point x="1652" y="754" type="line"/>
      <point x="1652" y="742" type="line" smooth="yes"/>
      <point x="1652" y="254"/>
      <point x="1346" y="22"/>
      <point x="853" y="22" type="curve" smooth="yes"/>
      <point x="477" y="22"/>
      <point x="243" y="118"/>
      <point x="243" y="358" type="curve" smooth="yes"/>
      <point x="243" y="360" type="line" smooth="yes"/>
      <point x="243" y="536"/>
      <point x="376" y="606"/>
      <point x="600" y="609" type="curve" smooth="yes"/>
      <point x="773" y="611" type="line"/>
      <point x="773" y="643" type="line"/>
      <point x="600" y="644" type="line" smooth="yes"/>
      <point x="374" y="645"/>
      <point x="248" y="714"/>
      <point x="248" y="886" type="curve" smooth="yes"/>
      <point x="248" y="888" type="line" smooth="yes"/>
      <point x="248" y="1057"/>
      <point x="371" y="1146"/>
      <point x="578" y="1146" type="curve" smooth="yes"/>
      <point x="712" y="1146"/>
      <point x="798" y="1120"/>
      <point x="853" y="1089" type="curve"/>
      <point x="848" y="1130" type="line"/>
      <point x="807" y="1152"/>
      <point x="721" y="1182"/>
      <point x="578" y="1182" type="curve" smooth="yes"/>
      <point x="342" y="1182"/>
      <point x="207" y="1080"/>
      <point x="207" y="888" type="curve" smooth="yes"/>
      <point x="207" y="886" type="line" smooth="yes"/>
      <point x="207" y="721"/>
      <point x="312" y="643"/>
      <point x="474" y="628" type="curve"/>
      <point x="474" y="627" type="line"/>
      <point x="310" y="611"/>
      <point x="202" y="527"/>
      <point x="202" y="360" type="curve" smooth="yes"/>
      <point x="202" y="358" type="line" smooth="yes"/>
      <point x="202" y="93"/>
      <point x="454" y="-14"/>
    </contour>
    <contour>
      <point x="1317" y="532" type="curve" smooth="yes"/>
      <point x="1494" y="532"/>
      <point x="1617" y="637"/>
      <point x="1656" y="728" type="curve"/>
      <point x="1670" y="726" type="line"/>
      <point x="1667" y="808" type="line"/>
      <point x="1628" y="668"/>
      <point x="1479" y="568"/>
      <point x="1317" y="568" type="curve" smooth="yes"/>
      <point x="1119" y="568"/>
      <point x="1013" y="664"/>
      <point x="1013" y="844" type="curve" smooth="yes"/>
      <point x="1013" y="851" type="line" smooth="yes"/>
      <point x="1013" y="1041"/>
      <point x="1121" y="1146"/>
      <point x="1320" y="1146" type="curve" smooth="yes"/>
      <point x="1529" y="1146"/>
      <point x="1652" y="1006"/>
      <point x="1652" y="760" type="curve"/>
      <point x="1652" y="749" type="line"/>
      <point x="1693" y="749" type="line"/>
      <point x="1693" y="760" type="line" smooth="yes"/>
      <point x="1693" y="1029"/>
      <point x="1559" y="1182"/>
      <point x="1320" y="1182" type="curve" smooth="yes"/>
      <point x="1098" y="1182"/>
      <point x="972" y="1063"/>
      <point x="972" y="851" type="curve" smooth="yes"/>
      <point x="972" y="844" type="line" smooth="yes"/>
      <point x="972" y="641"/>
      <point x="1093" y="532"/>
    </contour>
  </outline>
</glyph>
<glyph name="Ja.gj" format="2">
  <advance width="1872"/>
  <unicode hex="0A9C"/>
  <anchor x="1196" y="-105" name="Bottom"/>
  <anchor x="1720" y="1253" name="Top"/>
  <anchor x="1759" y="1253" name="Top2"/>
  <outline>
    <contour>
      <point x="1177" y="744" type="line"/>
      <point x="1800" y="1152" type="line"/>
      <point x="1800" y="1157" type="line"/>
      <point x="1740" y="1157" type="line"/>
      <point x="1133" y="757" type="line"/>
    </contour>
    <contour>
      <point x="280" y="401" type="line"/>
      <point x="280" y="905" type="line" smooth="yes"/>
      <point x="280" y="1082"/>
      <point x="376" y="1146"/>
      <point x="497" y="1146" type="curve" smooth="yes"/>
      <point x="613" y="1146"/>
      <point x="694" y="1084"/>
      <point x="862" y="959" type="curve" smooth="yes"/>
      <point x="1156" y="741" type="line"/>
      <point x="1193" y="761" type="line"/>
      <point x="886" y="990" type="line" smooth="yes"/>
      <point x="718" y="1116"/>
      <point x="635" y="1182"/>
      <point x="497" y="1182" type="curve" smooth="yes"/>
      <point x="349" y="1182"/>
      <point x="241" y="1104"/>
      <point x="241" y="905" type="curve" smooth="yes"/>
      <point x="241" y="418" type="line"/>
    </contour>
    <contour>
      <point x="1156" y="-14" type="curve" smooth="yes"/>
      <point x="1455" y="-14"/>
      <point x="1614" y="94"/>
      <point x="1614" y="295" type="curve" smooth="yes"/>
      <point x="1614" y="299" type="line" smooth="yes"/>
      <point x="1614" y="463"/>
      <point x="1525" y="541"/>
      <point x="1370" y="646" type="curve" smooth="yes"/>
      <point x="1193" y="766" type="line"/>
      <point x="1156" y="747" type="line"/>
      <point x="1354" y="614" type="line" smooth="yes"/>
      <point x="1489" y="523"/>
      <point x="1573" y="452"/>
      <point x="1573" y="299" type="curve" smooth="yes"/>
      <point x="1573" y="295" type="line" smooth="yes"/>
      <point x="1573" y="118"/>
      <point x="1427" y="22"/>
      <point x="1156" y="22" type="curve" smooth="yes"/>
      <point x="880" y="22"/>
      <point x="732" y="118"/>
      <point x="732" y="295" type="curve" smooth="yes"/>
      <point x="732" y="299" type="line" smooth="yes"/>
      <point x="732" y="452"/>
      <point x="825" y="529"/>
      <point x="964" y="614" type="curve" smooth="yes"/>
      <point x="1176" y="744" type="line"/>
      <point x="1153" y="773" type="line"/>
      <point x="948" y="646" type="line" smooth="yes"/>
      <point x="789" y="547"/>
      <point x="691" y="463"/>
      <point x="691" y="299" type="curve" smooth="yes"/>
      <point x="691" y="295" type="line" smooth="yes"/>
      <point x="691" y="94"/>
      <point x="852" y="-14"/>
    </contour>
  </outline>
</glyph>
<glyph name="Nya.gj" format="2">
  <advance width="1858"/>
  <unicode hex="0A9E"/>
  <guideline x="4964" y="2478" angle="90"/>
  <anchor x="1539" y="-104" name="Bottom"/>
  <anchor x="1518" y="1254" name="Top"/>
  <anchor x="1557" y="1254" name="Top2"/>
  <outline>
    <contour>
      <point x="538" y="199" type="curve" smooth="yes"/>
      <point x="835" y="199"/>
      <point x="1009" y="357"/>
      <point x="1009" y="647" type="curve" smooth="yes"/>
      <point x="1009" y="654" type="line" smooth="yes"/>
      <point x="1009" y="945"/>
      <point x="838" y="1103"/>
      <point x="546" y="1103" type="curve" smooth="yes"/>
      <point x="342" y="1103"/>
      <point x="224" y="1048"/>
      <point x="160" y="1012" type="curve"/>
      <point x="155" y="969" type="line"/>
      <point x="235" y="1016"/>
      <point x="360" y="1067"/>
      <point x="546" y="1067" type="curve" smooth="yes"/>
      <point x="813" y="1067"/>
      <point x="968" y="916"/>
      <point x="968" y="654" type="curve" smooth="yes"/>
      <point x="968" y="647" type="line" smooth="yes"/>
      <point x="968" y="387"/>
      <point x="810" y="235"/>
      <point x="538" y="235" type="curve" smooth="yes"/>
      <point x="345" y="235"/>
      <point x="217" y="287"/>
      <point x="135" y="333" type="curve"/>
      <point x="141" y="291" type="line"/>
      <point x="206" y="256"/>
      <point x="328" y="199"/>
    </contour>
    <contour>
      <point x="986" y="637" type="line"/>
      <point x="1562" y="637" type="line"/>
      <point x="1555" y="671" type="line"/>
      <point x="986" y="671" type="line"/>
    </contour>
    <contour>
      <point x="1538" y="540" type="line"/>
      <point x="1577" y="540" type="line"/>
      <point x="1577" y="1158" type="line"/>
      <point x="1538" y="1158" type="line"/>
    </contour>
    <contour>
      <point x="1538" y="1" type="line"/>
      <point x="1577" y="1" type="line"/>
      <point x="1577" y="674" type="line"/>
      <point x="1538" y="674" type="line"/>
    </contour>
  </outline>
</glyph>
<glyph name="Tta.gj" format="2">
  <advance width="1480"/>
  <unicode hex="0A9F"/>
  <guideline x="4023" y="4040" angle="90"/>
  <guideline x="5358" y="2530" angle="90"/>
  <guideline x="798" y="-185" angle="90"/>
  <anchor x="798" y="-105" name="Bottom"/>
  <anchor x="1017" y="1253" name="Top"/>
  <anchor x="797" y="1253" name="Top2"/>
  <outline>
    <contour>
      <point x="752" y="-14" type="curve" smooth="yes"/>
      <point x="989" y="-14"/>
      <point x="1188" y="41"/>
      <point x="1320" y="141" type="curve"/>
      <point x="1325" y="189" type="line"/>
      <point x="1186" y="85"/>
      <point x="987" y="22"/>
      <point x="752" y="22" type="curve" smooth="yes"/>
      <point x="403" y="22"/>
      <point x="223" y="125"/>
      <point x="223" y="340" type="curve" smooth="yes"/>
      <point x="223" y="351" type="line" smooth="yes"/>
      <point x="223" y="509"/>
      <point x="331" y="600"/>
      <point x="578" y="638" type="curve" smooth="yes"/>
      <point x="912" y="690" type="line" smooth="yes"/>
      <point x="1159" y="728"/>
      <point x="1245" y="785"/>
      <point x="1245" y="912" type="curve" smooth="yes"/>
      <point x="1245" y="926" type="line" smooth="yes"/>
      <point x="1245" y="1100"/>
      <point x="1094" y="1182"/>
      <point x="777" y="1182" type="curve" smooth="yes"/>
      <point x="522" y="1182"/>
      <point x="371" y="1123"/>
      <point x="293" y="1086" type="curve"/>
      <point x="287" y="1043" type="line"/>
      <point x="389" y="1093"/>
      <point x="547" y="1146"/>
      <point x="777" y="1146" type="curve" smooth="yes"/>
      <point x="1067" y="1146"/>
      <point x="1204" y="1077"/>
      <point x="1204" y="921" type="curve" smooth="yes"/>
      <point x="1204" y="916" type="line" smooth="yes"/>
      <point x="1204" y="810"/>
      <point x="1127" y="762"/>
      <point x="905" y="727" type="curve" smooth="yes"/>
      <point x="571" y="675" type="line" smooth="yes"/>
      <point x="304" y="634"/>
      <point x="182" y="532"/>
      <point x="182" y="351" type="curve" smooth="yes"/>
      <point x="182" y="340" type="line" smooth="yes"/>
      <point x="182" y="101"/>
      <point x="375" y="-14"/>
    </contour>
  </outline>
</glyph>
<glyph name="Ttha.gj" format="2">
  <advance width="1542"/>
  <unicode hex="0AA0"/>
  <anchor x="796" y="-105" name="Bottom"/>
  <anchor x="988" y="1253" name="Top"/>
  <anchor x="796" y="1253" name="Top2"/>
  <outline>
    <contour>
      <point x="783" y="-14" type="curve" smooth="yes"/>
      <point x="1171" y="-14"/>
      <point x="1377" y="114"/>
      <point x="1377" y="344" type="curve" smooth="yes"/>
      <point x="1377" y="347" type="line" smooth="yes"/>
      <point x="1377" y="570"/>
      <point x="1201" y="687"/>
      <point x="808" y="701" type="curve" smooth="yes"/>
      <point x="710" y="705" type="line" smooth="yes"/>
      <point x="387" y="717"/>
      <point x="320" y="797"/>
      <point x="320" y="913" type="curve" smooth="yes"/>
      <point x="320" y="918" type="line" smooth="yes"/>
      <point x="320" y="1068"/>
      <point x="473" y="1146"/>
      <point x="768" y="1146" type="curve" smooth="yes"/>
      <point x="984" y="1146"/>
      <point x="1142" y="1095"/>
      <point x="1253" y="1032" type="curve"/>
      <point x="1245" y="1073" type="line"/>
      <point x="1156" y="1127"/>
      <point x="991" y="1182"/>
      <point x="768" y="1182" type="curve" smooth="yes"/>
      <point x="444" y="1182"/>
      <point x="279" y="1091"/>
      <point x="279" y="918" type="curve" smooth="yes"/>
      <point x="279" y="913" type="line" smooth="yes"/>
      <point x="279" y="778"/>
      <point x="380" y="694"/>
      <point x="590" y="687" type="curve"/>
      <point x="619" y="675" type="line"/>
      <point x="651" y="671"/>
      <point x="679" y="671"/>
      <point x="708" y="669" type="curve" smooth="yes"/>
      <point x="806" y="666" type="line" smooth="yes"/>
      <point x="1174" y="651"/>
      <point x="1336" y="548"/>
      <point x="1336" y="347" type="curve" smooth="yes"/>
      <point x="1336" y="344" type="line" smooth="yes"/>
      <point x="1336" y="135"/>
      <point x="1146" y="22"/>
      <point x="783" y="22" type="curve" smooth="yes"/>
      <point x="420" y="22"/>
      <point x="229" y="135"/>
      <point x="229" y="344" type="curve" smooth="yes"/>
      <point x="229" y="345" type="line"/>
      <point x="188" y="345" type="line"/>
      <point x="188" y="344" type="line" smooth="yes"/>
      <point x="188" y="114"/>
      <point x="395" y="-14"/>
    </contour>
    <contour>
      <point x="188" y="345" type="line"/>
      <point x="229" y="345" type="line"/>
      <point x="229" y="347" type="line" smooth="yes"/>
      <point x="229" y="532"/>
      <point x="373" y="634"/>
      <point x="662" y="673" type="curve"/>
      <point x="653" y="696" type="line"/>
      <point x="355" y="671"/>
      <point x="188" y="552"/>
      <point x="188" y="347" type="curve" smooth="yes"/>
    </contour>
  </outline>
</glyph>
<glyph name="Ddha.gj" format="2">
  <advance width="1599"/>
  <unicode hex="0AA2"/>
  <anchor x="875" y="-105" name="Bottom"/>
  <anchor x="1056" y="1253" name="Top"/>
  <anchor x="824" y="1253" name="Top2"/>
  <outline>
    <contour>
      <point x="825" y="-14" type="curve" smooth="yes"/>
      <point x="1215" y="-14"/>
      <point x="1444" y="85"/>
      <point x="1444" y="288" type="curve" smooth="yes"/>
      <point x="1444" y="292" type="line" smooth="yes"/>
      <point x="1444" y="449"/>
      <point x="1327" y="536"/>
      <point x="1120" y="536" type="curve" smooth="yes"/>
      <point x="909" y="536"/>
      <point x="788" y="447"/>
      <point x="788" y="290" type="curve" smooth="yes"/>
      <point x="788" y="287" type="line" smooth="yes"/>
      <point x="788" y="158"/>
      <point x="882" y="64"/>
      <point x="1031" y="23" type="curve"/>
      <point x="1031" y="20" type="line"/>
      <point x="1087" y="28" type="line"/>
      <point x="900" y="85"/>
      <point x="825" y="171"/>
      <point x="825" y="287" type="curve" smooth="yes"/>
      <point x="825" y="290" type="line" smooth="yes"/>
      <point x="825" y="425"/>
      <point x="932" y="502"/>
      <point x="1120" y="502" type="curve" smooth="yes"/>
      <point x="1302" y="502"/>
      <point x="1405" y="425"/>
      <point x="1405" y="292" type="curve" smooth="yes"/>
      <point x="1405" y="288" type="line" smooth="yes"/>
      <point x="1405" y="112"/>
      <point x="1220" y="61"/>
      <point x="1047" y="32" type="curve"/>
      <point x="1033" y="31" type="line"/>
      <point x="967" y="26"/>
      <point x="896" y="22"/>
      <point x="825" y="22" type="curve" smooth="yes"/>
      <point x="442" y="22"/>
      <point x="223" y="139"/>
      <point x="223" y="378" type="curve" smooth="yes"/>
      <point x="223" y="386" type="line" smooth="yes"/>
      <point x="223" y="588"/>
      <point x="351" y="684"/>
      <point x="672" y="727" type="curve" smooth="yes"/>
      <point x="939" y="762" type="line" smooth="yes"/>
      <point x="1196" y="795"/>
      <point x="1272" y="843"/>
      <point x="1272" y="972" type="curve" smooth="yes"/>
      <point x="1272" y="975" type="line" smooth="yes"/>
      <point x="1272" y="1113"/>
      <point x="1120" y="1182"/>
      <point x="816" y="1182" type="curve" smooth="yes"/>
      <point x="558" y="1182"/>
      <point x="405" y="1127"/>
      <point x="325" y="1093" type="curve"/>
      <point x="319" y="1050" type="line"/>
      <point x="423" y="1096"/>
      <point x="583" y="1146"/>
      <point x="816" y="1146" type="curve" smooth="yes"/>
      <point x="1094" y="1146"/>
      <point x="1231" y="1088"/>
      <point x="1231" y="975" type="curve" smooth="yes"/>
      <point x="1231" y="972" type="line" smooth="yes"/>
      <point x="1231" y="868"/>
      <point x="1163" y="828"/>
      <point x="932" y="798" type="curve" smooth="yes"/>
      <point x="664" y="763" type="line" smooth="yes"/>
      <point x="320" y="718"/>
      <point x="182" y="612"/>
      <point x="182" y="386" type="curve" smooth="yes"/>
      <point x="182" y="378" type="line" smooth="yes"/>
      <point x="182" y="115"/>
      <point x="413" y="-14"/>
    </contour>
  </outline>
</glyph>
<glyph name="Ta.gj" format="2">
  <advance width="1506"/>
  <unicode hex="0AA4"/>
  <guideline x="4003" y="2087" angle="90"/>
  <anchor x="1187" y="-105" name="Bottom"/>
  <anchor x="1166" y="1253" name="Top"/>
  <anchor x="1205" y="1253" name="Top2"/>
  <outline>
    <contour>
      <point x="1186" y="539" type="line"/>
      <point x="1225" y="539" type="line"/>
      <point x="1225" y="1157" type="line"/>
      <point x="1186" y="1157" type="line"/>
    </contour>
    <contour>
      <point x="1186" y="0" type="line"/>
      <point x="1225" y="0" type="line"/>
      <point x="1225" y="673" type="line"/>
      <point x="1186" y="673" type="line"/>
    </contour>
    <contour>
      <point x="428" y="0" type="curve"/>
      <point x="487" y="0" type="line"/>
      <point x="337" y="117"/>
      <point x="214" y="283"/>
      <point x="214" y="481" type="curve" smooth="yes"/>
      <point x="214" y="698"/>
      <point x="325" y="815"/>
      <point x="581" y="815" type="curve" smooth="yes"/>
      <point x="1199" y="815" type="line"/>
      <point x="1199" y="849" type="line"/>
      <point x="581" y="849" type="line" smooth="yes"/>
      <point x="300" y="849"/>
      <point x="173" y="717"/>
      <point x="173" y="481" type="curve" smooth="yes"/>
      <point x="173" y="287"/>
      <point x="285" y="116"/>
    </contour>
  </outline>
</glyph>
<glyph name="Tha.gj" format="2">
  <advance width="1786"/>
  <unicode hex="0AA5"/>
  <guideline x="1505" y="-185" angle="90"/>
  <guideline x="1466" y="-185" angle="90"/>
  <guideline x="1467" y="-185" angle="90"/>
  <guideline x="843" y="130" angle="0"/>
  <guideline x="843" y="108" angle="0"/>
  <anchor x="1467" y="-105" name="Bottom"/>
  <anchor x="1446" y="1253" name="Top"/>
  <anchor x="1485" y="1253" name="Top2"/>
  <outline>
    <contour>
      <point x="859" y="108" type="curve" smooth="yes"/>
      <point x="1208" y="108"/>
      <point x="1413" y="234"/>
      <point x="1470" y="395" type="curve"/>
      <point x="1471" y="395" type="line"/>
      <point x="1468" y="459" type="line"/>
      <point x="1407" y="259"/>
      <point x="1187" y="144"/>
      <point x="859" y="144" type="curve" smooth="yes"/>
      <point x="476" y="144"/>
      <point x="240" y="281"/>
      <point x="240" y="532" type="curve" smooth="yes"/>
      <point x="240" y="552"/>
      <point x="241" y="570"/>
      <point x="245" y="591" type="curve"/>
      <point x="216" y="562" type="line"/>
      <point x="571" y="562" type="line" smooth="yes"/>
      <point x="845" y="562"/>
      <point x="987" y="659"/>
      <point x="987" y="872" type="curve" smooth="yes"/>
      <point x="987" y="881" type="line" smooth="yes"/>
      <point x="987" y="1077"/>
      <point x="848" y="1182"/>
      <point x="606" y="1182" type="curve" smooth="yes"/>
      <point x="364" y="1182"/>
      <point x="229" y="1080"/>
      <point x="229" y="878" type="curve" smooth="yes"/>
      <point x="229" y="846"/>
      <point x="231" y="808"/>
      <point x="234" y="780" type="curve"/>
      <point x="268" y="780" type="line"/>
      <point x="268" y="812"/>
      <point x="268" y="844"/>
      <point x="268" y="876" type="curve" smooth="yes"/>
      <point x="268" y="1059"/>
      <point x="391" y="1146"/>
      <point x="606" y="1146" type="curve" smooth="yes"/>
      <point x="823" y="1146"/>
      <point x="946" y="1050"/>
      <point x="946" y="881" type="curve" smooth="yes"/>
      <point x="946" y="874" type="line" smooth="yes"/>
      <point x="946" y="681"/>
      <point x="818" y="597"/>
      <point x="567" y="597" type="curve" smooth="yes"/>
      <point x="204" y="597" type="line"/>
      <point x="200" y="572"/>
      <point x="199" y="557"/>
      <point x="199" y="532" type="curve" smooth="yes"/>
      <point x="199" y="259"/>
      <point x="453" y="108"/>
    </contour>
    <contour>
      <point x="1466" y="539" type="line"/>
      <point x="1505" y="539" type="line"/>
      <point x="1505" y="1157" type="line"/>
      <point x="1466" y="1157" type="line"/>
    </contour>
    <contour>
      <point x="1466" y="0" type="line"/>
      <point x="1505" y="0" type="line"/>
      <point x="1505" y="673" type="line"/>
      <point x="1466" y="673" type="line"/>
    </contour>
  </outline>
</glyph>
<glyph name="Da.gj" format="2">
  <advance width="1338"/>
  <unicode hex="0AA6"/>
  <anchor x="761" y="-105" name="Bottom"/>
  <anchor x="911" y="1253" name="Top"/>
  <anchor x="736" y="1253" name="Top2"/>
  <outline>
    <contour>
      <point x="710" y="-14" type="curve" smooth="yes"/>
      <point x="978" y="-14"/>
      <point x="1131" y="59"/>
      <point x="1217" y="117" type="curve"/>
      <point x="1222" y="164" type="line"/>
      <point x="1124" y="93"/>
      <point x="969" y="22"/>
      <point x="711" y="22" type="curve" smooth="yes"/>
      <point x="396" y="22"/>
      <point x="233" y="120"/>
      <point x="233" y="315" type="curve" smooth="yes"/>
      <point x="233" y="317" type="line" smooth="yes"/>
      <point x="233" y="511"/>
      <point x="394" y="589"/>
      <point x="692" y="591" type="curve" smooth="yes"/>
      <point x="1016" y="593" type="line"/>
      <point x="1016" y="625" type="line"/>
      <point x="692" y="627" type="line" smooth="yes"/>
      <point x="411" y="628"/>
      <point x="257" y="685"/>
      <point x="257" y="876" type="curve" smooth="yes"/>
      <point x="257" y="878" type="line" smooth="yes"/>
      <point x="257" y="1056"/>
      <point x="412" y="1146"/>
      <point x="711" y="1146" type="curve" smooth="yes"/>
      <point x="923" y="1146"/>
      <point x="1076" y="1093"/>
      <point x="1185" y="1029" type="curve"/>
      <point x="1178" y="1070" type="line"/>
      <point x="1090" y="1125"/>
      <point x="928" y="1182"/>
      <point x="711" y="1182" type="curve" smooth="yes"/>
      <point x="384" y="1182"/>
      <point x="216" y="1075"/>
      <point x="216" y="878" type="curve" smooth="yes"/>
      <point x="216" y="876" type="line" smooth="yes"/>
      <point x="216" y="696"/>
      <point x="339" y="625"/>
      <point x="539" y="611" type="curve"/>
      <point x="539" y="609" type="line"/>
      <point x="323" y="589"/>
      <point x="192" y="502"/>
      <point x="192" y="317" type="curve" smooth="yes"/>
      <point x="192" y="315" type="line" smooth="yes"/>
      <point x="192" y="101"/>
      <point x="368" y="-14"/>
    </contour>
  </outline>
</glyph>
<glyph name="Dha.gj" format="2">
  <advance width="1694"/>
  <unicode hex="0AA7"/>
  <guideline x="2799" y="2309" angle="0"/>
  <guideline x="1413" y="-185" angle="90"/>
  <guideline x="1374" y="-185" angle="90"/>
  <guideline x="1375" y="-185" angle="90"/>
  <anchor x="1375" y="-105" name="Bottom"/>
  <anchor x="1354" y="1253" name="Top"/>
  <anchor x="1393" y="1253" name="Top2"/>
  <outline>
    <contour>
      <point x="757" y="121" type="curve" smooth="yes"/>
      <point x="1110" y="121"/>
      <point x="1315" y="241"/>
      <point x="1379" y="386" type="curve"/>
      <point x="1381" y="386" type="line"/>
      <point x="1377" y="447" type="line"/>
      <point x="1318" y="272"/>
      <point x="1099" y="157"/>
      <point x="757" y="157" type="curve" smooth="yes"/>
      <point x="435" y="157"/>
      <point x="241" y="231"/>
      <point x="241" y="425" type="curve" smooth="yes"/>
      <point x="241" y="427" type="line" smooth="yes"/>
      <point x="241" y="593"/>
      <point x="377" y="658"/>
      <point x="626" y="659" type="curve" smooth="yes"/>
      <point x="905" y="660" type="line"/>
      <point x="905" y="692" type="line"/>
      <point x="626" y="694" type="line" smooth="yes"/>
      <point x="373" y="696"/>
      <point x="238" y="740"/>
      <point x="238" y="885" type="curve" smooth="yes"/>
      <point x="238" y="886" type="line" smooth="yes"/>
      <point x="238" y="1036"/>
      <point x="431" y="1125"/>
      <point x="788" y="1274" type="curve"/>
      <point x="788" y="1282" type="line"/>
      <point x="713" y="1282" type="line"/>
      <point x="400" y="1146"/>
      <point x="197" y="1059"/>
      <point x="197" y="886" type="curve" smooth="yes"/>
      <point x="197" y="885" type="line" smooth="yes"/>
      <point x="197" y="746"/>
      <point x="307" y="689"/>
      <point x="491" y="678" type="curve"/>
      <point x="491" y="676" type="line"/>
      <point x="309" y="660"/>
      <point x="200" y="587"/>
      <point x="200" y="427" type="curve" smooth="yes"/>
      <point x="200" y="425" type="line" smooth="yes"/>
      <point x="200" y="208"/>
      <point x="412" y="121"/>
    </contour>
    <contour>
      <point x="1374" y="539" type="line"/>
      <point x="1413" y="539" type="line"/>
      <point x="1413" y="1157" type="line"/>
      <point x="1374" y="1157" type="line"/>
    </contour>
    <contour>
      <point x="1374" y="0" type="line"/>
      <point x="1413" y="0" type="line"/>
      <point x="1413" y="673" type="line"/>
      <point x="1374" y="673" type="line"/>
    </contour>
  </outline>
</glyph>
<glyph name="Na.gj" format="2">
  <advance width="1425"/>
  <unicode hex="0AA8"/>
  <anchor x="1106" y="-105" name="Bottom"/>
  <anchor x="1085" y="1253" name="Top"/>
  <anchor x="1124" y="1253" name="Top2"/>
  <outline>
    <contour>
      <point x="1105" y="539" type="line"/>
      <point x="1144" y="539" type="line"/>
      <point x="1144" y="1157" type="line"/>
      <point x="1105" y="1157" type="line"/>
    </contour>
    <contour>
      <point x="1105" y="0" type="line"/>
      <point x="1144" y="0" type="line"/>
      <point x="1144" y="673" type="line"/>
      <point x="1105" y="673" type="line"/>
    </contour>
    <contour>
      <point x="247" y="263" type="curve"/>
      <point x="295" y="263" type="line"/>
      <point x="295" y="744" type="line"/>
      <point x="253" y="744" type="line"/>
      <point x="190" y="710" type="line"/>
      <point x="212" y="538"/>
      <point x="226" y="436"/>
    </contour>
    <contour>
      <point x="266" y="710" type="line"/>
      <point x="1125" y="710" type="line"/>
      <point x="1118" y="744" type="line"/>
      <point x="266" y="744" type="line"/>
    </contour>
  </outline>
</glyph>
<glyph name="Ba.gj" format="2">
  <advance width="1929"/>
  <unicode hex="0AAC"/>
  <guideline x="2524" y="3323" angle="0"/>
  <guideline x="1772" y="1259" angle="0"/>
  <guideline x="198" y="1310" angle="90"/>
  <guideline x="1648" y="1310" angle="90"/>
  <anchor x="1610" y="-105" name="Bottom"/>
  <anchor x="1589" y="1253" name="Top"/>
  <anchor x="1628" y="1253" name="Top2"/>
  <outline>
    <contour>
      <point x="1609" y="539" type="line"/>
      <point x="1648" y="539" type="line"/>
      <point x="1648" y="1157" type="line"/>
      <point x="1609" y="1157" type="line"/>
    </contour>
    <contour>
      <point x="1609" y="0" type="line"/>
      <point x="1648" y="0" type="line"/>
      <point x="1648" y="673" type="line"/>
      <point x="1609" y="673" type="line"/>
    </contour>
    <contour>
      <point x="1027" y="566" type="line"/>
      <point x="1641" y="566" type="line"/>
      <point x="1634" y="600" type="line"/>
      <point x="1027" y="600" type="line"/>
    </contour>
    <contour>
      <point x="642" y="121" type="curve" smooth="yes"/>
      <point x="918" y="121"/>
      <point x="1053" y="260"/>
      <point x="1053" y="541" type="curve" smooth="yes"/>
      <point x="1053" y="963" type="line"/>
      <point x="1014" y="963" type="line"/>
      <point x="1014" y="541" type="line" smooth="yes"/>
      <point x="1014" y="281"/>
      <point x="891" y="157"/>
      <point x="642" y="157" type="curve" smooth="yes"/>
      <point x="376" y="157"/>
      <point x="239" y="303"/>
      <point x="239" y="598" type="curve" smooth="yes"/>
      <point x="239" y="607" type="line" smooth="yes"/>
      <point x="239" y="847"/>
      <point x="332" y="1013"/>
      <point x="503" y="1157" type="curve"/>
      <point x="455" y="1157" type="line"/>
      <point x="300" y="1031"/>
      <point x="198" y="862"/>
      <point x="198" y="607" type="curve" smooth="yes"/>
      <point x="198" y="598" type="line" smooth="yes"/>
      <point x="198" y="281"/>
      <point x="348" y="121"/>
    </contour>
  </outline>
</glyph>
<glyph name="Bha.gj" format="2">
  <advance width="2073"/>
  <unicode hex="0AAD"/>
  <guideline x="5713" y="3201" angle="90"/>
  <guideline x="5643" y="2145" angle="90"/>
  <guideline x="3329" y="7270" angle="0"/>
  <guideline x="3346" y="6868" angle="90"/>
  <guideline x="3492" y="542" angle="0"/>
  <guideline x="779" y="824" angle="90"/>
  <guideline x="1723" y="824" angle="90"/>
  <anchor x="1754" y="-105" name="Bottom"/>
  <anchor x="1733" y="1253" name="Top"/>
  <anchor x="1772" y="1253" name="Top2"/>
  <outline>
    <contour>
      <point x="1753" y="539" type="line"/>
      <point x="1792" y="539" type="line"/>
      <point x="1792" y="1157" type="line"/>
      <point x="1753" y="1157" type="line"/>
    </contour>
    <contour>
      <point x="1753" y="0" type="line"/>
      <point x="1792" y="0" type="line"/>
      <point x="1792" y="673" type="line"/>
      <point x="1753" y="673" type="line"/>
    </contour>
    <contour>
      <point x="1076" y="552" type="line"/>
      <point x="1777" y="552" type="line"/>
      <point x="1770" y="586" type="line"/>
      <point x="1076" y="586" type="line"/>
    </contour>
    <contour>
      <point x="536" y="0" type="curve"/>
      <point x="592" y="0" type="line"/>
      <point x="388" y="166"/>
      <point x="258" y="349"/>
      <point x="258" y="644" type="curve" smooth="yes"/>
      <point x="258" y="660" type="line" smooth="yes"/>
      <point x="258" y="981"/>
      <point x="437" y="1146"/>
      <point x="787" y="1146" type="curve" smooth="yes"/>
      <point x="891" y="1146"/>
      <point x="987" y="1130"/>
      <point x="1059" y="1099" type="curve"/>
      <point x="1056" y="1120" type="line"/>
      <point x="1056" y="570" type="line"/>
      <point x="1097" y="570" type="line"/>
      <point x="1097" y="1126" type="line"/>
      <point x="1023" y="1160"/>
      <point x="913" y="1182"/>
      <point x="787" y="1182" type="curve" smooth="yes"/>
      <point x="412" y="1182"/>
      <point x="217" y="1004"/>
      <point x="217" y="660" type="curve" smooth="yes"/>
      <point x="217" y="644" type="line" smooth="yes"/>
      <point x="217" y="344"/>
      <point x="345" y="157"/>
    </contour>
    <contour>
      <point x="1054" y="166" type="curve"/>
      <point x="1095" y="166" type="line"/>
      <point x="1095" y="582" type="line"/>
      <point x="1059" y="582" type="line"/>
      <point x="997" y="548" type="line"/>
      <point x="1018" y="401"/>
      <point x="1033" y="313"/>
    </contour>
  </outline>
</glyph>
<glyph name="Ma.gj" format="2">
  <advance width="1532"/>
  <unicode hex="0AAE"/>
  <anchor x="1213" y="-105" name="Bottom"/>
  <anchor x="1192" y="1253" name="Top"/>
  <anchor x="1231" y="1253" name="Top2"/>
  <outline>
    <contour>
      <point x="336" y="541" type="line"/>
      <point x="375" y="541" type="line"/>
      <point x="375" y="951" type="line" smooth="yes"/>
      <point x="375" y="1093"/>
      <point x="317" y="1164"/>
      <point x="194" y="1164" type="curve" smooth="yes"/>
      <point x="160" y="1164"/>
      <point x="117" y="1159"/>
      <point x="85" y="1148" type="curve"/>
      <point x="80" y="1111" type="line"/>
      <point x="116" y="1123"/>
      <point x="156" y="1129"/>
      <point x="192" y="1129" type="curve" smooth="yes"/>
      <point x="288" y="1129"/>
      <point x="336" y="1072"/>
      <point x="336" y="951" type="curve" smooth="yes"/>
    </contour>
    <contour>
      <point x="333" y="107" type="curve"/>
      <point x="374" y="107" type="line"/>
      <point x="374" y="559" type="line"/>
      <point x="338" y="559" type="line"/>
      <point x="276" y="525" type="line"/>
      <point x="297" y="363"/>
      <point x="311" y="269"/>
    </contour>
    <contour>
      <point x="369" y="528" type="line"/>
      <point x="1240" y="528" type="line"/>
      <point x="1233" y="562" type="line"/>
      <point x="369" y="562" type="line"/>
    </contour>
    <contour>
      <point x="1212" y="539" type="line"/>
      <point x="1251" y="539" type="line"/>
      <point x="1251" y="1157" type="line"/>
      <point x="1212" y="1157" type="line"/>
    </contour>
    <contour>
      <point x="1212" y="0" type="line"/>
      <point x="1251" y="0" type="line"/>
      <point x="1251" y="673" type="line"/>
      <point x="1212" y="673" type="line"/>
    </contour>
  </outline>
</glyph>
<glyph name="Ya.gj" format="2">
  <advance width="1697"/>
  <unicode hex="0AAF"/>
  <guideline x="3918" y="3236" angle="0"/>
  <guideline x="3895" y="3084" angle="0"/>
  <guideline x="4222" y="606" angle="0"/>
  <guideline x="788" y="2478" angle="90"/>
  <guideline x="660" y="3533" angle="82.5686"/>
  <guideline x="882" y="889" angle="270"/>
  <guideline x="1416" y="-185" angle="90"/>
  <guideline x="1377" y="-185" angle="90"/>
  <guideline x="1378" y="-185" angle="90"/>
  <anchor x="1378" y="-105" name="Bottom"/>
  <anchor x="1357" y="1253" name="Top"/>
  <anchor x="1396" y="1253" name="Top2"/>
  <outline>
    <contour>
      <point x="802" y="121" type="curve" smooth="yes"/>
      <point x="1135" y="121"/>
      <point x="1330" y="248"/>
      <point x="1382" y="408" type="curve"/>
      <point x="1384" y="408" type="line"/>
      <point x="1380" y="472" type="line"/>
      <point x="1324" y="272"/>
      <point x="1114" y="157"/>
      <point x="802" y="157" type="curve" smooth="yes"/>
      <point x="441" y="157"/>
      <point x="219" y="299"/>
      <point x="219" y="557" type="curve" smooth="yes"/>
      <point x="219" y="577"/>
      <point x="221" y="595"/>
      <point x="224" y="616" type="curve"/>
      <point x="196" y="587" type="line"/>
      <point x="458" y="587" type="line" smooth="yes"/>
      <point x="738" y="587"/>
      <point x="882" y="680"/>
      <point x="882" y="883" type="curve" smooth="yes"/>
      <point x="882" y="894" type="line" smooth="yes"/>
      <point x="882" y="1080"/>
      <point x="741" y="1182"/>
      <point x="498" y="1182" type="curve" smooth="yes"/>
      <point x="381" y="1182"/>
      <point x="285" y="1152"/>
      <point x="215" y="1098" type="curve"/>
      <point x="210" y="1056" type="line"/>
      <point x="286" y="1113"/>
      <point x="385" y="1146"/>
      <point x="498" y="1146" type="curve" smooth="yes"/>
      <point x="717" y="1146"/>
      <point x="841" y="1054"/>
      <point x="841" y="894" type="curve" smooth="yes"/>
      <point x="841" y="885" type="line" smooth="yes"/>
      <point x="841" y="702"/>
      <point x="711" y="622"/>
      <point x="455" y="622" type="curve" smooth="yes"/>
      <point x="183" y="622" type="line"/>
      <point x="180" y="597"/>
      <point x="178" y="582"/>
      <point x="178" y="557" type="curve" smooth="yes"/>
      <point x="178" y="278"/>
      <point x="417" y="121"/>
    </contour>
    <contour>
      <point x="1377" y="539" type="line"/>
      <point x="1416" y="539" type="line"/>
      <point x="1416" y="1157" type="line"/>
      <point x="1377" y="1157" type="line"/>
    </contour>
    <contour>
      <point x="1377" y="0" type="line"/>
      <point x="1416" y="0" type="line"/>
      <point x="1416" y="673" type="line"/>
      <point x="1377" y="673" type="line"/>
    </contour>
  </outline>
</glyph>
<glyph name="Ra.gj" format="2">
  <advance width="1260"/>
  <unicode hex="0AB0"/>
  <anchor x="974" y="-105" name="Bottom"/>
  <anchor x="811" y="1253" name="Top"/>
  <anchor x="641" y="1253" name="Top2"/>
  <outline>
    <contour>
      <point x="313" y="452" type="line"/>
      <point x="320" y="459" type="line"/>
      <point x="513" y="459" type="line" smooth="yes"/>
      <point x="874" y="459"/>
      <point x="1057" y="581"/>
      <point x="1057" y="819" type="curve" smooth="yes"/>
      <point x="1057" y="827" type="line" smooth="yes"/>
      <point x="1057" y="1056"/>
      <point x="886" y="1182"/>
      <point x="591" y="1182" type="curve" smooth="yes"/>
      <point x="361" y="1182"/>
      <point x="230" y="1116"/>
      <point x="158" y="1073" type="curve"/>
      <point x="153" y="1031" type="line"/>
      <point x="242" y="1086"/>
      <point x="383" y="1146"/>
      <point x="591" y="1146" type="curve" smooth="yes"/>
      <point x="862" y="1146"/>
      <point x="1016" y="1030"/>
      <point x="1016" y="827" type="curve" smooth="yes"/>
      <point x="1016" y="820" type="line" smooth="yes"/>
      <point x="1016" y="602"/>
      <point x="847" y="493"/>
      <point x="509" y="493" type="curve" smooth="yes"/>
      <point x="114" y="493" type="line"/>
      <point x="114" y="461" type="line"/>
    </contour>
    <contour>
      <point x="846" y="-14" type="curve" smooth="yes"/>
      <point x="966" y="-14"/>
      <point x="1040" y="15"/>
      <point x="1073" y="31" type="curve"/>
      <point x="1078" y="73" type="line"/>
      <point x="1040" y="53"/>
      <point x="965" y="22"/>
      <point x="846" y="22" type="curve" smooth="yes"/>
      <point x="577" y="22"/>
      <point x="433" y="178"/>
      <point x="358" y="404" type="curve" smooth="yes"/>
      <point x="332" y="482" type="line"/>
      <point x="290" y="482" type="line"/>
      <point x="316" y="402" type="line" smooth="yes"/>
      <point x="395" y="158"/>
      <point x="553" y="-14"/>
    </contour>
  </outline>
</glyph>
<glyph name="La.gj" format="2">
  <advance width="1823"/>
  <unicode hex="0AB2"/>
  <guideline x="5084" y="2985" angle="90"/>
  <guideline x="3754" y="356" angle="263.1572"/>
  <guideline x="1513" y="905" angle="90"/>
  <guideline x="219" y="1092" angle="270"/>
  <anchor x="1504" y="-105" name="Bottom"/>
  <anchor x="1483" y="1253" name="Top"/>
  <anchor x="1522" y="1253" name="Top2"/>
  <outline>
    <contour>
      <point x="1503" y="539" type="line"/>
      <point x="1542" y="539" type="line"/>
      <point x="1542" y="1157" type="line"/>
      <point x="1503" y="1157" type="line"/>
    </contour>
    <contour>
      <point x="1503" y="0" type="line"/>
      <point x="1542" y="0" type="line"/>
      <point x="1542" y="673" type="line"/>
      <point x="1503" y="673" type="line"/>
    </contour>
    <contour>
      <point x="798" y="16" type="curve" smooth="yes"/>
      <point x="980" y="16"/>
      <point x="1083" y="52"/>
      <point x="1142" y="80" type="curve"/>
      <point x="1147" y="123" type="line"/>
      <point x="1081" y="87"/>
      <point x="976" y="52"/>
      <point x="798" y="52" type="curve" smooth="yes"/>
      <point x="419" y="52"/>
      <point x="238" y="244"/>
      <point x="238" y="589" type="curve" smooth="yes"/>
      <point x="238" y="595" type="line" smooth="yes"/>
      <point x="238" y="929"/>
      <point x="414" y="1114"/>
      <point x="780" y="1114" type="curve" smooth="yes"/>
      <point x="928" y="1114"/>
      <point x="1023" y="1088"/>
      <point x="1083" y="1057" type="curve"/>
      <point x="1078" y="1098" type="line"/>
      <point x="1031" y="1120"/>
      <point x="937" y="1150"/>
      <point x="780" y="1150" type="curve" smooth="yes"/>
      <point x="391" y="1150"/>
      <point x="197" y="952"/>
      <point x="197" y="595" type="curve" smooth="yes"/>
      <point x="197" y="589" type="line" smooth="yes"/>
      <point x="197" y="221"/>
      <point x="396" y="16"/>
    </contour>
    <contour>
      <point x="748" y="554" type="line"/>
      <point x="1513" y="681" type="line"/>
      <point x="1520" y="716" type="line"/>
      <point x="755" y="589" type="line"/>
    </contour>
  </outline>
</glyph>
<glyph name="Lla.gj" format="2">
  <advance width="1984"/>
  <unicode hex="0AB3"/>
  <guideline x="9753" y="653" angle="0"/>
  <guideline x="466" y="1673" angle="90"/>
  <guideline x="1664" y="1382" angle="90"/>
  <guideline x="1331" y="1364" angle="90"/>
  <guideline x="1551" y="1364" angle="90"/>
  <guideline x="1331" y="1477" angle="90"/>
  <guideline x="1703" y="-185" angle="90"/>
  <guideline x="1664" y="-185" angle="90"/>
  <guideline x="1665" y="-185" angle="90"/>
  <anchor x="1665" y="-105" name="Bottom"/>
  <anchor x="1551" y="1253" name="Top"/>
  <anchor x="1331" y="1253" name="Top2"/>
  <outline>
    <contour>
      <point x="1664" y="0" type="line"/>
      <point x="1703" y="0" type="line"/>
      <point x="1703" y="769" type="line" smooth="yes"/>
      <point x="1703" y="1048"/>
      <point x="1574" y="1182"/>
      <point x="1331" y="1182" type="curve" smooth="yes"/>
      <point x="1087" y="1182"/>
      <point x="958" y="1052"/>
      <point x="958" y="801" type="curve" smooth="yes"/>
      <point x="958" y="717"/>
      <point x="967" y="611"/>
      <point x="967" y="527" type="curve" smooth="yes"/>
      <point x="967" y="276"/>
      <point x="855" y="157"/>
      <point x="627" y="157" type="curve" smooth="yes"/>
      <point x="371" y="157"/>
      <point x="239" y="303"/>
      <point x="239" y="598" type="curve" smooth="yes"/>
      <point x="239" y="607" type="line" smooth="yes"/>
      <point x="239" y="847"/>
      <point x="332" y="1013"/>
      <point x="503" y="1157" type="curve"/>
      <point x="455" y="1157" type="line"/>
      <point x="300" y="1031"/>
      <point x="198" y="862"/>
      <point x="198" y="607" type="curve" smooth="yes"/>
      <point x="198" y="598" type="line" smooth="yes"/>
      <point x="198" y="281"/>
      <point x="343" y="121"/>
      <point x="627" y="121" type="curve" smooth="yes"/>
      <point x="882" y="121"/>
      <point x="1007" y="255"/>
      <point x="1007" y="527" type="curve" smooth="yes"/>
      <point x="1007" y="611"/>
      <point x="998" y="717"/>
      <point x="998" y="801" type="curve" smooth="yes"/>
      <point x="998" y="1024"/>
      <point x="1110" y="1146"/>
      <point x="1331" y="1146" type="curve" smooth="yes"/>
      <point x="1549" y="1146"/>
      <point x="1664" y="1027"/>
      <point x="1664" y="769" type="curve" smooth="yes"/>
    </contour>
  </outline>
</glyph>
<glyph name="Va.gj" format="2">
  <advance width="1573"/>
  <unicode hex="0AB5"/>
  <anchor x="1254" y="-105" name="Bottom"/>
  <anchor x="1233" y="1253" name="Top"/>
  <anchor x="1272" y="1253" name="Top2"/>
  <outline>
    <contour>
      <point x="749" y="247" type="curve" smooth="yes"/>
      <point x="1032" y="247"/>
      <point x="1205" y="381"/>
      <point x="1258" y="527" type="curve"/>
      <point x="1262" y="527" type="line"/>
      <point x="1256" y="591" type="line"/>
      <point x="1199" y="408"/>
      <point x="1018" y="283"/>
      <point x="749" y="283" type="curve" smooth="yes"/>
      <point x="397" y="283"/>
      <point x="231" y="436"/>
      <point x="231" y="701" type="curve" smooth="yes"/>
      <point x="231" y="707" type="line" smooth="yes"/>
      <point x="231" y="972"/>
      <point x="390" y="1120"/>
      <point x="712" y="1120" type="curve" smooth="yes"/>
      <point x="861" y="1120"/>
      <point x="959" y="1093"/>
      <point x="1021" y="1064" type="curve"/>
      <point x="1016" y="1106" type="line"/>
      <point x="966" y="1126"/>
      <point x="872" y="1156"/>
      <point x="712" y="1156" type="curve" smooth="yes"/>
      <point x="366" y="1156"/>
      <point x="190" y="996"/>
      <point x="190" y="707" type="curve" smooth="yes"/>
      <point x="190" y="701" type="line" smooth="yes"/>
      <point x="190" y="409"/>
      <point x="370" y="247"/>
    </contour>
    <contour>
      <point x="1253" y="539" type="line"/>
      <point x="1292" y="539" type="line"/>
      <point x="1292" y="1157" type="line"/>
      <point x="1253" y="1157" type="line"/>
    </contour>
    <contour>
      <point x="1253" y="0" type="line"/>
      <point x="1292" y="0" type="line"/>
      <point x="1292" y="673" type="line"/>
      <point x="1253" y="673" type="line"/>
    </contour>
  </outline>
</glyph>
<glyph name="Sha.gj" format="2">
  <advance width="1896"/>
  <unicode hex="0AB6"/>
  <anchor x="1577" y="-105" name="Bottom"/>
  <anchor x="1556" y="1253" name="Top"/>
  <anchor x="1595" y="1253" name="Top2"/>
  <outline>
    <contour>
      <point x="1576" y="539" type="line"/>
      <point x="1615" y="539" type="line"/>
      <point x="1615" y="1157" type="line"/>
      <point x="1576" y="1157" type="line"/>
    </contour>
    <contour>
      <point x="1576" y="0" type="line"/>
      <point x="1615" y="0" type="line"/>
      <point x="1615" y="673" type="line"/>
      <point x="1576" y="673" type="line"/>
    </contour>
    <contour>
      <point x="333" y="433" type="line"/>
      <point x="340" y="439" type="line"/>
      <point x="595" y="439" type="line" smooth="yes"/>
      <point x="943" y="439"/>
      <point x="1121" y="565"/>
      <point x="1121" y="815" type="curve" smooth="yes"/>
      <point x="1121" y="821" type="line" smooth="yes"/>
      <point x="1121" y="1061"/>
      <point x="963" y="1182"/>
      <point x="657" y="1182" type="curve" smooth="yes"/>
      <point x="374" y="1182"/>
      <point x="226" y="1068"/>
      <point x="226" y="858" type="curve" smooth="yes"/>
      <point x="226" y="853" type="line" smooth="yes"/>
      <point x="226" y="771"/>
      <point x="256" y="719"/>
      <point x="287" y="673" type="curve"/>
      <point x="328" y="673" type="line"/>
      <point x="297" y="719"/>
      <point x="267" y="771"/>
      <point x="267" y="851" type="curve" smooth="yes"/>
      <point x="267" y="858" type="line" smooth="yes"/>
      <point x="267" y="1045"/>
      <point x="402" y="1146"/>
      <point x="659" y="1146" type="curve" smooth="yes"/>
      <point x="938" y="1146"/>
      <point x="1080" y="1034"/>
      <point x="1080" y="821" type="curve" smooth="yes"/>
      <point x="1080" y="817" type="line" smooth="yes"/>
      <point x="1080" y="587"/>
      <point x="917" y="473"/>
      <point x="591" y="473" type="curve" smooth="yes"/>
      <point x="116" y="473" type="line"/>
      <point x="116" y="441" type="line"/>
    </contour>
    <contour>
      <point x="863" y="-14" type="curve" smooth="yes"/>
      <point x="983" y="-14"/>
      <point x="1050" y="7"/>
      <point x="1089" y="25" type="curve"/>
      <point x="1095" y="68" type="line"/>
      <point x="1050" y="45"/>
      <point x="981" y="22"/>
      <point x="863" y="22" type="curve" smooth="yes"/>
      <point x="627" y="22"/>
      <point x="490" y="135"/>
      <point x="365" y="417" type="curve" smooth="yes"/>
      <point x="349" y="453" type="line"/>
      <point x="308" y="453" type="line"/>
      <point x="324" y="415" type="line" smooth="yes"/>
      <point x="451" y="114"/>
      <point x="598" y="-14"/>
    </contour>
  </outline>
</glyph>
<glyph name="Ssa.gj" format="2">
  <advance width="1575"/>
  <unicode hex="0AB7"/>
  <guideline x="1713" y="3486" angle="0"/>
  <guideline x="337" y="3615" angle="90"/>
  <guideline x="1294" y="-185" angle="90"/>
  <guideline x="1255" y="-185" angle="90"/>
  <guideline x="1256" y="-185" angle="90"/>
  <anchor x="1256" y="-105" name="Bottom"/>
  <anchor x="1235" y="1253" name="Top"/>
  <anchor x="1274" y="1253" name="Top2"/>
  <outline>
    <contour>
      <point x="1253" y="538" type="line"/>
      <point x="1257" y="577" type="line"/>
      <point x="253" y="1136" type="line"/>
      <point x="216" y="1127" type="line"/>
      <point x="250" y="1107"/>
      <point x="308" y="1064"/>
      <point x="397" y="1015" type="curve" smooth="yes"/>
    </contour>
    <contour>
      <point x="783" y="269" type="curve" smooth="yes"/>
      <point x="1057" y="269"/>
      <point x="1216" y="389"/>
      <point x="1261" y="526" type="curve"/>
      <point x="1265" y="526" type="line"/>
      <point x="1259" y="588" type="line"/>
      <point x="1198" y="413"/>
      <point x="1044" y="305"/>
      <point x="783" y="305" type="curve" smooth="yes"/>
      <point x="490" y="305"/>
      <point x="321" y="425"/>
      <point x="321" y="730" type="curve" smooth="yes"/>
      <point x="321" y="839" type="line"/>
      <point x="282" y="839" type="line"/>
      <point x="282" y="728" type="line" smooth="yes"/>
      <point x="282" y="399"/>
      <point x="467" y="269"/>
    </contour>
    <contour>
      <point x="282" y="781" type="line"/>
      <point x="321" y="781" type="line"/>
      <point x="321" y="956" type="line" smooth="yes"/>
      <point x="321" y="1095"/>
      <point x="266" y="1164"/>
      <point x="149" y="1164" type="curve" smooth="yes"/>
      <point x="117" y="1164"/>
      <point x="77" y="1159"/>
      <point x="49" y="1150" type="curve"/>
      <point x="44" y="1113" type="line"/>
      <point x="77" y="1123"/>
      <point x="113" y="1129"/>
      <point x="147" y="1129" type="curve" smooth="yes"/>
      <point x="238" y="1129"/>
      <point x="282" y="1073"/>
      <point x="282" y="956" type="curve" smooth="yes"/>
    </contour>
    <contour>
      <point x="1255" y="539" type="line"/>
      <point x="1294" y="539" type="line"/>
      <point x="1294" y="1157" type="line"/>
      <point x="1255" y="1157" type="line"/>
    </contour>
    <contour>
      <point x="1255" y="0" type="line"/>
      <point x="1294" y="0" type="line"/>
      <point x="1294" y="673" type="line"/>
      <point x="1255" y="673" type="line"/>
    </contour>
  </outline>
</glyph>
<glyph name="Sa.gj" format="2">
  <advance width="1843"/>
  <unicode hex="0AB8"/>
  <anchor x="1524" y="-105" name="Bottom"/>
  <anchor x="1503" y="1253" name="Top"/>
  <anchor x="1542" y="1253" name="Top2"/>
  <outline>
    <contour>
      <point x="1523" y="539" type="line"/>
      <point x="1562" y="539" type="line"/>
      <point x="1562" y="1157" type="line"/>
      <point x="1523" y="1157" type="line"/>
    </contour>
    <contour>
      <point x="1523" y="0" type="line"/>
      <point x="1562" y="0" type="line"/>
      <point x="1562" y="673" type="line"/>
      <point x="1523" y="673" type="line"/>
    </contour>
    <contour>
      <point x="320" y="487" type="line"/>
      <point x="327" y="494" type="line"/>
      <point x="457" y="494" type="line" smooth="yes"/>
      <point x="783" y="494"/>
      <point x="947" y="611"/>
      <point x="947" y="838" type="curve" smooth="yes"/>
      <point x="947" y="847" type="line" smooth="yes"/>
      <point x="947" y="1065"/>
      <point x="799" y="1182"/>
      <point x="537" y="1182" type="curve" smooth="yes"/>
      <point x="336" y="1182"/>
      <point x="221" y="1120"/>
      <point x="158" y="1080" type="curve"/>
      <point x="153" y="1038" type="line"/>
      <point x="231" y="1089"/>
      <point x="354" y="1146"/>
      <point x="537" y="1146" type="curve" smooth="yes"/>
      <point x="772" y="1146"/>
      <point x="906" y="1039"/>
      <point x="906" y="847" type="curve" smooth="yes"/>
      <point x="906" y="840" type="line" smooth="yes"/>
      <point x="906" y="632"/>
      <point x="755" y="528"/>
      <point x="454" y="528" type="curve" smooth="yes"/>
      <point x="114" y="528" type="line"/>
      <point x="114" y="496" type="line"/>
    </contour>
    <contour>
      <point x="852" y="-14" type="curve" smooth="yes"/>
      <point x="959" y="-14"/>
      <point x="1020" y="5"/>
      <point x="1054" y="21" type="curve"/>
      <point x="1059" y="63" type="line"/>
      <point x="1020" y="43"/>
      <point x="958" y="22"/>
      <point x="852" y="22" type="curve" smooth="yes"/>
      <point x="591" y="22"/>
      <point x="459" y="180"/>
      <point x="379" y="404" type="curve" smooth="yes"/>
      <point x="342" y="507" type="line"/>
      <point x="301" y="507" type="line"/>
      <point x="337" y="402" type="line" smooth="yes"/>
      <point x="420" y="160"/>
      <point x="567" y="-14"/>
    </contour>
    <contour>
      <point x="1048" y="579" type="curve" smooth="yes"/>
      <point x="1544" y="579" type="line"/>
      <point x="1537" y="613" type="line"/>
      <point x="1471" y="613"/>
      <point x="1405" y="613"/>
      <point x="1339" y="613" type="curve"/>
      <point x="813" y="613" type="line"/>
      <point x="813" y="588" type="line"/>
      <point x="892" y="579"/>
      <point x="970" y="579"/>
    </contour>
  </outline>
</glyph>
<glyph name="Ha.gj" format="2">
  <advance width="1537"/>
  <unicode hex="0AB9"/>
  <guideline x="761" y="1388" angle="90"/>
  <guideline x="991" y="1505" angle="90"/>
  <guideline x="801" y="1477" angle="90"/>
  <guideline x="939" y="-62" angle="0"/>
  <guideline x="879" y="-185" angle="0"/>
  <anchor x="875" y="-164" name="Bottom"/>
  <anchor x="987" y="1253" name="Top"/>
  <anchor x="797" y="1253" name="Top2"/>
  <outline>
    <contour>
      <point x="823" y="-73" type="curve" smooth="yes"/>
      <point x="1030" y="-73"/>
      <point x="1208" y="-34"/>
      <point x="1322" y="32" type="curve"/>
      <point x="1327" y="77" type="line"/>
      <point x="1206" y="5"/>
      <point x="1032" y="-37"/>
      <point x="825" y="-37" type="curve" smooth="yes"/>
      <point x="439" y="-37"/>
      <point x="241" y="101"/>
      <point x="241" y="365" type="curve" smooth="yes"/>
      <point x="241" y="424"/>
      <point x="247" y="475"/>
      <point x="263" y="530" type="curve"/>
      <point x="223" y="530" type="line"/>
      <point x="207" y="481"/>
      <point x="200" y="429"/>
      <point x="200" y="365" type="curve" smooth="yes"/>
      <point x="200" y="80"/>
      <point x="410" y="-73"/>
    </contour>
    <contour>
      <point x="1211" y="278" type="curve"/>
      <point x="1256" y="278" type="line"/>
      <point x="1300" y="324"/>
      <point x="1329" y="395"/>
      <point x="1329" y="457" type="curve" smooth="yes"/>
      <point x="1329" y="634"/>
      <point x="1195" y="678"/>
      <point x="973" y="684" type="curve" smooth="yes"/>
      <point x="636" y="691" type="line" smooth="yes"/>
      <point x="401" y="696"/>
      <point x="300" y="757"/>
      <point x="300" y="890" type="curve" smooth="yes"/>
      <point x="300" y="892" type="line" smooth="yes"/>
      <point x="300" y="1061"/>
      <point x="455" y="1146"/>
      <point x="755" y="1146" type="curve" smooth="yes"/>
      <point x="971" y="1146"/>
      <point x="1127" y="1093"/>
      <point x="1238" y="1029" type="curve"/>
      <point x="1231" y="1070" type="line"/>
      <point x="1142" y="1125"/>
      <point x="978" y="1182"/>
      <point x="755" y="1182" type="curve" smooth="yes"/>
      <point x="426" y="1182"/>
      <point x="259" y="1084"/>
      <point x="259" y="892" type="curve" smooth="yes"/>
      <point x="259" y="890" type="line" smooth="yes"/>
      <point x="259" y="732"/>
      <point x="371" y="660"/>
      <point x="634" y="655" type="curve" smooth="yes"/>
      <point x="971" y="648" type="line" smooth="yes"/>
      <point x="1168" y="644"/>
      <point x="1288" y="609"/>
      <point x="1288" y="457" type="curve" smooth="yes"/>
      <point x="1288" y="395"/>
      <point x="1263" y="338"/>
    </contour>
  </outline>
</glyph>
<glyph name="Nukta.gj" format="2">
  <unicode hex="0ABC"/>
  <guideline x="165" y="37" angle="270"/>
  <anchor x="147" y="-105" name="_Bottom"/>
  <outline>
    <contour>
      <point x="165" y="-222" type="curve" smooth="yes"/>
      <point x="211" y="-222"/>
      <point x="230" y="-197"/>
      <point x="230" y="-166" type="curve" smooth="yes"/>
      <point x="230" y="-161" type="line" smooth="yes"/>
      <point x="230" y="-130"/>
      <point x="210" y="-105"/>
      <point x="165" y="-105" type="curve" smooth="yes"/>
      <point x="120" y="-105"/>
      <point x="100" y="-130"/>
      <point x="100" y="-161" type="curve" smooth="yes"/>
      <point x="100" y="-166" type="line" smooth="yes"/>
      <point x="100" y="-197"/>
      <point x="120" y="-222"/>
    </contour>
  </outline>
</glyph>
<glyph name="Avagraha.gj" format="2">
  <advance width="1419"/>
  <unicode hex="0ABD"/>
  <outline>
    <contour>
      <point x="730" y="-14" type="curve" smooth="yes"/>
      <point x="1075" y="-14"/>
      <point x="1242" y="91"/>
      <point x="1242" y="306" type="curve" smooth="yes"/>
      <point x="1242" y="308" type="line" smooth="yes"/>
      <point x="1242" y="511"/>
      <point x="1125" y="600"/>
      <point x="732" y="637" type="curve" smooth="yes"/>
      <point x="668" y="643" type="line" smooth="yes"/>
      <point x="339" y="674"/>
      <point x="228" y="728"/>
      <point x="228" y="889" type="curve" smooth="yes"/>
      <point x="228" y="891" type="line" smooth="yes"/>
      <point x="228" y="1042"/>
      <point x="366" y="1121"/>
      <point x="634" y="1121" type="curve" smooth="yes"/>
      <point x="1147" y="1121" type="line"/>
      <point x="1139" y="1157" type="line"/>
      <point x="632" y="1157" type="line" smooth="yes"/>
      <point x="338" y="1157"/>
      <point x="187" y="1065"/>
      <point x="187" y="891" type="curve" smooth="yes"/>
      <point x="187" y="889" type="line" smooth="yes"/>
      <point x="187" y="696"/>
      <point x="321" y="640"/>
      <point x="659" y="608" type="curve" smooth="yes"/>
      <point x="723" y="602" type="line" smooth="yes"/>
      <point x="1094" y="567"/>
      <point x="1201" y="490"/>
      <point x="1201" y="308" type="curve" smooth="yes"/>
      <point x="1201" y="306" type="line" smooth="yes"/>
      <point x="1201" y="115"/>
      <point x="1046" y="22"/>
      <point x="732" y="22" type="curve" smooth="yes"/>
      <point x="482" y="22"/>
      <point x="308" y="88"/>
      <point x="160" y="174" type="curve"/>
      <point x="166" y="130" type="line"/>
      <point x="281" y="61"/>
      <point x="465" y="-14"/>
    </contour>
  </outline>
</glyph>
<glyph name="MatraI.gj" format="2">
  <advance width="601"/>
  <unicode hex="0ABF"/>
  <guideline x="3119" y="0" angle="0"/>
  <guideline x="281" y="861" angle="90"/>
  <guideline x="0" y="861" angle="90"/>
  <guideline x="601" y="861" angle="90"/>
  <guideline x="320" y="861" angle="90"/>
  <guideline x="867" y="1695" angle="0"/>
  <anchor x="282" y="-105" name="Bottom"/>
  <anchor x="261" y="1253" name="Top"/>
  <anchor x="300" y="1253" name="Top2"/>
  <outline>
    <contour>
      <point x="281" y="1153" type="curve"/>
      <point x="319" y="1153" type="line"/>
      <point x="319" y="1219"/>
      <point x="319" y="1187"/>
      <point x="319" y="1250" type="curve" smooth="yes"/>
      <point x="319" y="1545"/>
      <point x="469" y="1725"/>
      <point x="877" y="1725" type="curve" smooth="yes"/>
      <point x="1231" y="1725"/>
      <point x="1595" y="1544"/>
      <point x="1812" y="1253" type="curve"/>
      <point x="1838" y="1274" type="line"/>
      <point x="1609" y="1586"/>
      <point x="1238" y="1760"/>
      <point x="876" y="1760" type="curve" smooth="yes"/>
      <point x="458" y="1760"/>
      <point x="281" y="1585"/>
      <point x="281" y="1250" type="curve" smooth="yes"/>
      <point x="281" y="1186"/>
      <point x="281" y="1223"/>
    </contour>
    <contour>
      <point x="281" y="539" type="line"/>
      <point x="320" y="539" type="line"/>
      <point x="320" y="1157" type="line"/>
      <point x="281" y="1157" type="line"/>
    </contour>
    <contour>
      <point x="281" y="0" type="line"/>
      <point x="320" y="0" type="line"/>
      <point x="320" y="673" type="line"/>
      <point x="281" y="673" type="line"/>
    </contour>
  </outline>
</glyph>
<glyph name="MatraU.gj" format="2">
  <unicode hex="0AC1"/>
  <anchor x="850" y="-105" name="_Bottom"/>
  <outline>
    <contour>
      <point x="769" y="-664" type="curve" smooth="yes"/>
      <point x="1020" y="-664"/>
      <point x="1164" y="-558"/>
      <point x="1164" y="-389" type="curve" smooth="yes"/>
      <point x="1164" y="-380" type="line" smooth="yes"/>
      <point x="1164" y="-208"/>
      <point x="1043" y="-105"/>
      <point x="850" y="-105" type="curve" smooth="yes"/>
      <point x="731" y="-105"/>
      <point x="642" y="-132"/>
      <point x="560" y="-178" type="curve"/>
      <point x="555" y="-221" type="line"/>
      <point x="645" y="-166"/>
      <point x="741" y="-139"/>
      <point x="848" y="-139" type="curve" smooth="yes"/>
      <point x="1017" y="-139"/>
      <point x="1127" y="-223"/>
      <point x="1127" y="-380" type="curve" smooth="yes"/>
      <point x="1127" y="-389" type="line" smooth="yes"/>
      <point x="1127" y="-535"/>
      <point x="992" y="-630"/>
      <point x="766" y="-630" type="curve" smooth="yes"/>
      <point x="489" y="-630"/>
      <point x="280" y="-485"/>
      <point x="142" y="-228" type="curve"/>
      <point x="100" y="-228" type="line"/>
      <point x="250" y="-513"/>
      <point x="466" y="-664"/>
    </contour>
  </outline>
</glyph>
<glyph name="MatraUu.gj" format="2">
  <unicode hex="0AC2"/>
  <anchor x="478" y="-105" name="_Bottom"/>
  <outline>
    <contour>
      <point x="1123" y="-671" type="curve"/>
      <point x="1163" y="-671" type="line"/>
      <point x="1019" y="-326"/>
      <point x="831" y="-105"/>
      <point x="480" y="-105" type="curve" smooth="yes"/>
      <point x="253" y="-105"/>
      <point x="100" y="-207"/>
      <point x="100" y="-386" type="curve" smooth="yes"/>
      <point x="100" y="-395" type="line" smooth="yes"/>
      <point x="100" y="-562"/>
      <point x="243" y="-661"/>
      <point x="450" y="-661" type="curve" smooth="yes"/>
      <point x="569" y="-661"/>
      <point x="665" y="-636"/>
      <point x="739" y="-591" type="curve"/>
      <point x="744" y="-548" type="line"/>
      <point x="657" y="-604"/>
      <point x="561" y="-627"/>
      <point x="450" y="-627" type="curve" smooth="yes"/>
      <point x="262" y="-627"/>
      <point x="137" y="-541"/>
      <point x="137" y="-395" type="curve" smooth="yes"/>
      <point x="137" y="-388" type="line" smooth="yes"/>
      <point x="137" y="-224"/>
      <point x="280" y="-139"/>
      <point x="482" y="-139" type="curve" smooth="yes"/>
      <point x="813" y="-139"/>
      <point x="986" y="-350"/>
    </contour>
  </outline>
</glyph>
<glyph name="MatraRu.gj" format="2">
  <unicode hex="0AC3"/>
  <guideline x="3018" y="-1580" angle="262.5686"/>
  <guideline x="584" y="71" angle="90"/>
  <guideline x="504" y="71" angle="90"/>
  <anchor x="584" y="-105" name="_Bottom"/>
  <outline>
    <contour>
      <point x="488" y="-664" type="curve" smooth="yes"/>
      <point x="649" y="-664"/>
      <point x="763" y="-628"/>
      <point x="857" y="-559" type="curve"/>
      <point x="862" y="-512" type="line"/>
      <point x="761" y="-594"/>
      <point x="643" y="-630"/>
      <point x="487" y="-630" type="curve" smooth="yes"/>
      <point x="271" y="-630"/>
      <point x="137" y="-537"/>
      <point x="137" y="-383" type="curve" smooth="yes"/>
      <point x="137" y="-371" type="line" smooth="yes"/>
      <point x="137" y="-216"/>
      <point x="261" y="-140"/>
      <point x="510" y="-140" type="curve" smooth="yes"/>
      <point x="711" y="-140" type="line"/>
      <point x="711" y="-106" type="line"/>
      <point x="504" y="-106" type="line" smooth="yes"/>
      <point x="234" y="-106"/>
      <point x="100" y="-197"/>
      <point x="100" y="-369" type="curve" smooth="yes"/>
      <point x="100" y="-384" type="line" smooth="yes"/>
      <point x="100" y="-555"/>
      <point x="250" y="-664"/>
    </contour>
  </outline>
</glyph>
<glyph name="MatraRuu.gj" format="2">
  <unicode hex="0AC4"/>
  <guideline x="512" y="-871" angle="0"/>
  <guideline x="530" y="29" angle="90"/>
  <guideline x="469" y="29" angle="90"/>
  <anchor x="530" y="-105" name="_Bottom"/>
  <outline>
    <contour>
      <point x="457" y="-526" type="curve" smooth="yes"/>
      <point x="605" y="-526"/>
      <point x="710" y="-498"/>
      <point x="797" y="-446" type="curve"/>
      <point x="800" y="-407" type="line"/>
      <point x="708" y="-469"/>
      <point x="599" y="-496"/>
      <point x="456" y="-496" type="curve" smooth="yes"/>
      <point x="258" y="-496"/>
      <point x="134" y="-428"/>
      <point x="134" y="-315" type="curve" smooth="yes"/>
      <point x="134" y="-306" type="line" smooth="yes"/>
      <point x="134" y="-191"/>
      <point x="247" y="-135"/>
      <point x="474" y="-135" type="curve" smooth="yes"/>
      <point x="656" y="-135" type="line"/>
      <point x="656" y="-105" type="line"/>
      <point x="469" y="-105" type="line" smooth="yes"/>
      <point x="223" y="-105"/>
      <point x="100" y="-174"/>
      <point x="100" y="-304" type="curve" smooth="yes"/>
      <point x="100" y="-316" type="line" smooth="yes"/>
      <point x="100" y="-403"/>
      <point x="164" y="-469"/>
      <point x="275" y="-501" type="curve"/>
      <point x="296" y="-507" type="line"/>
      <point x="342" y="-520"/>
      <point x="397" y="-526"/>
    </contour>
    <contour>
      <point x="457" y="-871" type="curve" smooth="yes"/>
      <point x="605" y="-871"/>
      <point x="710" y="-843"/>
      <point x="797" y="-791" type="curve"/>
      <point x="800" y="-752" type="line"/>
      <point x="708" y="-814"/>
      <point x="599" y="-841"/>
      <point x="456" y="-841" type="curve" smooth="yes"/>
      <point x="258" y="-841"/>
      <point x="134" y="-775"/>
      <point x="134" y="-665" type="curve" smooth="yes"/>
      <point x="134" y="-656" type="line" smooth="yes"/>
      <point x="134" y="-563"/>
      <point x="212" y="-519"/>
      <point x="344" y="-510" type="curve"/>
      <point x="298" y="-487" type="line"/>
      <point x="298" y="-492" type="line"/>
      <point x="178" y="-504"/>
      <point x="100" y="-559"/>
      <point x="100" y="-655" type="curve" smooth="yes"/>
      <point x="100" y="-666" type="line" smooth="yes"/>
      <point x="100" y="-791"/>
      <point x="238" y="-871"/>
    </contour>
  </outline>
</glyph>
<glyph name="MatraChandraE.gj" format="2">
  <unicode hex="0AC5"/>
  <anchor x="915" y="1253" name="_Top"/>
  <outline>
    <contour>
      <point x="952" y="1253" type="curve" smooth="yes"/>
      <point x="1029" y="1253"/>
      <point x="1083" y="1282"/>
      <point x="1111" y="1308" type="curve"/>
      <point x="1111" y="1345" type="line"/>
      <point x="1082" y="1314"/>
      <point x="1023" y="1285"/>
      <point x="952" y="1285" type="curve" smooth="yes"/>
      <point x="867" y="1285"/>
      <point x="808" y="1298"/>
      <point x="669" y="1397" type="curve" smooth="yes"/>
      <point x="123" y="1786" type="line"/>
      <point x="100" y="1755" type="line"/>
      <point x="644" y="1374" type="line" smooth="yes"/>
      <point x="785" y="1275"/>
      <point x="859" y="1253"/>
    </contour>
  </outline>
</glyph>
<glyph name="MatraE.gj" format="2">
  <unicode hex="0AC7"/>
  <anchor x="973" y="1253" name="_Top"/>
  <outline>
    <contour>
      <point x="973" y="1253" type="curve"/>
      <point x="991" y="1279" type="line"/>
      <point x="707" y="1448"/>
      <point x="423" y="1617"/>
      <point x="139" y="1786" type="curve"/>
      <point x="120" y="1754" type="line"/>
      <point x="404" y="1587"/>
      <point x="689" y="1419"/>
    </contour>
  </outline>
</glyph>
<glyph name="MatraAi.gj" format="2">
  <unicode hex="0AC8"/>
  <anchor x="953" y="1253" name="_Top"/>
  <outline>
    <contour>
      <point x="953" y="1253" type="line"/>
      <point x="978" y="1285" type="line"/>
      <point x="440" y="2003" type="line"/>
      <point x="410" y="1979" type="line"/>
      <point x="939" y="1291" type="line"/>
      <point x="938" y="1289" type="line"/>
      <point x="85" y="1595" type="line"/>
      <point x="72" y="1561" type="line"/>
    </contour>
  </outline>
</glyph>
<glyph name="MatraChandraO.gj" format="2">
  <advance width="601"/>
  <unicode hex="0AC9"/>
  <anchor x="282" y="-105" name="Bottom"/>
  <anchor x="261" y="1253" name="Top"/>
  <anchor x="300" y="1253" name="Top2"/>
  <outline>
    <contour>
      <point x="281" y="539" type="line"/>
      <point x="320" y="539" type="line"/>
      <point x="320" y="1157" type="line"/>
      <point x="281" y="1157" type="line"/>
    </contour>
    <contour>
      <point x="281" y="0" type="line"/>
      <point x="320" y="0" type="line"/>
      <point x="320" y="673" type="line"/>
      <point x="281" y="673" type="line"/>
    </contour>
    <contour>
      <point x="298" y="1253" type="curve" smooth="yes"/>
      <point x="375" y="1253"/>
      <point x="429" y="1282"/>
      <point x="457" y="1308" type="curve"/>
      <point x="457" y="1345" type="line"/>
      <point x="428" y="1314"/>
      <point x="369" y="1285"/>
      <point x="298" y="1285" type="curve" smooth="yes"/>
      <point x="213" y="1285"/>
      <point x="154" y="1298"/>
      <point x="15" y="1397" type="curve" smooth="yes"/>
      <point x="-531" y="1786" type="line"/>
      <point x="-554" y="1755" type="line"/>
      <point x="-10" y="1374" type="line" smooth="yes"/>
      <point x="131" y="1275"/>
      <point x="205" y="1253"/>
    </contour>
  </outline>
</glyph>
<glyph name="MatraO.gj" format="2">
  <advance width="601"/>
  <unicode hex="0ACB"/>
  <anchor x="282" y="-105" name="Bottom"/>
  <anchor x="261" y="1253" name="Top"/>
  <anchor x="300" y="1253" name="Top2"/>
  <outline>
    <contour>
      <point x="281" y="539" type="line"/>
      <point x="320" y="539" type="line"/>
      <point x="320" y="1157" type="line"/>
      <point x="281" y="1157" type="line"/>
    </contour>
    <contour>
      <point x="281" y="0" type="line"/>
      <point x="320" y="0" type="line"/>
      <point x="320" y="673" type="line"/>
      <point x="281" y="673" type="line"/>
    </contour>
    <contour>
      <point x="261" y="1253" type="curve"/>
      <point x="279" y="1279" type="line"/>
      <point x="-5" y="1448"/>
      <point x="-289" y="1617"/>
      <point x="-573" y="1786" type="curve"/>
      <point x="-592" y="1754" type="line"/>
      <point x="-308" y="1587"/>
      <point x="-23" y="1419"/>
    </contour>
  </outline>
</glyph>
<glyph name="MatraAu.gj" format="2">
  <advance width="601"/>
  <unicode hex="0ACC"/>
  <anchor x="282" y="-105" name="Bottom"/>
  <anchor x="261" y="1253" name="Top"/>
  <anchor x="300" y="1253" name="Top2"/>
  <outline>
    <contour>
      <point x="281" y="539" type="line"/>
      <point x="320" y="539" type="line"/>
      <point x="320" y="1157" type="line"/>
      <point x="281" y="1157" type="line"/>
    </contour>
    <contour>
      <point x="281" y="0" type="line"/>
      <point x="320" y="0" type="line"/>
      <point x="320" y="673" type="line"/>
      <point x="281" y="673" type="line"/>
    </contour>
    <contour>
      <point x="261" y="1253" type="line"/>
      <point x="286" y="1285" type="line"/>
      <point x="-252" y="2003" type="line"/>
      <point x="-282" y="1979" type="line"/>
      <point x="247" y="1291" type="line"/>
      <point x="246" y="1289" type="line"/>
      <point x="-607" y="1595" type="line"/>
      <point x="-620" y="1561" type="line"/>
    </contour>
  </outline>
</glyph>
<glyph name="Halant.gj" format="2">
  <unicode hex="0ACD"/>
  <anchor x="100" y="-105" name="_Bottom"/>
  <outline>
    <contour>
      <point x="560" y="-589" type="line"/>
      <point x="579" y="-569" type="line"/>
      <point x="125" y="-138" type="line"/>
      <point x="98" y="-166" type="line"/>
    </contour>
  </outline>
</glyph>
<glyph name="Om.gj" format="2">
  <advance width="2355"/>
  <unicode hex="0AD0"/>
  <anchor x="1610" y="1127" name="_Top2"/>
  <outline>
    <contour>
      <point x="1782" y="73" type="curve" smooth="yes"/>
      <point x="2088" y="73"/>
      <point x="2227" y="223"/>
      <point x="2227" y="506" type="curve" smooth="yes"/>
      <point x="2227" y="518" type="line" smooth="yes"/>
      <point x="2227" y="799"/>
      <point x="2104" y="967"/>
      <point x="1824" y="967" type="curve" smooth="yes"/>
      <point x="1617" y="967"/>
      <point x="1515" y="899"/>
      <point x="1437" y="720" type="curve" smooth="yes"/>
      <point x="1423" y="688" type="line" smooth="yes"/>
      <point x="1363" y="552"/>
      <point x="1322" y="501"/>
      <point x="1200" y="501" type="curve" smooth="yes"/>
      <point x="1129" y="501"/>
      <point x="1068" y="524"/>
      <point x="1030" y="539" type="curve"/>
      <point x="1030" y="518" type="line"/>
      <point x="1076" y="494"/>
      <point x="1134" y="467"/>
      <point x="1200" y="467" type="curve" smooth="yes"/>
      <point x="1336" y="467"/>
      <point x="1387" y="520"/>
      <point x="1454" y="671" type="curve" smooth="yes"/>
      <point x="1470" y="707" type="line" smooth="yes"/>
      <point x="1542" y="869"/>
      <point x="1630" y="931"/>
      <point x="1824" y="931" type="curve" smooth="yes"/>
      <point x="2083" y="931"/>
      <point x="2186" y="774"/>
      <point x="2186" y="518" type="curve" smooth="yes"/>
      <point x="2186" y="506" type="line" smooth="yes"/>
      <point x="2186" y="239"/>
      <point x="2057" y="109"/>
      <point x="1782" y="109" type="curve" smooth="yes"/>
      <point x="1632" y="109"/>
      <point x="1524" y="150"/>
      <point x="1457" y="184" type="curve"/>
      <point x="1462" y="142" type="line"/>
      <point x="1516" y="117"/>
      <point x="1619" y="73"/>
    </contour>
    <contour>
      <point x="1610" y="1182" type="curve" smooth="yes"/>
      <point x="1848" y="1182"/>
      <point x="1981" y="1285"/>
      <point x="1981" y="1477" type="curve" smooth="yes"/>
      <point x="1981" y="1484"/>
      <point x="1981" y="1490"/>
      <point x="1981" y="1498" type="curve"/>
      <point x="1947" y="1498" type="line"/>
      <point x="1947" y="1477" type="line" smooth="yes"/>
      <point x="1947" y="1303"/>
      <point x="1826" y="1215"/>
      <point x="1610" y="1215" type="curve" smooth="yes"/>
      <point x="1392" y="1215"/>
      <point x="1273" y="1303"/>
      <point x="1273" y="1477" type="curve" smooth="yes"/>
      <point x="1273" y="1498" type="line"/>
      <point x="1239" y="1498" type="line"/>
      <point x="1239" y="1490"/>
      <point x="1239" y="1484"/>
      <point x="1239" y="1477" type="curve" smooth="yes"/>
      <point x="1239" y="1285"/>
      <point x="1369" y="1182"/>
    </contour>
    <contour>
      <point x="1610" y="1450" type="curve" smooth="yes"/>
      <point x="1652" y="1450"/>
      <point x="1673" y="1474"/>
      <point x="1673" y="1506" type="curve" smooth="yes"/>
      <point x="1673" y="1509" type="line" smooth="yes"/>
      <point x="1673" y="1539"/>
      <point x="1652" y="1563"/>
      <point x="1610" y="1563" type="curve" smooth="yes"/>
      <point x="1568" y="1563"/>
      <point x="1547" y="1539"/>
      <point x="1547" y="1509" type="curve" smooth="yes"/>
      <point x="1547" y="1506" type="line" smooth="yes"/>
      <point x="1547" y="1474"/>
      <point x="1568" y="1450"/>
    </contour>
    <contour>
      <point x="628" y="-14" type="curve" smooth="yes"/>
      <point x="970" y="-14"/>
      <point x="1146" y="101"/>
      <point x="1146" y="315" type="curve" smooth="yes"/>
      <point x="1146" y="317" type="line" smooth="yes"/>
      <point x="1146" y="502"/>
      <point x="1015" y="589"/>
      <point x="799" y="609" type="curve"/>
      <point x="799" y="611" type="line"/>
      <point x="999" y="625"/>
      <point x="1122" y="696"/>
      <point x="1122" y="876" type="curve" smooth="yes"/>
      <point x="1122" y="878" type="line" smooth="yes"/>
      <point x="1122" y="1075"/>
      <point x="954" y="1182"/>
      <point x="627" y="1182" type="curve" smooth="yes"/>
      <point x="410" y="1182"/>
      <point x="248" y="1125"/>
      <point x="160" y="1070" type="curve"/>
      <point x="153" y="1029" type="line"/>
      <point x="262" y="1093"/>
      <point x="415" y="1146"/>
      <point x="627" y="1146" type="curve" smooth="yes"/>
      <point x="926" y="1146"/>
      <point x="1081" y="1056"/>
      <point x="1081" y="878" type="curve" smooth="yes"/>
      <point x="1081" y="876" type="line" smooth="yes"/>
      <point x="1081" y="685"/>
      <point x="927" y="628"/>
      <point x="646" y="627" type="curve" smooth="yes"/>
      <point x="322" y="625" type="line"/>
      <point x="322" y="593" type="line"/>
      <point x="646" y="591" type="line" smooth="yes"/>
      <point x="944" y="589"/>
      <point x="1105" y="511"/>
      <point x="1105" y="317" type="curve" smooth="yes"/>
      <point x="1105" y="315" type="line" smooth="yes"/>
      <point x="1105" y="120"/>
      <point x="942" y="22"/>
      <point x="627" y="22" type="curve" smooth="yes"/>
      <point x="369" y="22"/>
      <point x="214" y="93"/>
      <point x="116" y="164" type="curve"/>
      <point x="121" y="117" type="line"/>
      <point x="207" y="59"/>
      <point x="360" y="-14"/>
    </contour>
  </outline>
</glyph>
<glyph name="VowelRuu.gj" format="2">
  <advance width="2283"/>
  <unicode hex="0AE0"/>
  <guideline x="2754" y="3329" angle="0"/>
  <guideline x="4235" y="606" angle="0"/>
  <anchor x="1132" y="-105" name="Bottom"/>
  <anchor x="1111" y="1253" name="Top"/>
  <anchor x="1150" y="1253" name="Top2"/>
  <outline>
    <contour>
      <point x="1907" y="13" type="curve" smooth="yes"/>
      <point x="2008" y="13"/>
      <point x="2089" y="35"/>
      <point x="2149" y="72" type="curve"/>
      <point x="2155" y="114" type="line"/>
      <point x="2084" y="70"/>
      <point x="2005" y="47"/>
      <point x="1909" y="47" type="curve" smooth="yes"/>
      <point x="1745" y="47"/>
      <point x="1645" y="120"/>
      <point x="1645" y="251" type="curve" smooth="yes"/>
      <point x="1645" y="256" type="line" smooth="yes"/>
      <point x="1645" y="407"/>
      <point x="1762" y="475"/>
      <point x="2068" y="475" type="curve"/>
      <point x="2068" y="507" type="line"/>
      <point x="1935" y="583"/>
      <point x="1837" y="653"/>
      <point x="1771" y="757" type="curve"/>
      <point x="1740" y="744" type="line"/>
      <point x="1814" y="635"/>
      <point x="1914" y="557"/>
      <point x="2020" y="505" type="curve"/>
      <point x="2020" y="502" type="line"/>
      <point x="1741" y="504"/>
      <point x="1607" y="423"/>
      <point x="1607" y="256" type="curve" smooth="yes"/>
      <point x="1607" y="249" type="line" smooth="yes"/>
      <point x="1607" y="103"/>
      <point x="1721" y="13"/>
    </contour>
    <contour>
      <point x="448" y="299" type="curve"/>
      <point x="498" y="294" type="line"/>
      <point x="498" y="301" type="line"/>
      <point x="667" y="374"/>
      <point x="752" y="509"/>
      <point x="752" y="684" type="curve" smooth="yes"/>
      <point x="752" y="691" type="line" smooth="yes"/>
      <point x="752" y="886"/>
      <point x="635" y="999"/>
      <point x="428" y="999" type="curve" smooth="yes"/>
      <point x="318" y="999"/>
      <point x="231" y="972"/>
      <point x="161" y="927" type="curve"/>
      <point x="154" y="885" type="line"/>
      <point x="231" y="935"/>
      <point x="320" y="963"/>
      <point x="428" y="963" type="curve" smooth="yes"/>
      <point x="610" y="963"/>
      <point x="711" y="863"/>
      <point x="711" y="691" type="curve" smooth="yes"/>
      <point x="711" y="684" type="line" smooth="yes"/>
      <point x="711" y="495"/>
      <point x="621" y="379"/>
    </contour>
    <contour>
      <point x="158" y="169" type="line"/>
      <point x="1146" y="502" type="line"/>
      <point x="1146" y="539" type="line"/>
      <point x="770" y="413" type="line" smooth="yes"/>
      <point x="697" y="388"/>
      <point x="624" y="361"/>
      <point x="551" y="335" type="curve"/>
      <point x="523" y="329" type="line"/>
      <point x="158" y="206" type="line"/>
    </contour>
    <contour>
      <point x="1158" y="506" type="line"/>
      <point x="1781" y="717" type="line"/>
      <point x="1781" y="755" type="line"/>
      <point x="1158" y="543" type="line"/>
    </contour>
    <contour>
      <point x="1738" y="721" type="line"/>
      <point x="1783" y="721" type="line"/>
      <point x="1815" y="778" type="line"/>
      <point x="1802" y="870"/>
      <point x="1794" y="938"/>
      <point x="1786" y="1029" type="curve"/>
      <point x="1738" y="1029" type="line"/>
    </contour>
    <contour>
      <point x="1131" y="539" type="line"/>
      <point x="1170" y="539" type="line"/>
      <point x="1170" y="1157" type="line"/>
      <point x="1131" y="1157" type="line"/>
    </contour>
    <contour>
      <point x="1131" y="0" type="line"/>
      <point x="1170" y="0" type="line"/>
      <point x="1170" y="673" type="line"/>
      <point x="1131" y="673" type="line"/>
    </contour>
  </outline>
</glyph>
<glyph name="MatraLru.gj" format="2">
  <unicode hex="0AE2"/>
  <anchor x="813" y="-105" name="_Bottom"/>
  <outline>
    <contour>
      <point x="274" y="-647" type="curve"/>
      <point x="327" y="-647" type="line"/>
      <point x="196" y="-560"/>
      <point x="135" y="-467"/>
      <point x="135" y="-353" type="curve" smooth="yes"/>
      <point x="135" y="-349" type="line" smooth="yes"/>
      <point x="135" y="-213"/>
      <point x="231" y="-135"/>
      <point x="352" y="-135" type="curve" smooth="yes"/>
      <point x="475" y="-135"/>
      <point x="551" y="-197"/>
      <point x="553" y="-329" type="curve" smooth="yes"/>
      <point x="555" y="-466" type="line"/>
      <point x="586" y="-466" type="line"/>
      <point x="589" y="-329" type="line" smooth="yes"/>
      <point x="592" y="-195"/>
      <point x="679" y="-137"/>
      <point x="805" y="-137" type="curve" smooth="yes"/>
      <point x="929" y="-137"/>
      <point x="1003" y="-217"/>
      <point x="1003" y="-318" type="curve" smooth="yes"/>
      <point x="1003" y="-322" type="line"/>
      <point x="1038" y="-320" type="line"/>
      <point x="1038" y="-316" type="line" smooth="yes"/>
      <point x="1038" y="-198"/>
      <point x="946" y="-105"/>
      <point x="805" y="-105" type="curve" smooth="yes"/>
      <point x="670" y="-105"/>
      <point x="588" y="-169"/>
      <point x="573" y="-268" type="curve"/>
      <point x="570" y="-268" type="line"/>
      <point x="556" y="-168"/>
      <point x="485" y="-103"/>
      <point x="351" y="-103" type="curve" smooth="yes"/>
      <point x="203" y="-103"/>
      <point x="100" y="-200"/>
      <point x="100" y="-348" type="curve" smooth="yes"/>
      <point x="100" y="-353" type="line" smooth="yes"/>
      <point x="100" y="-472"/>
      <point x="165" y="-570"/>
    </contour>
    <contour>
      <point x="886" y="-845" type="curve" smooth="yes"/>
      <point x="954" y="-845"/>
      <point x="1007" y="-829"/>
      <point x="1041" y="-802" type="curve"/>
      <point x="1043" y="-766" type="line"/>
      <point x="1001" y="-798"/>
      <point x="947" y="-814"/>
      <point x="885" y="-814" type="curve" smooth="yes"/>
      <point x="801" y="-814"/>
      <point x="738" y="-783"/>
      <point x="738" y="-708" type="curve" smooth="yes"/>
      <point x="738" y="-642"/>
      <point x="793" y="-605"/>
      <point x="881" y="-549" type="curve" smooth="yes"/>
      <point x="988" y="-481"/>
      <point x="1038" y="-429"/>
      <point x="1038" y="-322" type="curve" smooth="yes"/>
      <point x="1038" y="-318" type="line"/>
      <point x="1003" y="-320" type="line"/>
      <point x="1003" y="-322" type="line"/>
      <point x="1003" y="-419"/>
      <point x="959" y="-462"/>
      <point x="858" y="-525" type="curve" smooth="yes"/>
      <point x="756" y="-589"/>
      <point x="705" y="-633"/>
      <point x="705" y="-708" type="curve" smooth="yes"/>
      <point x="705" y="-793"/>
      <point x="777" y="-845"/>
    </contour>
  </outline>
</glyph>
<glyph name="MatraLruu.gj" format="2">
  <unicode hex="0AE3"/>
  <anchor x="813" y="-105" name="_Bottom"/>
  <outline>
    <contour>
      <point x="274" y="-647" type="curve"/>
      <point x="327" y="-647" type="line"/>
      <point x="196" y="-560"/>
      <point x="135" y="-467"/>
      <point x="135" y="-353" type="curve" smooth="yes"/>
      <point x="135" y="-349" type="line" smooth="yes"/>
      <point x="135" y="-213"/>
      <point x="231" y="-135"/>
      <point x="352" y="-135" type="curve" smooth="yes"/>
      <point x="475" y="-135"/>
      <point x="551" y="-197"/>
      <point x="553" y="-329" type="curve" smooth="yes"/>
      <point x="555" y="-466" type="line"/>
      <point x="586" y="-466" type="line"/>
      <point x="589" y="-329" type="line" smooth="yes"/>
      <point x="592" y="-195"/>
      <point x="679" y="-137"/>
      <point x="805" y="-137" type="curve" smooth="yes"/>
      <point x="929" y="-137"/>
      <point x="1003" y="-217"/>
      <point x="1003" y="-318" type="curve" smooth="yes"/>
      <point x="1003" y="-322" type="line"/>
      <point x="1038" y="-320" type="line"/>
      <point x="1038" y="-316" type="line" smooth="yes"/>
      <point x="1038" y="-198"/>
      <point x="946" y="-105"/>
      <point x="805" y="-105" type="curve" smooth="yes"/>
      <point x="670" y="-105"/>
      <point x="588" y="-169"/>
      <point x="573" y="-268" type="curve"/>
      <point x="570" y="-268" type="line"/>
      <point x="556" y="-168"/>
      <point x="485" y="-103"/>
      <point x="351" y="-103" type="curve" smooth="yes"/>
      <point x="203" y="-103"/>
      <point x="100" y="-200"/>
      <point x="100" y="-348" type="curve" smooth="yes"/>
      <point x="100" y="-353" type="line" smooth="yes"/>
      <point x="100" y="-472"/>
      <point x="165" y="-570"/>
    </contour>
    <contour>
      <point x="874" y="-843" type="curve" smooth="yes"/>
      <point x="943" y="-843"/>
      <point x="1005" y="-828"/>
      <point x="1051" y="-794" type="curve"/>
      <point x="1053" y="-759" type="line"/>
      <point x="1001" y="-798"/>
      <point x="939" y="-814"/>
      <point x="876" y="-814" type="curve" smooth="yes"/>
      <point x="779" y="-814"/>
      <point x="725" y="-777"/>
      <point x="725" y="-709" type="curve" smooth="yes"/>
      <point x="725" y="-639"/>
      <point x="786" y="-605"/>
      <point x="893" y="-541" type="curve" smooth="yes"/>
      <point x="996" y="-479"/>
      <point x="1038" y="-424"/>
      <point x="1038" y="-322" type="curve" smooth="yes"/>
      <point x="1038" y="-317" type="line"/>
      <point x="1003" y="-320" type="line"/>
      <point x="1003" y="-323" type="line" smooth="yes"/>
      <point x="1003" y="-416"/>
      <point x="963" y="-463"/>
      <point x="865" y="-521" type="curve" smooth="yes"/>
      <point x="746" y="-592"/>
      <point x="694" y="-631"/>
      <point x="694" y="-710" type="curve" smooth="yes"/>
      <point x="694" y="-788"/>
      <point x="758" y="-843"/>
    </contour>
    <contour>
      <point x="894" y="-1097" type="curve" smooth="yes"/>
      <point x="970" y="-1097"/>
      <point x="1026" y="-1077"/>
      <point x="1068" y="-1046" type="curve"/>
      <point x="1070" y="-1011" type="line"/>
      <point x="1023" y="-1048"/>
      <point x="961" y="-1069"/>
      <point x="894" y="-1069" type="curve" smooth="yes"/>
      <point x="802" y="-1069"/>
      <point x="734" y="-1028"/>
      <point x="734" y="-955" type="curve" smooth="yes"/>
      <point x="734" y="-895"/>
      <point x="772" y="-861"/>
      <point x="849" y="-840" type="curve"/>
      <point x="815" y="-826" type="line"/>
      <point x="814" y="-830" type="line"/>
      <point x="744" y="-849"/>
      <point x="703" y="-889"/>
      <point x="703" y="-956" type="curve" smooth="yes"/>
      <point x="703" y="-1043"/>
      <point x="780" y="-1097"/>
    </contour>
  </outline>
</glyph>
<glyph name="Zero.gj" format="2">
  <advance width="1656"/>
  <unicode hex="0AE6"/>
  <guideline x="1053" y="944" angle="0"/>
  <guideline x="1053" y="834" angle="0"/>
  <guideline x="1053" y="3224" angle="0"/>
  <guideline x="1053" y="1871" angle="0"/>
  <guideline x="1053" y="1982" angle="0"/>
  <outline>
    <contour>
      <point x="828" y="1182" type="curve" smooth="yes"/>
      <point x="429" y="1182"/>
      <point x="214" y="976"/>
      <point x="214" y="590" type="curve" smooth="yes"/>
      <point x="214" y="585" type="line"/>
      <point x="255" y="585" type="line"/>
      <point x="255" y="590" type="line" smooth="yes"/>
      <point x="255" y="954"/>
      <point x="454" y="1146"/>
      <point x="828" y="1146" type="curve" smooth="yes"/>
      <point x="1202" y="1146"/>
      <point x="1401" y="954"/>
      <point x="1401" y="590" type="curve" smooth="yes"/>
      <point x="1401" y="585" type="line"/>
      <point x="1442" y="585" type="line"/>
      <point x="1442" y="590" type="line" smooth="yes"/>
      <point x="1442" y="976"/>
      <point x="1227" y="1182"/>
    </contour>
    <contour>
      <point x="828" y="-14" type="curve" smooth="yes"/>
      <point x="1227" y="-14"/>
      <point x="1442" y="191"/>
      <point x="1442" y="578" type="curve" smooth="yes"/>
      <point x="1442" y="587" type="line"/>
      <point x="1401" y="587" type="line"/>
      <point x="1401" y="578" type="line" smooth="yes"/>
      <point x="1401" y="214"/>
      <point x="1202" y="22"/>
      <point x="828" y="22" type="curve" smooth="yes"/>
      <point x="454" y="22"/>
      <point x="255" y="214"/>
      <point x="255" y="578" type="curve" smooth="yes"/>
      <point x="255" y="587" type="line"/>
      <point x="214" y="587" type="line"/>
      <point x="214" y="578" type="line" smooth="yes"/>
      <point x="214" y="191"/>
      <point x="429" y="-14"/>
    </contour>
  </outline>
</glyph>
<glyph name="One.gj" format="2">
  <advance width="1443"/>
  <unicode hex="0AE7"/>
  <outline>
    <contour>
      <point x="659" y="395" type="curve" smooth="yes"/>
      <point x="928" y="395"/>
      <point x="1084" y="528"/>
      <point x="1128" y="680" type="curve"/>
      <point x="1132" y="680" type="line"/>
      <point x="1126" y="744" type="line"/>
      <point x="1066" y="551"/>
      <point x="915" y="431"/>
      <point x="659" y="431" type="curve" smooth="yes"/>
      <point x="370" y="431"/>
      <point x="203" y="531"/>
      <point x="203" y="786" type="curve" smooth="yes"/>
      <point x="203" y="792" type="line" smooth="yes"/>
      <point x="203" y="1025"/>
      <point x="367" y="1146"/>
      <point x="659" y="1146" type="curve" smooth="yes"/>
      <point x="957" y="1146"/>
      <point x="1125" y="1011"/>
      <point x="1125" y="752" type="curve" smooth="yes"/>
      <point x="1125" y="696" type="line"/>
      <point x="1164" y="696" type="line"/>
      <point x="1164" y="754" type="line" smooth="yes"/>
      <point x="1164" y="1033"/>
      <point x="987" y="1182"/>
      <point x="659" y="1182" type="curve" smooth="yes"/>
      <point x="336" y="1182"/>
      <point x="162" y="1047"/>
      <point x="162" y="794" type="curve" smooth="yes"/>
      <point x="162" y="784" type="line" smooth="yes"/>
      <point x="162" y="505"/>
      <point x="346" y="395"/>
    </contour>
    <contour>
      <point x="1298" y="-4" type="curve" smooth="yes"/>
      <point x="1330" y="-4"/>
      <point x="1370" y="1"/>
      <point x="1398" y="10" type="curve"/>
      <point x="1403" y="47" type="line"/>
      <point x="1370" y="37"/>
      <point x="1334" y="31"/>
      <point x="1300" y="31" type="curve" smooth="yes"/>
      <point x="1209" y="31"/>
      <point x="1165" y="87"/>
      <point x="1165" y="204" type="curve" smooth="yes"/>
      <point x="1165" y="707" type="line"/>
      <point x="1126" y="707" type="line"/>
      <point x="1126" y="204" type="line" smooth="yes"/>
      <point x="1126" y="65"/>
      <point x="1181" y="-4"/>
    </contour>
  </outline>
</glyph>
<glyph name="Two.gj" format="2">
  <advance width="1271"/>
  <unicode hex="0AE8"/>
  <guideline x="144" y="461" angle="90"/>
  <guideline x="1077" y="1182" angle="90"/>
  <guideline x="1290" y="1182" angle="90"/>
  <outline>
    <contour>
      <point x="323" y="396" type="line"/>
      <point x="330" y="403" type="line"/>
      <point x="523" y="403" type="line" smooth="yes"/>
      <point x="889" y="403"/>
      <point x="1087" y="531"/>
      <point x="1087" y="781" type="curve" smooth="yes"/>
      <point x="1087" y="789" type="line" smooth="yes"/>
      <point x="1087" y="1042"/>
      <point x="905" y="1182"/>
      <point x="591" y="1182" type="curve" smooth="yes"/>
      <point x="345" y="1182"/>
      <point x="205" y="1116"/>
      <point x="128" y="1073" type="curve"/>
      <point x="123" y="1031" type="line"/>
      <point x="218" y="1086"/>
      <point x="369" y="1146"/>
      <point x="591" y="1146" type="curve" smooth="yes"/>
      <point x="881" y="1146"/>
      <point x="1046" y="1016"/>
      <point x="1046" y="789" type="curve" smooth="yes"/>
      <point x="1046" y="782" type="line" smooth="yes"/>
      <point x="1046" y="552"/>
      <point x="862" y="437"/>
      <point x="519" y="437" type="curve" smooth="yes"/>
      <point x="124" y="437" type="line"/>
      <point x="124" y="405" type="line"/>
    </contour>
    <contour>
      <point x="948" y="0" type="line"/>
      <point x="1009" y="0" type="line"/>
      <point x="1009" y="5" type="line"/>
      <point x="494" y="324" type="line" smooth="yes"/>
      <point x="430" y="362"/>
      <point x="343" y="408"/>
      <point x="308" y="427" type="curve"/>
      <point x="278" y="415" type="line"/>
    </contour>
  </outline>
</glyph>
<glyph name="Three.gj" format="2">
  <advance width="1328"/>
  <unicode hex="0AE9"/>
  <outline>
    <contour>
      <point x="628" y="-14" type="curve" smooth="yes"/>
      <point x="970" y="-14"/>
      <point x="1146" y="101"/>
      <point x="1146" y="315" type="curve" smooth="yes"/>
      <point x="1146" y="317" type="line" smooth="yes"/>
      <point x="1146" y="502"/>
      <point x="1015" y="589"/>
      <point x="799" y="609" type="curve"/>
      <point x="799" y="611" type="line"/>
      <point x="999" y="625"/>
      <point x="1122" y="696"/>
      <point x="1122" y="876" type="curve" smooth="yes"/>
      <point x="1122" y="878" type="line" smooth="yes"/>
      <point x="1122" y="1075"/>
      <point x="954" y="1182"/>
      <point x="627" y="1182" type="curve" smooth="yes"/>
      <point x="410" y="1182"/>
      <point x="248" y="1125"/>
      <point x="160" y="1070" type="curve"/>
      <point x="153" y="1029" type="line"/>
      <point x="262" y="1093"/>
      <point x="415" y="1146"/>
      <point x="627" y="1146" type="curve" smooth="yes"/>
      <point x="926" y="1146"/>
      <point x="1081" y="1056"/>
      <point x="1081" y="878" type="curve" smooth="yes"/>
      <point x="1081" y="876" type="line" smooth="yes"/>
      <point x="1081" y="685"/>
      <point x="927" y="628"/>
      <point x="646" y="627" type="curve" smooth="yes"/>
      <point x="322" y="625" type="line"/>
      <point x="322" y="593" type="line"/>
      <point x="646" y="591" type="line" smooth="yes"/>
      <point x="944" y="589"/>
      <point x="1105" y="511"/>
      <point x="1105" y="317" type="curve" smooth="yes"/>
      <point x="1105" y="315" type="line" smooth="yes"/>
      <point x="1105" y="120"/>
      <point x="942" y="22"/>
      <point x="627" y="22" type="curve" smooth="yes"/>
      <point x="369" y="22"/>
      <point x="214" y="93"/>
      <point x="116" y="164" type="curve"/>
      <point x="121" y="117" type="line"/>
      <point x="207" y="59"/>
      <point x="360" y="-14"/>
    </contour>
  </outline>
</glyph>
<glyph name="Four.gj" format="2">
  <advance width="1411"/>
  <unicode hex="0AEA"/>
  <outline>
    <contour>
      <point x="715" y="-14" type="curve" smooth="yes"/>
      <point x="975" y="-14"/>
      <point x="1114" y="87"/>
      <point x="1114" y="275" type="curve" smooth="yes"/>
      <point x="1114" y="279" type="line" smooth="yes"/>
      <point x="1114" y="439"/>
      <point x="1011" y="522"/>
      <point x="873" y="616" type="curve" smooth="yes"/>
      <point x="729" y="714" type="line"/>
      <point x="699" y="690" type="line"/>
      <point x="857" y="584" type="line" smooth="yes"/>
      <point x="976" y="504"/>
      <point x="1073" y="427"/>
      <point x="1073" y="279" type="curve" smooth="yes"/>
      <point x="1073" y="275" type="line" smooth="yes"/>
      <point x="1073" y="111"/>
      <point x="948" y="22"/>
      <point x="715" y="22" type="curve" smooth="yes"/>
      <point x="482" y="22"/>
      <point x="357" y="111"/>
      <point x="357" y="275" type="curve" smooth="yes"/>
      <point x="357" y="279" type="line" smooth="yes"/>
      <point x="357" y="427"/>
      <point x="448" y="515"/>
      <point x="556" y="584" type="curve" smooth="yes"/>
      <point x="722" y="691" type="line"/>
      <point x="699" y="720" type="line"/>
      <point x="540" y="616" type="line" smooth="yes"/>
      <point x="413" y="533"/>
      <point x="316" y="439"/>
      <point x="316" y="279" type="curve" smooth="yes"/>
      <point x="316" y="275" type="line" smooth="yes"/>
      <point x="316" y="87"/>
      <point x="454" y="-14"/>
    </contour>
    <contour>
      <point x="693" y="691" type="line"/>
      <point x="719" y="717" type="line"/>
      <point x="122" y="1157" type="line"/>
      <point x="62" y="1157" type="line"/>
      <point x="62" y="1152" type="line"/>
    </contour>
    <contour>
      <point x="724" y="691" type="line"/>
      <point x="1349" y="1152" type="line"/>
      <point x="1349" y="1157" type="line"/>
      <point x="1289" y="1157" type="line"/>
      <point x="695" y="715" type="line"/>
    </contour>
  </outline>
</glyph>
<glyph name="Five.gj" format="2">
  <advance width="1539"/>
  <unicode hex="0AEB"/>
  <guideline x="3708" y="915" angle="0"/>
  <guideline x="4915" y="2868" angle="90"/>
  <guideline x="1259" y="886" angle="90"/>
  <guideline x="1540" y="886" angle="90"/>
  <outline>
    <contour>
      <point x="764" y="338" type="curve" smooth="yes"/>
      <point x="1027" y="338"/>
      <point x="1180" y="471"/>
      <point x="1223" y="623" type="curve"/>
      <point x="1227" y="623" type="line"/>
      <point x="1221" y="687" type="line"/>
      <point x="1162" y="494"/>
      <point x="1015" y="374"/>
      <point x="764" y="374" type="curve" smooth="yes"/>
      <point x="483" y="374"/>
      <point x="321" y="494"/>
      <point x="321" y="779" type="curve" smooth="yes"/>
      <point x="321" y="848" type="line"/>
      <point x="282" y="848" type="line"/>
      <point x="282" y="777" type="line" smooth="yes"/>
      <point x="282" y="468"/>
      <point x="460" y="338"/>
    </contour>
    <contour>
      <point x="1394" y="-4" type="curve" smooth="yes"/>
      <point x="1426" y="-4"/>
      <point x="1465" y="1"/>
      <point x="1494" y="10" type="curve"/>
      <point x="1499" y="47" type="line"/>
      <point x="1465" y="37"/>
      <point x="1430" y="31"/>
      <point x="1396" y="31" type="curve" smooth="yes"/>
      <point x="1304" y="31"/>
      <point x="1259" y="87"/>
      <point x="1259" y="204" type="curve" smooth="yes"/>
      <point x="1259" y="649" type="line"/>
      <point x="1222" y="649" type="line"/>
      <point x="1222" y="204" type="line" smooth="yes"/>
      <point x="1222" y="65"/>
      <point x="1277" y="-4"/>
    </contour>
    <contour>
      <point x="1220" y="645" type="line"/>
      <point x="1259" y="645" type="line"/>
      <point x="1259" y="1157" type="line"/>
      <point x="1220" y="1157" type="line"/>
    </contour>
    <contour>
      <point x="282" y="781" type="line"/>
      <point x="321" y="781" type="line"/>
      <point x="321" y="956" type="line" smooth="yes"/>
      <point x="321" y="1095"/>
      <point x="266" y="1164"/>
      <point x="149" y="1164" type="curve" smooth="yes"/>
      <point x="117" y="1164"/>
      <point x="77" y="1159"/>
      <point x="49" y="1150" type="curve"/>
      <point x="44" y="1113" type="line"/>
      <point x="77" y="1123"/>
      <point x="113" y="1129"/>
      <point x="147" y="1129" type="curve" smooth="yes"/>
      <point x="238" y="1129"/>
      <point x="282" y="1073"/>
      <point x="282" y="956" type="curve" smooth="yes"/>
    </contour>
  </outline>
</glyph>
<glyph name="Six.gj" format="2">
  <advance width="1462"/>
  <unicode hex="0AEC"/>
  <guideline x="3821" y="2623" angle="0"/>
  <guideline x="3640" y="3457" angle="278.13009999999997"/>
  <guideline x="1320" y="97" angle="279.0395"/>
  <outline>
    <contour>
      <point x="679" y="-15" type="curve" smooth="yes"/>
      <point x="998" y="-15"/>
      <point x="1212" y="108"/>
      <point x="1212" y="418" type="curve" smooth="yes"/>
      <point x="1212" y="814" type="line"/>
      <point x="1173" y="814" type="line"/>
      <point x="1173" y="653" type="line"/>
      <point x="1173" y="636" type="line"/>
      <point x="1173" y="418" type="line" smooth="yes"/>
      <point x="1173" y="137"/>
      <point x="979" y="21"/>
      <point x="679" y="21" type="curve" smooth="yes"/>
      <point x="493" y="21"/>
      <point x="347" y="61"/>
      <point x="218" y="130" type="curve"/>
      <point x="225" y="84" type="line"/>
      <point x="346" y="22"/>
      <point x="488" y="-15"/>
    </contour>
    <contour>
      <point x="701" y="391" type="curve" smooth="yes"/>
      <point x="989" y="391"/>
      <point x="1142" y="540"/>
      <point x="1185" y="620" type="curve"/>
      <point x="1189" y="620" type="line"/>
      <point x="1183" y="674" type="line"/>
      <point x="1127" y="563"/>
      <point x="965" y="427"/>
      <point x="701" y="427" type="curve" smooth="yes"/>
      <point x="369" y="427"/>
      <point x="213" y="554"/>
      <point x="213" y="776" type="curve" smooth="yes"/>
      <point x="213" y="780" type="line"/>
      <point x="172" y="780" type="line"/>
      <point x="172" y="776" type="line" smooth="yes"/>
      <point x="172" y="527"/>
      <point x="342" y="391"/>
    </contour>
    <contour>
      <point x="172" y="780" type="line"/>
      <point x="213" y="780" type="line"/>
      <point x="213" y="782" type="line" smooth="yes"/>
      <point x="213" y="1016"/>
      <point x="400" y="1146"/>
      <point x="719" y="1146" type="curve" smooth="yes"/>
      <point x="925" y="1146"/>
      <point x="1072" y="1098"/>
      <point x="1178" y="1039" type="curve"/>
      <point x="1171" y="1080" type="line"/>
      <point x="1086" y="1130"/>
      <point x="929" y="1182"/>
      <point x="719" y="1182" type="curve" smooth="yes"/>
      <point x="376" y="1182"/>
      <point x="172" y="1040"/>
      <point x="172" y="782" type="curve" smooth="yes"/>
    </contour>
  </outline>
</glyph>
<glyph name="Seven.gj" format="2">
  <advance width="1667"/>
  <unicode hex="0AED"/>
  <outline>
    <contour>
      <point x="836" y="-14" type="curve" smooth="yes"/>
      <point x="1238" y="-14"/>
      <point x="1475" y="214"/>
      <point x="1475" y="663" type="curve" smooth="yes"/>
      <point x="1475" y="693" type="line"/>
      <point x="1434" y="693" type="line"/>
      <point x="1434" y="665" type="line" smooth="yes"/>
      <point x="1434" y="223"/>
      <point x="1211" y="22"/>
      <point x="835" y="22" type="curve" smooth="yes"/>
      <point x="465" y="22"/>
      <point x="231" y="186"/>
      <point x="231" y="530" type="curve" smooth="yes"/>
      <point x="231" y="560"/>
      <point x="231" y="590"/>
      <point x="231" y="619" type="curve"/>
      <point x="194" y="619" type="line"/>
      <point x="192" y="593"/>
      <point x="190" y="561"/>
      <point x="190" y="530" type="curve" smooth="yes"/>
      <point x="190" y="168"/>
      <point x="435" y="-14"/>
    </contour>
    <contour>
      <point x="1039" y="451" type="curve" smooth="yes"/>
      <point x="1247" y="451"/>
      <point x="1394" y="577"/>
      <point x="1438" y="687" type="curve"/>
      <point x="1452" y="687" type="line"/>
      <point x="1449" y="767" type="line"/>
      <point x="1405" y="603"/>
      <point x="1229" y="487"/>
      <point x="1039" y="487" type="curve" smooth="yes"/>
      <point x="802" y="487"/>
      <point x="675" y="597"/>
      <point x="675" y="803" type="curve" smooth="yes"/>
      <point x="675" y="810" type="line" smooth="yes"/>
      <point x="675" y="1026"/>
      <point x="805" y="1145"/>
      <point x="1042" y="1145" type="curve" smooth="yes"/>
      <point x="1289" y="1145"/>
      <point x="1434" y="983"/>
      <point x="1434" y="699" type="curve"/>
      <point x="1434" y="690" type="line"/>
      <point x="1475" y="690" type="line"/>
      <point x="1475" y="699" type="line" smooth="yes"/>
      <point x="1475" y="1006"/>
      <point x="1319" y="1181"/>
      <point x="1042" y="1181" type="curve" smooth="yes"/>
      <point x="782" y="1181"/>
      <point x="634" y="1048"/>
      <point x="634" y="810" type="curve" smooth="yes"/>
      <point x="634" y="803" type="line" smooth="yes"/>
      <point x="634" y="574"/>
      <point x="777" y="451"/>
    </contour>
  </outline>
</glyph>
<glyph name="Eight.gj" format="2">
  <advance width="1437"/>
  <unicode hex="0AEE"/>
  <outline>
    <contour>
      <point x="733" y="-14" type="curve" smooth="yes"/>
      <point x="1027" y="-14"/>
      <point x="1196" y="81"/>
      <point x="1290" y="157" type="curve"/>
      <point x="1295" y="206" type="line"/>
      <point x="1187" y="114"/>
      <point x="1017" y="22"/>
      <point x="734" y="22" type="curve" smooth="yes"/>
      <point x="410" y="22"/>
      <point x="223" y="160"/>
      <point x="223" y="397" type="curve" smooth="yes"/>
      <point x="223" y="399" type="line" smooth="yes"/>
      <point x="223" y="625"/>
      <point x="400" y="777"/>
      <point x="746" y="950" type="curve" smooth="yes"/>
      <point x="1138" y="1155" type="line"/>
      <point x="1056" y="1155" type="line"/>
      <point x="704" y="972" type="line" smooth="yes"/>
      <point x="339" y="793"/>
      <point x="182" y="633"/>
      <point x="182" y="400" type="curve" smooth="yes"/>
      <point x="182" y="398" type="line" smooth="yes"/>
      <point x="182" y="142"/>
      <point x="381" y="-14"/>
    </contour>
  </outline>
</glyph>
<glyph name="Nine.gj" format="2">
  <advance width="1560"/>
  <unicode hex="0AEF"/>
  <guideline x="1321" y="572" angle="90"/>
  <guideline x="1508" y="572" angle="90"/>
  <outline>
    <contour>
      <point x="780" y="-14" type="curve" smooth="yes"/>
      <point x="1047" y="-14"/>
      <point x="1218" y="67"/>
      <point x="1316" y="127" type="curve"/>
      <point x="1321" y="174" type="line"/>
      <point x="1217" y="109"/>
      <point x="1043" y="22"/>
      <point x="780" y="22" type="curve" smooth="yes"/>
      <point x="428" y="22"/>
      <point x="223" y="181"/>
      <point x="223" y="420" type="curve" smooth="yes"/>
      <point x="223" y="422" type="line" smooth="yes"/>
      <point x="223" y="659"/>
      <point x="362" y="774"/>
      <point x="719" y="1011" type="curve" smooth="yes"/>
      <point x="939" y="1157" type="line"/>
      <point x="875" y="1157" type="line"/>
      <point x="681" y="1031" type="line" smooth="yes"/>
      <point x="328" y="802"/>
      <point x="182" y="674"/>
      <point x="182" y="422" type="curve" smooth="yes"/>
      <point x="182" y="419" type="line" smooth="yes"/>
      <point x="182" y="159"/>
      <point x="399" y="-14"/>
    </contour>
    <contour>
      <point x="753" y="493" type="line"/>
      <point x="755" y="493" type="line"/>
      <point x="1480" y="769" type="line"/>
      <point x="1480" y="809" type="line"/>
      <point x="753" y="532" type="line"/>
    </contour>
  </outline>
</glyph>
<glyph name="AbbreviationSign.gj" format="2">
  <advance width="1004"/>
  <unicode hex="0AF0"/>
  <outline>
    <contour>
      <point x="504" y="691" type="curve" smooth="yes"/>
      <point x="253" y="691"/>
      <point x="103" y="564"/>
      <point x="103" y="340" type="curve" smooth="yes"/>
      <point x="103" y="338" type="line"/>
      <point x="144" y="338" type="line"/>
      <point x="144" y="340" type="line" smooth="yes"/>
      <point x="144" y="543"/>
      <point x="278" y="655"/>
      <point x="504" y="655" type="curve" smooth="yes"/>
      <point x="728" y="655"/>
      <point x="860" y="543"/>
      <point x="860" y="340" type="curve" smooth="yes"/>
      <point x="860" y="338" type="line"/>
      <point x="901" y="338" type="line"/>
      <point x="901" y="340" type="line" smooth="yes"/>
      <point x="901" y="564"/>
      <point x="755" y="691"/>
    </contour>
    <contour>
      <point x="504" y="-14" type="curve" smooth="yes"/>
      <point x="755" y="-14"/>
      <point x="901" y="110"/>
      <point x="901" y="336" type="curve" smooth="yes"/>
      <point x="901" y="338" type="line"/>
      <point x="860" y="338" type="line"/>
      <point x="860" y="336" type="line" smooth="yes"/>
      <point x="860" y="133"/>
      <point x="728" y="22"/>
      <point x="504" y="22" type="curve" smooth="yes"/>
      <point x="278" y="22"/>
      <point x="144" y="133"/>
      <point x="144" y="336" type="curve" smooth="yes"/>
      <point x="144" y="338" type="line"/>
      <point x="103" y="338" type="line"/>
      <point x="103" y="336" type="line" smooth="yes"/>
      <point x="103" y="110"/>
      <point x="253" y="-14"/>
    </contour>
  </outline>
</glyph>
<glyph name="RupeeSign.gj" format="2">
  <advance width="2273"/>
  <unicode hex="0AF1"/>
  <anchor x="833" y="-477" name="Bottom"/>
  <anchor x="781" y="1253" name="Top"/>
  <anchor x="667" y="1253" name="Top2"/>
  <outline>
    <contour>
      <point x="1773" y="691" type="curve" smooth="yes"/>
      <point x="1522" y="691"/>
      <point x="1372" y="564"/>
      <point x="1372" y="340" type="curve" smooth="yes"/>
      <point x="1372" y="338" type="line"/>
      <point x="1413" y="338" type="line"/>
      <point x="1413" y="340" type="line" smooth="yes"/>
      <point x="1413" y="543"/>
      <point x="1547" y="655"/>
      <point x="1773" y="655" type="curve" smooth="yes"/>
      <point x="1997" y="655"/>
      <point x="2129" y="543"/>
      <point x="2129" y="340" type="curve" smooth="yes"/>
      <point x="2129" y="338" type="line"/>
      <point x="2170" y="338" type="line"/>
      <point x="2170" y="340" type="line" smooth="yes"/>
      <point x="2170" y="564"/>
      <point x="2024" y="691"/>
    </contour>
    <contour>
      <point x="1773" y="-14" type="curve" smooth="yes"/>
      <point x="2024" y="-14"/>
      <point x="2170" y="110"/>
      <point x="2170" y="336" type="curve" smooth="yes"/>
      <point x="2170" y="338" type="line"/>
      <point x="2129" y="338" type="line"/>
      <point x="2129" y="336" type="line" smooth="yes"/>
      <point x="2129" y="133"/>
      <point x="1997" y="22"/>
      <point x="1773" y="22" type="curve" smooth="yes"/>
      <point x="1547" y="22"/>
      <point x="1413" y="133"/>
      <point x="1413" y="336" type="curve" smooth="yes"/>
      <point x="1413" y="338" type="line"/>
      <point x="1372" y="338" type="line"/>
      <point x="1372" y="336" type="line" smooth="yes"/>
      <point x="1372" y="110"/>
      <point x="1522" y="-14"/>
    </contour>
    <contour>
      <point x="650" y="-14" type="curve" smooth="yes"/>
      <point x="992" y="-14"/>
      <point x="1168" y="101"/>
      <point x="1168" y="315" type="curve" smooth="yes"/>
      <point x="1168" y="317" type="line" smooth="yes"/>
      <point x="1168" y="502"/>
      <point x="1037" y="589"/>
      <point x="821" y="609" type="curve"/>
      <point x="821" y="611" type="line"/>
      <point x="1021" y="625"/>
      <point x="1144" y="696"/>
      <point x="1144" y="876" type="curve" smooth="yes"/>
      <point x="1144" y="878" type="line" smooth="yes"/>
      <point x="1144" y="1075"/>
      <point x="976" y="1182"/>
      <point x="649" y="1182" type="curve" smooth="yes"/>
      <point x="432" y="1182"/>
      <point x="270" y="1125"/>
      <point x="182" y="1070" type="curve"/>
      <point x="175" y="1029" type="line"/>
      <point x="284" y="1093"/>
      <point x="437" y="1146"/>
      <point x="649" y="1146" type="curve" smooth="yes"/>
      <point x="948" y="1146"/>
      <point x="1103" y="1056"/>
      <point x="1103" y="878" type="curve" smooth="yes"/>
      <point x="1103" y="876" type="line" smooth="yes"/>
      <point x="1103" y="685"/>
      <point x="949" y="629"/>
      <point x="668" y="627" type="curve" smooth="yes"/>
      <point x="344" y="625" type="line"/>
      <point x="344" y="593" type="line"/>
      <point x="668" y="591" type="line" smooth="yes"/>
      <point x="966" y="589"/>
      <point x="1127" y="511"/>
      <point x="1127" y="317" type="curve" smooth="yes"/>
      <point x="1127" y="315" type="line" smooth="yes"/>
      <point x="1127" y="120"/>
      <point x="964" y="22"/>
      <point x="649" y="22" type="curve" smooth="yes"/>
      <point x="391" y="22"/>
      <point x="236" y="93"/>
      <point x="138" y="164" type="curve"/>
      <point x="143" y="117" type="line"/>
      <point x="229" y="59"/>
      <point x="382" y="-14"/>
    </contour>
    <contour>
      <point x="808" y="-372" type="line"/>
      <point x="863" y="-372" type="line"/>
      <point x="863" y="-368" type="line"/>
      <point x="498" y="-81" type="line" smooth="yes"/>
      <point x="421" y="-20"/>
      <point x="363" y="21"/>
      <point x="293" y="63" type="curve"/>
      <point x="236" y="80" type="line"/>
    </contour>
  </outline>
</glyph>
<glyph name="Zha.gj" format="2">
  <advance width="1883"/>
  <unicode hex="0AF9"/>
  <guideline x="35" y="157" angle="90"/>
  <anchor x="1207" y="-105" name="Bottom"/>
  <anchor x="1731" y="1253" name="Top"/>
  <anchor x="1770" y="1253" name="Top2"/>
  <outline>
    <contour>
      <point x="1188" y="744" type="line"/>
      <point x="1811" y="1152" type="line"/>
      <point x="1811" y="1157" type="line"/>
      <point x="1751" y="1157" type="line"/>
      <point x="1144" y="757" type="line"/>
    </contour>
    <contour>
      <point x="291" y="401" type="line"/>
      <point x="291" y="905" type="line" smooth="yes"/>
      <point x="291" y="1082"/>
      <point x="387" y="1146"/>
      <point x="508" y="1146" type="curve" smooth="yes"/>
      <point x="624" y="1146"/>
      <point x="705" y="1084"/>
      <point x="873" y="959" type="curve" smooth="yes"/>
      <point x="1167" y="741" type="line"/>
      <point x="1204" y="761" type="line"/>
      <point x="897" y="990" type="line" smooth="yes"/>
      <point x="729" y="1116"/>
      <point x="646" y="1182"/>
      <point x="508" y="1182" type="curve" smooth="yes"/>
      <point x="360" y="1182"/>
      <point x="252" y="1104"/>
      <point x="252" y="905" type="curve" smooth="yes"/>
      <point x="252" y="418" type="line"/>
    </contour>
    <contour>
      <point x="1167" y="-14" type="curve" smooth="yes"/>
      <point x="1466" y="-14"/>
      <point x="1625" y="94"/>
      <point x="1625" y="295" type="curve" smooth="yes"/>
      <point x="1625" y="299" type="line" smooth="yes"/>
      <point x="1625" y="463"/>
      <point x="1536" y="541"/>
      <point x="1381" y="646" type="curve" smooth="yes"/>
      <point x="1204" y="766" type="line"/>
      <point x="1167" y="747" type="line"/>
      <point x="1365" y="614" type="line" smooth="yes"/>
      <point x="1500" y="523"/>
      <point x="1584" y="452"/>
      <point x="1584" y="299" type="curve" smooth="yes"/>
      <point x="1584" y="295" type="line" smooth="yes"/>
      <point x="1584" y="118"/>
      <point x="1438" y="22"/>
      <point x="1167" y="22" type="curve" smooth="yes"/>
      <point x="891" y="22"/>
      <point x="743" y="118"/>
      <point x="743" y="295" type="curve" smooth="yes"/>
      <point x="743" y="299" type="line" smooth="yes"/>
      <point x="743" y="452"/>
      <point x="836" y="529"/>
      <point x="975" y="614" type="curve" smooth="yes"/>
      <point x="1187" y="744" type="line"/>
      <point x="1164" y="773" type="line"/>
      <point x="959" y="646" type="line" smooth="yes"/>
      <point x="800" y="547"/>
      <point x="702" y="463"/>
      <point x="702" y="299" type="curve" smooth="yes"/>
      <point x="702" y="295" type="line" smooth="yes"/>
      <point x="702" y="94"/>
      <point x="863" y="-14"/>
    </contour>
    <contour>
      <point x="559" y="-118" type="curve" smooth="yes"/>
      <point x="602" y="-118"/>
      <point x="620" y="-95"/>
      <point x="620" y="-65" type="curve" smooth="yes"/>
      <point x="620" y="-61" type="line" smooth="yes"/>
      <point x="620" y="-31"/>
      <point x="601" y="-8"/>
      <point x="559" y="-8" type="curve" smooth="yes"/>
      <point x="516" y="-8"/>
      <point x="497" y="-31"/>
      <point x="497" y="-61" type="curve" smooth="yes"/>
      <point x="497" y="-65" type="line" smooth="yes"/>
      <point x="497" y="-95"/>
      <point x="516" y="-118"/>
    </contour>
    <contour>
      <point x="233" y="65" type="curve" smooth="yes"/>
      <point x="276" y="65"/>
      <point x="294" y="88"/>
      <point x="294" y="118" type="curve" smooth="yes"/>
      <point x="294" y="122" type="line" smooth="yes"/>
      <point x="294" y="152"/>
      <point x="275" y="175"/>
      <point x="233" y="175" type="curve" smooth="yes"/>
      <point x="190" y="175"/>
      <point x="171" y="152"/>
      <point x="171" y="122" type="curve" smooth="yes"/>
      <point x="171" y="118" type="line" smooth="yes"/>
      <point x="171" y="88"/>
      <point x="190" y="65"/>
    </contour>
    <contour>
      <point x="253" y="-298" type="curve" smooth="yes"/>
      <point x="296" y="-298"/>
      <point x="314" y="-275"/>
      <point x="314" y="-245" type="curve" smooth="yes"/>
      <point x="314" y="-241" type="line" smooth="yes"/>
      <point x="314" y="-211"/>
      <point x="295" y="-188"/>
      <point x="253" y="-188" type="curve" smooth="yes"/>
      <point x="210" y="-188"/>
      <point x="191" y="-211"/>
      <point x="191" y="-241" type="curve" smooth="yes"/>
      <point x="191" y="-245" type="line" smooth="yes"/>
      <point x="191" y="-275"/>
      <point x="210" y="-298"/>
    </contour>
  </outline>
</glyph>
<glyph name="eightsuperior" format="2">
  <advance width="980"/>
  <unicode hex="2078"/>
  <outline>
    <contour>
      <point x="491" y="734" type="curve" smooth="yes"/>
      <point x="754" y="734"/>
      <point x="887" y="805"/>
      <point x="887" y="926" type="curve" smooth="yes"/>
      <point x="887" y="936" type="line" smooth="yes"/>
      <point x="887" y="1042"/>
      <point x="773" y="1090"/>
      <point x="627" y="1099" type="curve"/>
      <point x="627" y="1101" type="line"/>
      <point x="765" y="1108"/>
      <point x="875" y="1155"/>
      <point x="875" y="1252" type="curve" smooth="yes"/>
      <point x="875" y="1263" type="line" smooth="yes"/>
      <point x="875" y="1376"/>
      <point x="741" y="1438"/>
      <point x="491" y="1438" type="curve" smooth="yes"/>
      <point x="240" y="1438"/>
      <point x="105" y="1376"/>
      <point x="105" y="1263" type="curve" smooth="yes"/>
      <point x="105" y="1252" type="line" smooth="yes"/>
      <point x="105" y="1154"/>
      <point x="214" y="1107"/>
      <point x="353" y="1101" type="curve"/>
      <point x="353" y="1099" type="line"/>
      <point x="216" y="1092"/>
      <point x="93" y="1043"/>
      <point x="93" y="936" type="curve" smooth="yes"/>
      <point x="93" y="926" type="line" smooth="yes"/>
      <point x="93" y="804"/>
      <point x="227" y="734"/>
    </contour>
    <contour>
      <point x="491" y="766" type="curve" smooth="yes"/>
      <point x="252" y="766"/>
      <point x="130" y="825"/>
      <point x="130" y="927" type="curve" smooth="yes"/>
      <point x="130" y="938" type="line" smooth="yes"/>
      <point x="130" y="1033"/>
      <point x="256" y="1084"/>
      <point x="490" y="1084" type="curve" smooth="yes"/>
      <point x="725" y="1084"/>
      <point x="850" y="1033"/>
      <point x="850" y="938" type="curve" smooth="yes"/>
      <point x="850" y="927" type="line" smooth="yes"/>
      <point x="850" y="825"/>
      <point x="727" y="766"/>
    </contour>
    <contour>
      <point x="491" y="1114" type="curve" smooth="yes"/>
      <point x="263" y="1114"/>
      <point x="142" y="1163"/>
      <point x="142" y="1251" type="curve" smooth="yes"/>
      <point x="142" y="1261" type="line" smooth="yes"/>
      <point x="142" y="1355"/>
      <point x="261" y="1406"/>
      <point x="491" y="1406" type="curve" smooth="yes"/>
      <point x="717" y="1406"/>
      <point x="838" y="1356"/>
      <point x="838" y="1261" type="curve" smooth="yes"/>
      <point x="838" y="1251" type="line" smooth="yes"/>
      <point x="838" y="1163"/>
      <point x="716" y="1114"/>
    </contour>
  </outline>
</glyph>
<glyph name="euro" format="2">
  <advance width="1564"/>
  <unicode hex="20AC"/>
  <outline>
    <contour>
      <point x="970" y="-21" type="curve" smooth="yes"/>
      <point x="1154" y="-21"/>
      <point x="1314" y="28"/>
      <point x="1414" y="88" type="curve"/>
      <point x="1420" y="128" type="line"/>
      <point x="1311" y="66"/>
      <point x="1156" y="16"/>
      <point x="968" y="16" type="curve" smooth="yes"/>
      <point x="541" y="16"/>
      <point x="310" y="237"/>
      <point x="310" y="629" type="curve"/>
      <point x="310" y="650" type="line"/>
      <point x="310" y="1043"/>
      <point x="541" y="1262"/>
      <point x="954" y="1262" type="curve" smooth="yes"/>
      <point x="1134" y="1262"/>
      <point x="1304" y="1210"/>
      <point x="1420" y="1149" type="curve"/>
      <point x="1414" y="1189" type="line"/>
      <point x="1315" y="1243"/>
      <point x="1141" y="1299"/>
      <point x="955" y="1299" type="curve" smooth="yes"/>
      <point x="516" y="1299"/>
      <point x="269" y="1065"/>
      <point x="269" y="650" type="curve"/>
      <point x="269" y="629" type="line"/>
      <point x="269" y="214"/>
      <point x="516" y="-21"/>
    </contour>
    <contour>
      <point x="40" y="468" type="line"/>
      <point x="1220" y="468" type="line"/>
      <point x="1227" y="500" type="line"/>
      <point x="47" y="500" type="line"/>
    </contour>
    <contour>
      <point x="40" y="807" type="line"/>
      <point x="1220" y="807" type="line"/>
      <point x="1227" y="839" type="line"/>
      <point x="47" y="839" type="line"/>
    </contour>
  </outline>
</glyph>
<glyph name="minus" format="2">
  <advance width="1351"/>
  <unicode hex="2212"/>
  <outline>
    <contour>
      <point x="166" y="596" type="line"/>
      <point x="1185" y="596" type="line"/>
      <point x="1185" y="630" type="line"/>
      <point x="166" y="630" type="line"/>
    </contour>
  </outline>
</glyph>
<glyph name="BaBa.gj" format="2">
  <advance width="3352"/>
  <anchor x="3033" y="-105" name="Bottom"/>
  <anchor x="3012" y="1253" name="Top"/>
  <anchor x="3051" y="1253" name="Top2"/>
  <outline>
    <contour>
      <point x="1027" y="566" type="line"/>
      <point x="1656" y="566" type="line"/>
      <point x="1649" y="600" type="line"/>
      <point x="1027" y="600" type="line"/>
    </contour>
    <contour>
      <point x="642" y="121" type="curve" smooth="yes"/>
      <point x="918" y="121"/>
      <point x="1053" y="260"/>
      <point x="1053" y="541" type="curve" smooth="yes"/>
      <point x="1053" y="963" type="line"/>
      <point x="1014" y="963" type="line"/>
      <point x="1014" y="541" type="line" smooth="yes"/>
      <point x="1014" y="281"/>
      <point x="891" y="157"/>
      <point x="642" y="157" type="curve" smooth="yes"/>
      <point x="376" y="157"/>
      <point x="239" y="303"/>
      <point x="239" y="598" type="curve" smooth="yes"/>
      <point x="239" y="607" type="line" smooth="yes"/>
      <point x="239" y="847"/>
      <point x="332" y="1013"/>
      <point x="503" y="1157" type="curve"/>
      <point x="455" y="1157" type="line"/>
      <point x="300" y="1031"/>
      <point x="198" y="862"/>
      <point x="198" y="607" type="curve" smooth="yes"/>
      <point x="198" y="598" type="line" smooth="yes"/>
      <point x="198" y="281"/>
      <point x="348" y="121"/>
    </contour>
    <contour>
      <point x="3032" y="539" type="line"/>
      <point x="3071" y="539" type="line"/>
      <point x="3071" y="1157" type="line"/>
      <point x="3032" y="1157" type="line"/>
    </contour>
    <contour>
      <point x="3032" y="0" type="line"/>
      <point x="3071" y="0" type="line"/>
      <point x="3071" y="673" type="line"/>
      <point x="3032" y="673" type="line"/>
    </contour>
    <contour>
      <point x="2450" y="566" type="line"/>
      <point x="3064" y="566" type="line"/>
      <point x="3057" y="600" type="line"/>
      <point x="2450" y="600" type="line"/>
    </contour>
    <contour>
      <point x="2065" y="121" type="curve" smooth="yes"/>
      <point x="2341" y="121"/>
      <point x="2476" y="260"/>
      <point x="2476" y="541" type="curve" smooth="yes"/>
      <point x="2476" y="963" type="line"/>
      <point x="2437" y="963" type="line"/>
      <point x="2437" y="541" type="line" smooth="yes"/>
      <point x="2437" y="281"/>
      <point x="2314" y="157"/>
      <point x="2065" y="157" type="curve" smooth="yes"/>
      <point x="1799" y="157"/>
      <point x="1662" y="303"/>
      <point x="1662" y="598" type="curve" smooth="yes"/>
      <point x="1662" y="607" type="line" smooth="yes"/>
      <point x="1662" y="847"/>
      <point x="1755" y="1013"/>
      <point x="1926" y="1157" type="curve"/>
      <point x="1878" y="1157" type="line"/>
      <point x="1723" y="1031"/>
      <point x="1621" y="862"/>
      <point x="1621" y="607" type="curve" smooth="yes"/>
      <point x="1621" y="598" type="line" smooth="yes"/>
      <point x="1621" y="281"/>
      <point x="1771" y="121"/>
    </contour>
  </outline>
</glyph>
<glyph name="BaBha.gj" format="2">
  <advance width="3425"/>
  <anchor x="3106" y="-105" name="Bottom"/>
  <anchor x="3085" y="1253" name="Top"/>
  <anchor x="3124" y="1253" name="Top2"/>
  <outline>
    <contour>
      <point x="1027" y="566" type="line"/>
      <point x="1603" y="566" type="line"/>
      <point x="1596" y="600" type="line"/>
      <point x="1027" y="600" type="line"/>
    </contour>
    <contour>
      <point x="642" y="121" type="curve" smooth="yes"/>
      <point x="918" y="121"/>
      <point x="1053" y="260"/>
      <point x="1053" y="541" type="curve" smooth="yes"/>
      <point x="1053" y="963" type="line"/>
      <point x="1014" y="963" type="line"/>
      <point x="1014" y="541" type="line" smooth="yes"/>
      <point x="1014" y="281"/>
      <point x="891" y="157"/>
      <point x="642" y="157" type="curve" smooth="yes"/>
      <point x="376" y="157"/>
      <point x="239" y="303"/>
      <point x="239" y="598" type="curve" smooth="yes"/>
      <point x="239" y="607" type="line" smooth="yes"/>
      <point x="239" y="847"/>
      <point x="332" y="1013"/>
      <point x="503" y="1157" type="curve"/>
      <point x="455" y="1157" type="line"/>
      <point x="300" y="1031"/>
      <point x="198" y="862"/>
      <point x="198" y="607" type="curve" smooth="yes"/>
      <point x="198" y="598" type="line" smooth="yes"/>
      <point x="198" y="281"/>
      <point x="348" y="121"/>
    </contour>
    <contour>
      <point x="3105" y="539" type="line"/>
      <point x="3144" y="539" type="line"/>
      <point x="3144" y="1157" type="line"/>
      <point x="3105" y="1157" type="line"/>
    </contour>
    <contour>
      <point x="3105" y="0" type="line"/>
      <point x="3144" y="0" type="line"/>
      <point x="3144" y="673" type="line"/>
      <point x="3105" y="673" type="line"/>
    </contour>
    <contour>
      <point x="2428" y="552" type="line"/>
      <point x="3129" y="552" type="line"/>
      <point x="3122" y="586" type="line"/>
      <point x="2428" y="586" type="line"/>
    </contour>
    <contour>
      <point x="1888" y="0" type="curve"/>
      <point x="1944" y="0" type="line"/>
      <point x="1740" y="166"/>
      <point x="1610" y="349"/>
      <point x="1610" y="644" type="curve" smooth="yes"/>
      <point x="1610" y="660" type="line" smooth="yes"/>
      <point x="1610" y="981"/>
      <point x="1789" y="1146"/>
      <point x="2139" y="1146" type="curve" smooth="yes"/>
      <point x="2243" y="1146"/>
      <point x="2339" y="1130"/>
      <point x="2411" y="1099" type="curve"/>
      <point x="2408" y="1120" type="line"/>
      <point x="2408" y="570" type="line"/>
      <point x="2449" y="570" type="line"/>
      <point x="2449" y="1126" type="line"/>
      <point x="2375" y="1160"/>
      <point x="2265" y="1182"/>
      <point x="2139" y="1182" type="curve" smooth="yes"/>
      <point x="1764" y="1182"/>
      <point x="1569" y="1004"/>
      <point x="1569" y="660" type="curve" smooth="yes"/>
      <point x="1569" y="644" type="line" smooth="yes"/>
      <point x="1569" y="344"/>
      <point x="1697" y="157"/>
    </contour>
    <contour>
      <point x="2406" y="166" type="curve"/>
      <point x="2447" y="166" type="line"/>
      <point x="2447" y="582" type="line"/>
      <point x="2411" y="582" type="line"/>
      <point x="2349" y="548" type="line"/>
      <point x="2370" y="401"/>
      <point x="2385" y="313"/>
    </contour>
  </outline>
</glyph>
<glyph name="BaDa.gj" format="2">
  <advance width="2601"/>
  <anchor x="2024" y="-105" name="Bottom"/>
  <anchor x="2174" y="1253" name="Top"/>
  <anchor x="1999" y="1253" name="Top2"/>
  <outline>
    <contour>
      <point x="1027" y="586" type="line"/>
      <point x="1829" y="586" type="line"/>
      <point x="1822" y="620" type="line"/>
      <point x="1027" y="620" type="line"/>
    </contour>
    <contour>
      <point x="642" y="121" type="curve" smooth="yes"/>
      <point x="918" y="121"/>
      <point x="1053" y="260"/>
      <point x="1053" y="541" type="curve" smooth="yes"/>
      <point x="1053" y="963" type="line"/>
      <point x="1014" y="963" type="line"/>
      <point x="1014" y="541" type="line" smooth="yes"/>
      <point x="1014" y="281"/>
      <point x="891" y="157"/>
      <point x="642" y="157" type="curve" smooth="yes"/>
      <point x="376" y="157"/>
      <point x="239" y="303"/>
      <point x="239" y="598" type="curve" smooth="yes"/>
      <point x="239" y="607" type="line" smooth="yes"/>
      <point x="239" y="847"/>
      <point x="332" y="1013"/>
      <point x="503" y="1157" type="curve"/>
      <point x="455" y="1157" type="line"/>
      <point x="300" y="1031"/>
      <point x="198" y="862"/>
      <point x="198" y="607" type="curve" smooth="yes"/>
      <point x="198" y="598" type="line" smooth="yes"/>
      <point x="198" y="281"/>
      <point x="348" y="121"/>
    </contour>
    <contour>
      <point x="1973" y="-14" type="curve" smooth="yes"/>
      <point x="2241" y="-14"/>
      <point x="2394" y="59"/>
      <point x="2480" y="117" type="curve"/>
      <point x="2485" y="164" type="line"/>
      <point x="2387" y="93"/>
      <point x="2232" y="22"/>
      <point x="1974" y="22" type="curve" smooth="yes"/>
      <point x="1659" y="22"/>
      <point x="1496" y="120"/>
      <point x="1496" y="315" type="curve" smooth="yes"/>
      <point x="1496" y="317" type="line" smooth="yes"/>
      <point x="1496" y="511"/>
      <point x="1657" y="589"/>
      <point x="1955" y="591" type="curve" smooth="yes"/>
      <point x="2279" y="593" type="line"/>
      <point x="2279" y="625" type="line"/>
      <point x="1955" y="627" type="line" smooth="yes"/>
      <point x="1674" y="628"/>
      <point x="1520" y="685"/>
      <point x="1520" y="876" type="curve" smooth="yes"/>
      <point x="1520" y="878" type="line" smooth="yes"/>
      <point x="1520" y="1056"/>
      <point x="1675" y="1146"/>
      <point x="1974" y="1146" type="curve" smooth="yes"/>
      <point x="2186" y="1146"/>
      <point x="2339" y="1093"/>
      <point x="2448" y="1029" type="curve"/>
      <point x="2441" y="1070" type="line"/>
      <point x="2353" y="1125"/>
      <point x="2191" y="1182"/>
      <point x="1974" y="1182" type="curve" smooth="yes"/>
      <point x="1647" y="1182"/>
      <point x="1479" y="1075"/>
      <point x="1479" y="878" type="curve" smooth="yes"/>
      <point x="1479" y="876" type="line" smooth="yes"/>
      <point x="1479" y="696"/>
      <point x="1602" y="625"/>
      <point x="1802" y="611" type="curve"/>
      <point x="1802" y="609" type="line"/>
      <point x="1586" y="589"/>
      <point x="1455" y="502"/>
      <point x="1455" y="317" type="curve" smooth="yes"/>
      <point x="1455" y="315" type="line" smooth="yes"/>
      <point x="1455" y="101"/>
      <point x="1631" y="-14"/>
    </contour>
  </outline>
</glyph>
<glyph name="BaDda.gj" format="2">
  <advance width="2721"/>
  <anchor x="2088" y="-105" name="Bottom"/>
  <anchor x="2214" y="1253" name="Top"/>
  <anchor x="2024" y="1253" name="Top2"/>
  <outline>
    <contour>
      <point x="1027" y="622" type="line"/>
      <point x="1847" y="622" type="line"/>
      <point x="1840" y="656" type="line"/>
      <point x="1027" y="656" type="line"/>
    </contour>
    <contour>
      <point x="642" y="121" type="curve" smooth="yes"/>
      <point x="918" y="121"/>
      <point x="1053" y="260"/>
      <point x="1053" y="541" type="curve" smooth="yes"/>
      <point x="1053" y="963" type="line"/>
      <point x="1014" y="963" type="line"/>
      <point x="1014" y="541" type="line" smooth="yes"/>
      <point x="1014" y="281"/>
      <point x="891" y="157"/>
      <point x="642" y="157" type="curve" smooth="yes"/>
      <point x="376" y="157"/>
      <point x="239" y="303"/>
      <point x="239" y="598" type="curve" smooth="yes"/>
      <point x="239" y="607" type="line" smooth="yes"/>
      <point x="239" y="847"/>
      <point x="332" y="1013"/>
      <point x="503" y="1157" type="curve"/>
      <point x="455" y="1157" type="line"/>
      <point x="300" y="1031"/>
      <point x="198" y="862"/>
      <point x="198" y="607" type="curve" smooth="yes"/>
      <point x="198" y="598" type="line" smooth="yes"/>
      <point x="198" y="281"/>
      <point x="348" y="121"/>
    </contour>
    <contour>
      <point x="2032" y="-14" type="curve" smooth="yes"/>
      <point x="2377" y="-14"/>
      <point x="2544" y="91"/>
      <point x="2544" y="306" type="curve" smooth="yes"/>
      <point x="2544" y="308" type="line" smooth="yes"/>
      <point x="2544" y="511"/>
      <point x="2427" y="600"/>
      <point x="2034" y="637" type="curve" smooth="yes"/>
      <point x="1970" y="643" type="line" smooth="yes"/>
      <point x="1641" y="674"/>
      <point x="1530" y="730"/>
      <point x="1530" y="895" type="curve" smooth="yes"/>
      <point x="1530" y="897" type="line" smooth="yes"/>
      <point x="1530" y="1061"/>
      <point x="1688" y="1146"/>
      <point x="1994" y="1146" type="curve" smooth="yes"/>
      <point x="2210" y="1146"/>
      <point x="2368" y="1093"/>
      <point x="2479" y="1029" type="curve"/>
      <point x="2471" y="1070" type="line"/>
      <point x="2382" y="1125"/>
      <point x="2217" y="1182"/>
      <point x="1994" y="1182" type="curve" smooth="yes"/>
      <point x="1660" y="1182"/>
      <point x="1489" y="1084"/>
      <point x="1489" y="897" type="curve" smooth="yes"/>
      <point x="1489" y="895" type="line" smooth="yes"/>
      <point x="1489" y="698"/>
      <point x="1623" y="640"/>
      <point x="1961" y="608" type="curve" smooth="yes"/>
      <point x="2025" y="602" type="line" smooth="yes"/>
      <point x="2396" y="567"/>
      <point x="2503" y="490"/>
      <point x="2503" y="308" type="curve" smooth="yes"/>
      <point x="2503" y="306" type="line" smooth="yes"/>
      <point x="2503" y="115"/>
      <point x="2348" y="22"/>
      <point x="2034" y="22" type="curve" smooth="yes"/>
      <point x="1784" y="22"/>
      <point x="1610" y="88"/>
      <point x="1462" y="174" type="curve"/>
      <point x="1468" y="130" type="line"/>
      <point x="1583" y="61"/>
      <point x="1767" y="-14"/>
    </contour>
  </outline>
</glyph>
<glyph name="BaDha.gj" format="2">
  <advance width="3003"/>
  <anchor x="2684" y="-105" name="Bottom"/>
  <anchor x="2663" y="1253" name="Top"/>
  <anchor x="2702" y="1253" name="Top2"/>
  <outline>
    <contour>
      <point x="1027" y="566" type="line"/>
      <point x="1595" y="566" type="line"/>
      <point x="1588" y="600" type="line"/>
      <point x="1027" y="600" type="line"/>
    </contour>
    <contour>
      <point x="642" y="121" type="curve" smooth="yes"/>
      <point x="918" y="121"/>
      <point x="1053" y="260"/>
      <point x="1053" y="541" type="curve" smooth="yes"/>
      <point x="1053" y="963" type="line"/>
      <point x="1014" y="963" type="line"/>
      <point x="1014" y="541" type="line" smooth="yes"/>
      <point x="1014" y="281"/>
      <point x="891" y="157"/>
      <point x="642" y="157" type="curve" smooth="yes"/>
      <point x="376" y="157"/>
      <point x="239" y="303"/>
      <point x="239" y="598" type="curve" smooth="yes"/>
      <point x="239" y="607" type="line" smooth="yes"/>
      <point x="239" y="847"/>
      <point x="332" y="1013"/>
      <point x="503" y="1157" type="curve"/>
      <point x="455" y="1157" type="line"/>
      <point x="300" y="1031"/>
      <point x="198" y="862"/>
      <point x="198" y="607" type="curve" smooth="yes"/>
      <point x="198" y="598" type="line" smooth="yes"/>
      <point x="198" y="281"/>
      <point x="348" y="121"/>
    </contour>
    <contour>
      <point x="2066" y="121" type="curve" smooth="yes"/>
      <point x="2419" y="121"/>
      <point x="2624" y="241"/>
      <point x="2688" y="386" type="curve"/>
      <point x="2690" y="386" type="line"/>
      <point x="2686" y="447" type="line"/>
      <point x="2627" y="272"/>
      <point x="2408" y="157"/>
      <point x="2066" y="157" type="curve" smooth="yes"/>
      <point x="1744" y="157"/>
      <point x="1550" y="231"/>
      <point x="1550" y="425" type="curve" smooth="yes"/>
      <point x="1550" y="427" type="line" smooth="yes"/>
      <point x="1550" y="593"/>
      <point x="1686" y="658"/>
      <point x="1935" y="659" type="curve" smooth="yes"/>
      <point x="2214" y="660" type="line"/>
      <point x="2214" y="692" type="line"/>
      <point x="1935" y="694" type="line" smooth="yes"/>
      <point x="1682" y="696"/>
      <point x="1547" y="740"/>
      <point x="1547" y="885" type="curve" smooth="yes"/>
      <point x="1547" y="886" type="line" smooth="yes"/>
      <point x="1547" y="1036"/>
      <point x="1740" y="1125"/>
      <point x="2097" y="1274" type="curve"/>
      <point x="2097" y="1282" type="line"/>
      <point x="2022" y="1282" type="line"/>
      <point x="1709" y="1146"/>
      <point x="1506" y="1059"/>
      <point x="1506" y="886" type="curve" smooth="yes"/>
      <point x="1506" y="885" type="line" smooth="yes"/>
      <point x="1506" y="746"/>
      <point x="1616" y="689"/>
      <point x="1800" y="678" type="curve"/>
      <point x="1800" y="676" type="line"/>
      <point x="1618" y="660"/>
      <point x="1509" y="587"/>
      <point x="1509" y="427" type="curve" smooth="yes"/>
      <point x="1509" y="425" type="line" smooth="yes"/>
      <point x="1509" y="208"/>
      <point x="1721" y="121"/>
    </contour>
    <contour>
      <point x="2683" y="539" type="line"/>
      <point x="2722" y="539" type="line"/>
      <point x="2722" y="1157" type="line"/>
      <point x="2683" y="1157" type="line"/>
    </contour>
    <contour>
      <point x="2683" y="0" type="line"/>
      <point x="2722" y="0" type="line"/>
      <point x="2722" y="673" type="line"/>
      <point x="2683" y="673" type="line"/>
    </contour>
  </outline>
</glyph>
<glyph name="BaDhaVa.gj" format="2">
  <advance width="3946"/>
  <anchor x="3627" y="-105" name="Bottom"/>
  <anchor x="3606" y="1253" name="Top"/>
  <anchor x="3645" y="1253" name="Top2"/>
  <outline>
    <contour>
      <point x="1027" y="566" type="line"/>
      <point x="1623" y="566" type="line"/>
      <point x="1616" y="600" type="line"/>
      <point x="1027" y="600" type="line"/>
    </contour>
    <contour>
      <point x="642" y="121" type="curve" smooth="yes"/>
      <point x="918" y="121"/>
      <point x="1053" y="260"/>
      <point x="1053" y="541" type="curve" smooth="yes"/>
      <point x="1053" y="963" type="line"/>
      <point x="1014" y="963" type="line"/>
      <point x="1014" y="541" type="line" smooth="yes"/>
      <point x="1014" y="281"/>
      <point x="891" y="157"/>
      <point x="642" y="157" type="curve" smooth="yes"/>
      <point x="376" y="157"/>
      <point x="239" y="303"/>
      <point x="239" y="598" type="curve" smooth="yes"/>
      <point x="239" y="607" type="line" smooth="yes"/>
      <point x="239" y="847"/>
      <point x="332" y="1013"/>
      <point x="503" y="1157" type="curve"/>
      <point x="455" y="1157" type="line"/>
      <point x="300" y="1031"/>
      <point x="198" y="862"/>
      <point x="198" y="607" type="curve" smooth="yes"/>
      <point x="198" y="598" type="line" smooth="yes"/>
      <point x="198" y="281"/>
      <point x="348" y="121"/>
    </contour>
    <contour>
      <point x="2096" y="121" type="curve" smooth="yes"/>
      <point x="2425" y="121"/>
      <point x="2626" y="217"/>
      <point x="2696" y="389" type="curve"/>
      <point x="2684" y="427" type="line"/>
      <point x="2602" y="235"/>
      <point x="2409" y="157"/>
      <point x="2096" y="157" type="curve" smooth="yes"/>
      <point x="1774" y="157"/>
      <point x="1580" y="231"/>
      <point x="1580" y="425" type="curve" smooth="yes"/>
      <point x="1580" y="427" type="line" smooth="yes"/>
      <point x="1580" y="593"/>
      <point x="1716" y="658"/>
      <point x="1965" y="659" type="curve" smooth="yes"/>
      <point x="2244" y="660" type="line"/>
      <point x="2244" y="692" type="line"/>
      <point x="1965" y="694" type="line" smooth="yes"/>
      <point x="1712" y="696"/>
      <point x="1577" y="740"/>
      <point x="1577" y="885" type="curve" smooth="yes"/>
      <point x="1577" y="886" type="line" smooth="yes"/>
      <point x="1577" y="1036"/>
      <point x="1770" y="1125"/>
      <point x="2127" y="1274" type="curve"/>
      <point x="2127" y="1282" type="line"/>
      <point x="2052" y="1282" type="line"/>
      <point x="1739" y="1146"/>
      <point x="1536" y="1059"/>
      <point x="1536" y="886" type="curve" smooth="yes"/>
      <point x="1536" y="885" type="line" smooth="yes"/>
      <point x="1536" y="746"/>
      <point x="1646" y="689"/>
      <point x="1830" y="678" type="curve"/>
      <point x="1830" y="676" type="line"/>
      <point x="1648" y="660"/>
      <point x="1539" y="587"/>
      <point x="1539" y="427" type="curve" smooth="yes"/>
      <point x="1539" y="425" type="line" smooth="yes"/>
      <point x="1539" y="208"/>
      <point x="1751" y="121"/>
    </contour>
    <contour>
      <point x="3122" y="247" type="curve" smooth="yes"/>
      <point x="3405" y="247"/>
      <point x="3578" y="381"/>
      <point x="3631" y="527" type="curve"/>
      <point x="3635" y="527" type="line"/>
      <point x="3629" y="591" type="line"/>
      <point x="3572" y="408"/>
      <point x="3391" y="283"/>
      <point x="3122" y="283" type="curve" smooth="yes"/>
      <point x="2770" y="283"/>
      <point x="2604" y="436"/>
      <point x="2604" y="701" type="curve" smooth="yes"/>
      <point x="2604" y="707" type="line" smooth="yes"/>
      <point x="2604" y="972"/>
      <point x="2763" y="1120"/>
      <point x="3085" y="1120" type="curve" smooth="yes"/>
      <point x="3234" y="1120"/>
      <point x="3332" y="1093"/>
      <point x="3394" y="1064" type="curve"/>
      <point x="3389" y="1106" type="line"/>
      <point x="3339" y="1126"/>
      <point x="3245" y="1156"/>
      <point x="3085" y="1156" type="curve" smooth="yes"/>
      <point x="2739" y="1156"/>
      <point x="2563" y="996"/>
      <point x="2563" y="707" type="curve" smooth="yes"/>
      <point x="2563" y="701" type="line" smooth="yes"/>
      <point x="2563" y="409"/>
      <point x="2743" y="247"/>
    </contour>
    <contour>
      <point x="3626" y="539" type="line"/>
      <point x="3665" y="539" type="line"/>
      <point x="3665" y="1157" type="line"/>
      <point x="3626" y="1157" type="line"/>
    </contour>
    <contour>
      <point x="3626" y="0" type="line"/>
      <point x="3665" y="0" type="line"/>
      <point x="3665" y="673" type="line"/>
      <point x="3626" y="673" type="line"/>
    </contour>
  </outline>
</glyph>
<glyph name="BaHa.gj" format="2">
  <advance width="2818"/>
  <anchor x="2156" y="-164" name="Bottom"/>
  <anchor x="2268" y="1253" name="Top"/>
  <anchor x="2078" y="1253" name="Top2"/>
  <outline>
    <contour>
      <point x="1027" y="691" type="line"/>
      <point x="1691" y="691" type="line"/>
      <point x="1684" y="725" type="line"/>
      <point x="1027" y="725" type="line"/>
    </contour>
    <contour>
      <point x="642" y="121" type="curve" smooth="yes"/>
      <point x="918" y="121"/>
      <point x="1053" y="260"/>
      <point x="1053" y="541" type="curve" smooth="yes"/>
      <point x="1053" y="963" type="line"/>
      <point x="1014" y="963" type="line"/>
      <point x="1014" y="541" type="line" smooth="yes"/>
      <point x="1014" y="281"/>
      <point x="891" y="157"/>
      <point x="642" y="157" type="curve" smooth="yes"/>
      <point x="376" y="157"/>
      <point x="239" y="303"/>
      <point x="239" y="598" type="curve" smooth="yes"/>
      <point x="239" y="607" type="line" smooth="yes"/>
      <point x="239" y="847"/>
      <point x="332" y="1013"/>
      <point x="503" y="1157" type="curve"/>
      <point x="455" y="1157" type="line"/>
      <point x="300" y="1031"/>
      <point x="198" y="862"/>
      <point x="198" y="607" type="curve" smooth="yes"/>
      <point x="198" y="598" type="line" smooth="yes"/>
      <point x="198" y="281"/>
      <point x="348" y="121"/>
    </contour>
    <contour>
      <point x="2104" y="-73" type="curve" smooth="yes"/>
      <point x="2311" y="-73"/>
      <point x="2489" y="-34"/>
      <point x="2603" y="32" type="curve"/>
      <point x="2608" y="77" type="line"/>
      <point x="2487" y="5"/>
      <point x="2313" y="-37"/>
      <point x="2106" y="-37" type="curve" smooth="yes"/>
      <point x="1720" y="-37"/>
      <point x="1522" y="101"/>
      <point x="1522" y="365" type="curve" smooth="yes"/>
      <point x="1522" y="424"/>
      <point x="1528" y="475"/>
      <point x="1544" y="530" type="curve"/>
      <point x="1504" y="530" type="line"/>
      <point x="1488" y="481"/>
      <point x="1481" y="429"/>
      <point x="1481" y="365" type="curve" smooth="yes"/>
      <point x="1481" y="80"/>
      <point x="1691" y="-73"/>
    </contour>
    <contour>
      <point x="2492" y="278" type="curve"/>
      <point x="2537" y="278" type="line"/>
      <point x="2581" y="324"/>
      <point x="2610" y="395"/>
      <point x="2610" y="457" type="curve" smooth="yes"/>
      <point x="2610" y="634"/>
      <point x="2476" y="678"/>
      <point x="2254" y="684" type="curve" smooth="yes"/>
      <point x="1917" y="691" type="line" smooth="yes"/>
      <point x="1682" y="696"/>
      <point x="1581" y="757"/>
      <point x="1581" y="890" type="curve" smooth="yes"/>
      <point x="1581" y="892" type="line" smooth="yes"/>
      <point x="1581" y="1061"/>
      <point x="1736" y="1146"/>
      <point x="2036" y="1146" type="curve" smooth="yes"/>
      <point x="2252" y="1146"/>
      <point x="2408" y="1093"/>
      <point x="2519" y="1029" type="curve"/>
      <point x="2512" y="1070" type="line"/>
      <point x="2423" y="1125"/>
      <point x="2259" y="1182"/>
      <point x="2036" y="1182" type="curve" smooth="yes"/>
      <point x="1707" y="1182"/>
      <point x="1540" y="1084"/>
      <point x="1540" y="892" type="curve" smooth="yes"/>
      <point x="1540" y="890" type="line" smooth="yes"/>
      <point x="1540" y="732"/>
      <point x="1652" y="660"/>
      <point x="1915" y="655" type="curve" smooth="yes"/>
      <point x="2252" y="648" type="line" smooth="yes"/>
      <point x="2449" y="644"/>
      <point x="2569" y="609"/>
      <point x="2569" y="457" type="curve" smooth="yes"/>
      <point x="2569" y="395"/>
      <point x="2544" y="338"/>
    </contour>
  </outline>
</glyph>
<glyph name="BaHalf.gj" format="2">
  <advance width="1424"/>
  <outline>
    <contour>
      <point x="1027" y="566" type="line"/>
      <point x="1641" y="566" type="line"/>
      <point x="1634" y="600" type="line"/>
      <point x="1027" y="600" type="line"/>
    </contour>
    <contour>
      <point x="642" y="121" type="curve" smooth="yes"/>
      <point x="918" y="121"/>
      <point x="1053" y="260"/>
      <point x="1053" y="541" type="curve" smooth="yes"/>
      <point x="1053" y="963" type="line"/>
      <point x="1014" y="963" type="line"/>
      <point x="1014" y="541" type="line" smooth="yes"/>
      <point x="1014" y="281"/>
      <point x="891" y="157"/>
      <point x="642" y="157" type="curve" smooth="yes"/>
      <point x="376" y="157"/>
      <point x="239" y="303"/>
      <point x="239" y="598" type="curve" smooth="yes"/>
      <point x="239" y="607" type="line" smooth="yes"/>
      <point x="239" y="847"/>
      <point x="332" y="1013"/>
      <point x="503" y="1157" type="curve"/>
      <point x="455" y="1157" type="line"/>
      <point x="300" y="1031"/>
      <point x="198" y="862"/>
      <point x="198" y="607" type="curve" smooth="yes"/>
      <point x="198" y="598" type="line" smooth="yes"/>
      <point x="198" y="281"/>
      <point x="348" y="121"/>
    </contour>
  </outline>
</glyph>
<glyph name="BaHalf_alt.gj" format="2">
  <advance width="1424"/>
  <outline>
    <contour>
      <point x="1025" y="576" type="line"/>
      <point x="1639" y="576" type="line"/>
      <point x="1632" y="610" type="line"/>
      <point x="1025" y="610" type="line"/>
    </contour>
    <contour>
      <point x="642" y="135" type="curve" smooth="yes"/>
      <point x="918" y="135"/>
      <point x="1053" y="274"/>
      <point x="1053" y="554" type="curve" smooth="yes"/>
      <point x="1053" y="965" type="line"/>
      <point x="1014" y="965" type="line"/>
      <point x="1014" y="554" type="line" smooth="yes"/>
      <point x="1014" y="295"/>
      <point x="891" y="171"/>
      <point x="642" y="171" type="curve" smooth="yes"/>
      <point x="376" y="171"/>
      <point x="239" y="315"/>
      <point x="239" y="607" type="curve" smooth="yes"/>
      <point x="239" y="615" type="line" smooth="yes"/>
      <point x="239" y="852"/>
      <point x="332" y="1015"/>
      <point x="503" y="1157" type="curve"/>
      <point x="455" y="1157" type="line"/>
      <point x="300" y="1033"/>
      <point x="198" y="866"/>
      <point x="198" y="615" type="curve" smooth="yes"/>
      <point x="198" y="607" type="line" smooth="yes"/>
      <point x="198" y="293"/>
      <point x="348" y="135"/>
    </contour>
  </outline>
</glyph>
